<svg width="100" height="66" viewBox="0 0 100 66" fill="none" xmlns="http://www.w3.org/2000/svg">
<g clip-path="url(#clip0_610_13144)">
<path fill-rule="evenodd" clip-rule="evenodd" d="M39.9287 1.12654V1.25876L44.8346 2.29293V0.0887451L39.9287 1.12654Z" fill="#80BA27"/>
<path fill-rule="evenodd" clip-rule="evenodd" d="M36.353 2.35452V3.77447L34.1367 3.85054C32.1926 3.85054 31.396 4.77243 31.396 6.69589V14.1995C31.396 14.9602 31.5787 15.8296 31.9441 16.257C32.2438 16.6193 33.0824 17.0413 33.753 17.0413L34.4144 17.0521L33.6215 18.3996H43.8535L42.9508 17.0413C45.2695 17.0376 46.0131 16.3005 46.0131 13.9931V12.3159L42.8832 11.7364V14.5817H34.4619L34.5222 6.17427H42.8832V8.6936L46.0131 8.239V6.55643C46.0131 4.74526 45.1105 4.04615 43.4661 3.83968L41.0506 3.77991V2.35452H39.9379V0.0905609H37.453V2.35814L36.353 2.35452Z" fill="#80BA27" stroke="#80BA27"/>
<path fill-rule="evenodd" clip-rule="evenodd" d="M7.96289 45.8823V41.3109H11.1147C11.5051 41.2914 11.89 41.4087 12.2019 41.6423C12.3301 41.7554 12.4313 41.8953 12.4983 42.0519C12.5653 42.2085 12.5964 42.378 12.5892 42.5479C12.5892 42.9391 12.5709 43.4535 12.3133 43.6908C11.9964 43.9391 11.6006 44.0675 11.1969 44.053H8.63893L8.62614 45.8786L7.96289 45.8823ZM8.64076 43.4336H11.0763C11.316 43.4524 11.5549 43.3884 11.7524 43.2525C11.8957 43.1022 11.9755 42.9032 11.9755 42.6964C11.9755 42.4896 11.8957 42.2907 11.7524 42.1404C11.569 41.995 11.3383 41.921 11.1037 41.9321H8.64076V43.4336Z" fill="black"/>
<path fill-rule="evenodd" clip-rule="evenodd" d="M15.8635 45.8949V41.3H20.0148V41.9792L16.5706 41.9846L16.5505 43.2162L19.0007 43.2054V43.8248H16.5505L16.5706 45.2067H20.0148V45.8949H15.8635Z" fill="black"/>
<path fill-rule="evenodd" clip-rule="evenodd" d="M31.9258 45.895V41.2873H36.1209V41.9738H32.5744V43.2018H35.0356V43.8157H32.5744V45.895H31.9258Z" fill="black"/>
<path fill-rule="evenodd" clip-rule="evenodd" d="M39.9944 41.2294V44.1381C39.9944 44.6 40.0967 44.9187 40.3196 45.0709C40.8075 45.4186 42.5999 45.4331 43.0732 45.089C43.2851 44.926 43.4093 44.6181 43.4093 44.1508V41.2439H44.0032V44.2957C44.0032 45.5635 43.1134 45.9257 41.6681 45.9257C40.2228 45.9257 39.3257 45.3426 39.3257 44.2957V41.2475L39.9944 41.2294Z" fill="black"/>
<path fill-rule="evenodd" clip-rule="evenodd" d="M47.842 45.8931V41.271H48.6076L50.6778 44.0566L52.7662 41.271H53.5245V45.8823H52.8502V42.1784L50.6778 45.0528L48.5144 42.1784V45.8931H47.842Z" fill="black"/>
<path fill-rule="evenodd" clip-rule="evenodd" d="M66.0129 45.7953C66.4371 45.9322 66.8806 46.0013 67.3267 46C67.8681 46.0232 68.4032 45.8768 68.856 45.5816C69.0372 45.4632 69.1858 45.3017 69.2882 45.112C69.3907 44.9222 69.4437 44.7101 69.4425 44.4949C69.4461 44.3172 69.4094 44.141 69.3351 43.9792C69.2608 43.8174 69.1507 43.6743 69.0131 43.5604C68.6882 43.2889 68.2842 43.1277 67.8602 43.1003C67.6921 43.0822 67.4582 43.0659 67.1677 43.046C66.5428 43.0134 66.1262 42.9337 65.938 42.7888C65.87 42.7443 65.8161 42.6815 65.7827 42.6077C65.746 42.5502 65.7264 42.4837 65.7261 42.4157C65.733 42.3163 65.7665 42.2205 65.823 42.1381C65.8795 42.0557 65.957 41.9896 66.0477 41.9466C66.3157 41.8083 66.6154 41.7415 66.9174 41.7528C67.2475 41.7539 67.575 41.8108 67.8858 41.9213C68.211 42.0405 68.5155 42.2092 68.7884 42.4211L68.8231 42.4465L68.8377 42.4157L69.1885 41.9412L69.205 41.9176L69.1739 41.8959C68.8416 41.6498 68.4714 41.4583 68.0776 41.329C67.6975 41.2073 67.3004 41.1461 66.9009 41.1479C66.4275 41.1287 65.9596 41.2552 65.5616 41.5101C65.4029 41.6089 65.2724 41.7463 65.1825 41.9093C65.0926 42.0722 65.0464 42.2553 65.0482 42.4411C65.0459 42.6444 65.1051 42.8437 65.2181 43.0134C65.3518 43.1877 65.5295 43.3239 65.7334 43.4082C66.0148 43.5368 66.552 43.6238 67.3267 43.6853C67.444 43.6861 67.5612 43.6945 67.6775 43.7107C67.9572 43.7171 68.2296 43.7998 68.465 43.9498C68.55 44.0085 68.6194 44.0868 68.6672 44.178C68.7149 44.2691 68.7396 44.3705 68.739 44.4732C68.7398 44.6064 68.7046 44.7375 68.6372 44.8528C68.5697 44.968 68.4724 45.0633 68.3553 45.1288C68.0455 45.3187 67.6851 45.4115 67.3212 45.3951C66.9603 45.3906 66.6029 45.3238 66.2651 45.1977C65.8963 45.0634 65.552 44.8708 65.2456 44.6271L65.2108 44.6036L65.1834 44.6434L64.8436 45.1288L64.8198 45.1687L64.8527 45.1886C65.2026 45.4531 65.5948 45.6576 66.0129 45.7935" fill="black"/>
<path fill-rule="evenodd" clip-rule="evenodd" d="M23.7219 45.8768V41.3055H26.8756C27.2638 41.2854 27.6464 41.4043 27.9536 41.6405C28.0836 41.75 28.1864 41.8876 28.2542 42.0427C28.322 42.1979 28.353 42.3664 28.3446 42.5352C28.3446 42.9373 28.3227 43.4408 28.0724 43.6871C27.8432 43.8747 27.5651 43.9941 27.2702 44.0313L28.4652 45.8732H27.6686L26.4626 44.0512H24.3888V45.8768H23.7219ZM24.3961 43.43H26.8335C27.0722 43.448 27.3094 43.3791 27.5005 43.2362C27.5795 43.1701 27.6417 43.0864 27.682 42.992C27.7223 42.8976 27.7396 42.7951 27.7325 42.6928C27.7397 42.5881 27.7225 42.4832 27.6822 42.3862C27.642 42.2892 27.5798 42.2026 27.5005 42.1332C27.3224 41.9879 27.0946 41.9165 26.8646 41.9339H24.3888L24.3961 43.43Z" fill="black"/>
<path fill-rule="evenodd" clip-rule="evenodd" d="M57.3979 45.875V41.2765H61.562V41.9611L58.1087 41.9629L58.0977 43.1927H60.5406V43.8012H58.0977L58.1087 45.1904L61.562 45.1868V45.875H57.3979Z" fill="black"/>
<path fill-rule="evenodd" clip-rule="evenodd" d="M19.4356 29.2594C19.4356 27.5859 21.0964 25.9033 22.8249 25.8997H23.4845C24.9225 25.8997 26.5468 27.7344 26.5468 29.2594V29.5039C26.5468 31.5704 25.0851 33.186 22.9893 33.1896H22.7427C21.069 33.1896 19.4356 31.2843 19.4356 29.5926V29.2594ZM14.4785 29.6687C14.4785 34.3777 18.3795 38.1812 23.1574 38.1812C27.6193 38.1812 31.502 34.2854 31.502 29.9078V28.4353C31.502 27.7634 30.8424 25.9214 30.5629 25.436C29.9069 24.3258 29.7187 24.1012 28.8362 23.2228C27.6102 22.0165 25.805 20.8302 23.4005 20.8302H22.4065C18.5932 20.8302 14.4803 24.9832 14.4803 28.7794L14.4785 29.6687Z" fill="black"/>
<path fill-rule="evenodd" clip-rule="evenodd" d="M40.1497 27.5297H33.4697V31.5415L39.0772 31.6175C39.914 31.8131 39.9597 32.0522 40.1534 32.8491L40.2411 37.6741L45.136 37.7175V31.728C45.178 31.1847 44.9533 30.9239 44.7103 30.6413C44.4673 30.3588 43.5318 29.935 42.9654 29.8897H43.455C45.0648 29.752 46.51 27.9409 46.51 26.2166V25.561C46.51 23.2336 44.4709 21.3011 42.05 21.3011H33.4624L33.4734 25.4016H40.062C40.7052 25.4016 41.0651 25.7457 41.0651 26.3851V26.5408C41.0651 27.048 40.6705 27.5279 40.1516 27.5279" fill="black"/>
<path fill-rule="evenodd" clip-rule="evenodd" d="M8.21499 21.408C6.2161 21.408 3.94313 22.7482 2.90349 23.7625C1.50297 25.1962 0.713768 27.1098 0.699951 29.1054L0.699951 30.011C0.699951 32.2714 1.65372 33.963 2.64769 35.2888C3.48269 36.3755 5.53457 37.7012 7.39826 37.7012H12.5143V33.6877H10.9502C9.63468 33.5066 8.06151 33.3255 7.09312 32.3601C6.52123 31.7968 6.07723 30.7699 6.07723 29.676V29.3409C6.07723 25.7186 9.97636 25.5936 12.602 25.4885L12.591 21.3138L8.21499 21.408Z" fill="black"/>
<path fill-rule="evenodd" clip-rule="evenodd" d="M64.5897 37.7501L59.1046 21.3066L53.7821 21.3211L58.4907 33.8978L54.1786 33.9068L55.8468 27.4537L51.6115 27.4464L48.4304 37.7483L64.5897 37.7501Z" fill="black"/>
<path fill-rule="evenodd" clip-rule="evenodd" d="M66.5521 37.7501L76.7001 37.7483V33.6533L71.5055 33.6587V25.4704V21.2957H66.543L66.5521 37.7501Z" fill="black"/>
<path d="M75.1267 20.2597C75.0261 20.1087 74.909 19.969 74.7777 19.8431C74.7356 19.808 74.6911 19.776 74.6444 19.7471C74.8506 19.7126 75.0416 19.6173 75.1925 19.4737C75.3427 19.3171 75.4248 19.1083 75.4209 18.8923C75.423 18.7211 75.3761 18.5528 75.2857 18.4069C75.2035 18.265 75.0744 18.1556 74.9203 18.0972C74.7127 18.0311 74.495 18.0016 74.2771 18.0102H72.8538V21.1635H73.3526V19.8069H73.7856C73.8576 19.8052 73.9297 19.8088 74.0012 19.8178C74.0624 19.834 74.1209 19.859 74.1748 19.892C74.2487 19.9486 74.315 20.0144 74.3721 20.0876C74.4452 20.1854 74.542 20.3267 74.659 20.506L75.0829 21.1635H75.7078L75.1267 20.2597ZM74.8271 19.1386C74.7754 19.217 74.6989 19.2763 74.6096 19.307C74.4728 19.3506 74.3293 19.3696 74.1857 19.3632H73.3526V18.4395H74.2881C74.4548 18.4279 74.6206 18.4732 74.7576 18.5681C74.8051 18.6077 74.8429 18.6574 74.8682 18.7136C74.8935 18.7697 74.9057 18.8308 74.9038 18.8923C74.9034 18.9801 74.8767 19.0658 74.8271 19.1386Z" fill="black"/>
<path d="M74.226 22.0854C73.7356 22.0846 73.2565 21.9398 72.8491 21.6691C72.4418 21.3985 72.1246 21.0142 71.9376 20.5648C71.7506 20.1154 71.7022 19.6212 71.7986 19.1446C71.895 18.668 72.1318 18.2304 72.479 17.8872C72.8263 17.5439 73.2684 17.3105 73.7495 17.2164C74.2307 17.1223 74.7291 17.1717 75.1819 17.3583C75.6347 17.545 76.0214 17.8606 76.2933 18.2652C76.5651 18.6697 76.7098 19.1451 76.7091 19.6312C76.7077 20.2814 76.4466 20.9045 75.983 21.3643C75.5194 21.8242 74.891 22.0835 74.2352 22.0854H74.226ZM74.226 17.4524C73.7924 17.4524 73.3685 17.5799 73.0079 17.8187C72.6473 18.0575 72.3663 18.3969 72.2004 18.7941C72.0344 19.1912 71.991 19.6282 72.0756 20.0498C72.1602 20.4714 72.369 20.8587 72.6756 21.1626C72.9823 21.4666 73.373 21.6736 73.7983 21.7574C74.2236 21.8413 74.6644 21.7983 75.0651 21.6338C75.4657 21.4693 75.8082 21.1907 76.0491 20.8333C76.29 20.4759 76.4186 20.0557 76.4186 19.6258C76.4186 19.0494 76.1876 18.4966 75.7764 18.089C75.3652 17.6814 74.8075 17.4524 74.226 17.4524Z" fill="black"/>
</g>
<defs>
<clipPath id="clip0_610_13144">
<rect width="100" height="66" fill="white" transform="translate(0.699951)"/>
</clipPath>
</defs>
</svg>
