<svg width="153" height="161" viewBox="0 0 153 161" fill="none" xmlns="http://www.w3.org/2000/svg">
<g id="Sticker">
<g id="Vector" filter="url(#filter0_d_629_17423)">
<path d="M147.289 80.0852C147.826 80.5697 148.244 81.1842 148.507 81.8764C148.771 82.5686 148.872 83.3179 148.803 84.0603C148.733 84.8028 148.494 85.5165 148.107 86.1405C147.72 86.7645 147.196 87.2804 146.579 87.6441C145.9 88.0475 145.334 88.6352 144.942 89.3465C144.549 90.0578 144.343 90.867 144.345 91.6905C144.34 92.7311 144.671 93.7425 145.285 94.5567C145.722 95.142 146.02 95.8305 146.151 96.5633C146.282 97.2962 146.244 98.0518 146.04 98.7657C145.835 99.4796 145.47 100.131 144.976 100.663C144.482 101.196 143.873 101.595 143.201 101.825C142.598 102.03 142.044 102.371 141.578 102.825C141.112 103.278 140.745 103.833 140.502 104.452C140.259 105.07 140.146 105.737 140.171 106.406C140.197 107.075 140.359 107.73 140.648 108.326C140.968 108.973 141.136 109.693 141.136 110.424C141.139 111.561 140.745 112.659 140.031 113.509C139.316 114.359 138.33 114.901 137.261 115.032C136.629 115.102 136.018 115.318 135.474 115.666C134.929 116.013 134.463 116.483 134.109 117.041C133.756 117.6 133.523 118.234 133.427 118.899C133.331 119.563 133.375 120.242 133.556 120.886C133.75 121.605 133.777 122.363 133.634 123.095C133.49 123.827 133.18 124.511 132.731 125.088C132.282 125.666 131.707 126.12 131.055 126.411C130.404 126.702 129.695 126.821 128.99 126.759H128.626C128.023 126.76 127.426 126.892 126.874 127.149C126.322 127.405 125.826 127.78 125.418 128.249C125.009 128.718 124.698 129.271 124.502 129.874C124.307 130.477 124.232 131.117 124.282 131.752C124.282 131.892 124.282 132.023 124.282 132.145C124.279 132.859 124.12 133.562 123.817 134.2C123.514 134.838 123.075 135.394 122.535 135.823C121.995 136.252 121.368 136.543 120.704 136.674C120.039 136.804 119.356 136.771 118.706 136.576C118.096 136.385 117.453 136.339 116.824 136.44C116.195 136.541 115.595 136.787 115.066 137.161C114.537 137.534 114.093 138.026 113.764 138.602C113.436 139.177 113.231 139.822 113.165 140.491C113.029 141.615 112.513 142.65 111.711 143.402C110.909 144.155 109.875 144.575 108.803 144.584C108.111 144.586 107.429 144.409 106.817 144.069C106.253 143.765 105.634 143.594 105.001 143.568C104.369 143.541 103.739 143.66 103.154 143.915C102.569 144.171 102.044 144.557 101.614 145.048C101.184 145.538 100.86 146.121 100.664 146.757C100.437 147.461 100.055 148.097 99.5496 148.614C99.0439 149.13 98.4292 149.512 97.7561 149.728C97.0831 149.944 96.371 149.988 95.6788 149.856C94.9866 149.723 94.3341 149.419 93.7753 148.968C93.2779 148.555 92.7018 148.26 92.0866 148.104C91.4713 147.948 90.8315 147.935 90.2109 148.065C89.5903 148.195 89.0036 148.465 88.491 148.857C87.9785 149.249 87.5522 149.753 87.2413 150.335C86.8985 150.988 86.4109 151.544 85.8202 151.954C85.2295 152.365 84.5535 152.618 83.85 152.691C83.1465 152.765 82.4366 152.657 81.7811 152.377C81.1257 152.098 80.5443 151.654 80.0867 151.084C79.6756 150.576 79.1651 150.168 78.5904 149.889C78.0157 149.609 77.3904 149.464 76.7577 149.464C76.1249 149.464 75.4997 149.609 74.925 149.889C74.3503 150.168 73.8398 150.576 73.4286 151.084C72.9702 151.654 72.388 152.097 71.7319 152.377C71.0758 152.657 70.3653 152.765 69.6612 152.691C68.9572 152.617 68.2804 152.364 67.689 151.954C67.0976 151.544 66.609 150.988 66.2652 150.335C65.9492 149.757 65.5201 149.258 65.0065 148.869C64.4929 148.481 63.9068 148.213 63.2872 148.084C62.6677 147.954 62.0292 147.966 61.4144 148.119C60.7995 148.271 60.2226 148.561 59.7223 148.968C59.1654 149.419 58.5138 149.722 57.8226 149.851C57.1313 149.98 56.4209 149.932 55.7512 149.709C55.0816 149.487 54.4725 149.097 53.9755 148.574C53.4784 148.05 53.1081 147.408 52.8957 146.701C52.6997 146.059 52.3734 145.469 51.9395 144.974C51.5057 144.479 50.9747 144.09 50.3838 143.834C49.7928 143.578 49.1561 143.461 48.5181 143.492C47.88 143.523 47.2561 143.701 46.6898 144.013C46.0768 144.351 45.3954 144.528 44.7038 144.528C43.6282 144.533 42.5889 144.117 41.7854 143.362C40.982 142.606 40.471 141.564 40.3508 140.435C40.2833 139.766 40.0775 139.121 39.7479 138.545C39.4183 137.97 38.973 137.478 38.4435 137.104C37.914 136.731 37.3132 136.485 36.6838 136.384C36.0543 136.282 35.4115 136.329 34.8009 136.519C34.1207 136.725 33.4034 136.753 32.7106 136.602C32.0178 136.45 31.3703 136.123 30.8235 135.648C30.2768 135.174 29.8472 134.566 29.5718 133.878C29.2963 133.189 29.1832 132.44 29.2421 131.695C29.2421 131.564 29.2421 131.443 29.2421 131.311C29.2403 130.675 29.1142 130.047 28.8716 129.464C28.6291 128.882 28.2753 128.359 27.8324 127.928C27.3896 127.498 26.8673 127.168 26.2983 126.96C25.7292 126.753 25.1257 126.671 24.5256 126.722H24.1621C23.4859 126.721 22.819 126.555 22.2138 126.236C21.6085 125.918 21.0812 125.456 20.6733 124.886C20.2654 124.316 19.9879 123.654 19.8626 122.952C19.7372 122.25 19.7675 121.527 19.9509 120.84C20.066 120.423 20.1257 119.991 20.1282 119.556C20.1262 118.425 19.7302 117.334 19.0158 116.491C18.3013 115.648 17.3182 115.112 16.2539 114.985C15.1851 114.854 14.1993 114.312 13.4847 113.462C12.7702 112.612 12.3768 111.514 12.3796 110.377C12.3797 109.646 12.547 108.926 12.8672 108.279C13.1837 107.63 13.3479 106.91 13.346 106.181C13.3473 105.202 13.0543 104.248 12.5093 103.457C11.9644 102.666 11.1956 102.078 10.3139 101.778C9.43076 101.478 8.66094 100.889 8.11584 100.096C7.57075 99.3026 7.27865 98.3468 7.28184 97.3667C7.27667 96.3273 7.61181 95.318 8.23047 94.5098C8.62001 93.9826 8.89813 93.3733 9.04612 92.7229C9.19411 92.0726 9.20853 91.3963 9.08842 90.7396C8.9683 90.0829 8.71643 89.4609 8.34975 88.9157C7.98308 88.3704 7.51011 87.9145 6.96268 87.5785C6.35528 87.2143 5.83954 86.7013 5.45884 86.0826C5.07815 85.464 4.84362 84.7578 4.77498 84.0235C4.70635 83.2892 4.80561 82.5482 5.06443 81.8629C5.32325 81.1775 5.73405 80.5679 6.26229 80.0852C6.73693 79.6456 7.11725 79.104 7.37781 78.4967C7.63837 77.8893 7.77316 77.2301 7.77316 76.5633C7.77316 75.8965 7.63837 75.2373 7.37781 74.6299C7.11725 74.0226 6.73693 73.481 6.26229 73.0414C5.72106 72.5599 5.29883 71.9466 5.032 71.2542C4.76518 70.5619 4.66178 69.8113 4.73071 69.0674C4.79965 68.3234 5.03885 67.6083 5.42769 66.9837C5.81654 66.3592 6.34334 65.844 6.96268 65.4825C7.52109 65.1568 8.00541 64.7061 8.38177 64.1619C8.75813 63.6178 9.01744 62.9933 9.14156 62.3323C9.26569 61.6712 9.25164 60.9895 9.10039 60.3348C8.94914 59.6801 8.66435 59.0681 8.26593 58.5418C7.64728 57.73 7.31227 56.7178 7.3173 55.6756C7.31402 54.6979 7.60516 53.7444 8.14863 52.953C8.69209 52.1616 9.45972 51.5734 10.3405 51.2733C11.2185 50.9644 11.983 50.3728 12.5268 49.5816C13.0705 48.7905 13.3663 47.8393 13.3726 46.8616C13.3734 46.1319 13.2093 45.4126 12.8938 44.7635C12.5726 44.1162 12.4053 43.3961 12.4062 42.6653C12.4055 41.5301 12.7999 40.4343 13.5143 39.5863C14.2287 38.7383 15.2132 38.1973 16.2805 38.0663C17.3448 37.9357 18.3269 37.3974 19.0408 36.5534C19.7548 35.7093 20.1511 34.618 20.1548 33.486C20.1523 33.0516 20.0926 32.6198 19.9775 32.2028C19.8685 31.7913 19.8148 31.3656 19.8179 30.9383C19.8263 30.3044 19.9565 29.6789 20.2005 29.0997C20.4446 28.5205 20.7973 27.9997 21.2375 27.5688C21.6777 27.1379 22.196 26.8059 22.7612 26.593C23.3264 26.38 23.9267 26.2905 24.5256 26.3299C24.6497 26.3299 24.7649 26.3299 24.8891 26.3299C25.4916 26.3255 26.0867 26.1899 26.6374 25.9314C27.188 25.673 27.6822 25.2972 28.0891 24.8278C28.496 24.3583 28.8069 23.8052 29.0022 23.203C29.1975 22.6008 29.2732 21.9626 29.2244 21.3281C29.2244 21.2063 29.2244 21.0752 29.2244 20.9534C29.225 20.239 29.3823 19.5345 29.6837 18.895C29.9852 18.2555 30.4227 17.6985 30.962 17.2675C31.5013 16.8365 32.1278 16.5434 32.7922 16.4109C33.4567 16.2785 34.1412 16.3105 34.792 16.5042C35.1867 16.6259 35.5955 16.6889 36.0066 16.6916C37.0759 16.6959 38.1097 16.2869 38.9132 15.5415C39.7167 14.7961 40.2343 13.7659 40.3685 12.6452C40.4888 11.5159 40.9997 10.4734 41.8032 9.71788C42.6066 8.96237 43.646 8.54714 44.7216 8.55195C45.4132 8.55208 46.0945 8.72882 46.7075 9.06711C47.3215 9.40146 48.0026 9.57494 48.6934 9.57292C49.6256 9.57086 50.5334 9.2584 51.2878 8.67994C52.0423 8.10148 52.6049 7.28647 52.8957 6.35078C53.1774 5.41616 53.7346 4.60118 54.4859 4.02487C55.2371 3.44855 56.1431 3.14109 57.0715 3.14738C58.0385 3.15294 58.9755 3.50272 59.7312 4.14025C60.2282 4.55649 60.8049 4.8537 61.4214 5.01133C62.0379 5.16896 62.6794 5.18325 63.3016 5.0532C63.9238 4.92315 64.5118 4.65187 65.0251 4.25813C65.5383 3.86438 65.9644 3.35756 66.274 2.77271C66.6172 2.11832 67.1058 1.56182 67.6977 1.15112C68.2896 0.740406 68.967 0.487783 69.6718 0.414982C70.3766 0.342182 71.0875 0.451384 71.7435 0.733193C72.3995 1.015 72.9808 1.46098 73.4375 2.03275C73.8486 2.5409 74.3591 2.9489 74.9338 3.22865C75.5085 3.5084 76.1338 3.65326 76.7666 3.65326C77.3993 3.65326 78.0246 3.5084 78.5993 3.22865C79.174 2.9489 79.6845 2.5409 80.0956 2.03275L98.0575 19.2018L128.6 48.3415L145.17 64.1431C145.535 64.7013 146.017 65.1628 146.579 65.4919C147.196 65.8556 147.72 66.3714 148.107 66.9955C148.494 67.6195 148.733 68.3331 148.803 69.0756C148.872 69.8181 148.771 70.5674 148.507 71.2596C148.244 71.9517 147.826 72.5663 147.289 73.0508C146.814 73.4904 146.434 74.0319 146.173 74.6393C145.912 75.2467 145.778 75.9058 145.778 76.5727C145.778 77.2395 145.912 77.8987 146.173 78.506C146.434 79.1134 146.814 79.655 147.289 80.0945V80.0852Z" fill="white"/>
</g>
<path id="Vector_2" d="M133.44 76.5352C133.425 89.3122 129.537 101.748 122.346 112.021C115.154 122.294 105.038 129.863 93.4795 133.621C81.9207 137.378 69.5266 137.126 58.1134 132.9C46.7002 128.675 36.8678 120.699 30.0568 110.141C23.2458 99.5833 19.8142 86.9982 20.2649 74.2301C20.7156 61.462 25.0249 49.1819 32.5614 39.1893C40.0978 29.1966 50.4653 22.0166 62.1446 18.7012C73.824 15.3859 86.2014 16.1095 97.4633 20.7661L127.146 49.0815C131.3 57.566 133.459 66.9827 133.44 76.5352Z" fill="#80BA27"/>
<path id="Vector_3" style="mix-blend-mode:multiply" d="M147.289 80.0852C147.826 80.5697 148.244 81.1842 148.507 81.8764C148.771 82.5686 148.872 83.3179 148.803 84.0603C148.733 84.8028 148.494 85.5165 148.107 86.1405C147.72 86.7645 147.196 87.2804 146.579 87.6441C145.9 88.0475 145.334 88.6352 144.942 89.3465C144.549 90.0578 144.343 90.867 144.345 91.6905C144.34 92.7311 144.671 93.7425 145.285 94.5567C145.722 95.142 146.02 95.8305 146.151 96.5633C146.282 97.2962 146.244 98.0518 146.04 98.7657C145.835 99.4796 145.47 100.131 144.976 100.663C144.482 101.196 143.873 101.595 143.201 101.825C142.598 102.03 142.044 102.371 141.578 102.825C141.112 103.278 140.745 103.833 140.502 104.452C140.259 105.07 140.146 105.737 140.171 106.406C140.197 107.075 140.359 107.73 140.648 108.326C140.968 108.973 141.136 109.693 141.136 110.424C141.139 111.561 140.745 112.659 140.031 113.509C139.316 114.359 138.33 114.901 137.261 115.032C136.629 115.102 136.018 115.318 135.474 115.666C134.929 116.013 134.463 116.483 134.109 117.041C133.756 117.6 133.523 118.234 133.427 118.899C133.331 119.563 133.375 120.242 133.556 120.886C133.75 121.605 133.777 122.363 133.634 123.095C133.49 123.827 133.18 124.511 132.731 125.088C132.282 125.666 131.707 126.12 131.055 126.411C130.404 126.702 129.695 126.821 128.99 126.759H128.626C128.023 126.76 127.426 126.892 126.874 127.149C126.322 127.405 125.826 127.78 125.418 128.249C125.009 128.718 124.698 129.271 124.502 129.874C124.307 130.477 124.232 131.117 124.282 131.752C124.282 131.892 124.282 132.023 124.282 132.145C124.279 132.859 124.12 133.562 123.817 134.2C123.514 134.838 123.075 135.394 122.535 135.823C121.995 136.252 121.368 136.543 120.704 136.674C120.039 136.804 119.356 136.771 118.706 136.576C118.096 136.385 117.453 136.339 116.824 136.44C116.195 136.541 115.595 136.787 115.066 137.161C114.537 137.534 114.093 138.026 113.764 138.602C113.436 139.177 113.231 139.822 113.165 140.491C113.029 141.615 112.513 142.65 111.711 143.402C110.909 144.155 109.875 144.575 108.803 144.584C108.111 144.586 107.429 144.409 106.817 144.069C106.253 143.765 105.634 143.594 105.001 143.568C104.369 143.541 103.739 143.66 103.154 143.915C102.569 144.171 102.044 144.557 101.614 145.048C101.184 145.538 100.86 146.121 100.664 146.757C100.437 147.461 100.055 148.097 99.5496 148.614C99.0439 149.13 98.4292 149.512 97.7561 149.728C97.0831 149.944 96.371 149.988 95.6788 149.856C94.9866 149.723 94.3341 149.419 93.7753 148.968C93.2779 148.555 92.7018 148.26 92.0866 148.104C91.4713 147.948 90.8315 147.935 90.2109 148.065C89.5903 148.195 89.0036 148.465 88.491 148.857C87.9785 149.249 87.5522 149.753 87.2413 150.335C86.8985 150.988 86.4109 151.544 85.8202 151.954C85.2295 152.365 84.5535 152.618 83.85 152.691C83.1465 152.765 82.4366 152.657 81.7811 152.377C81.1257 152.098 80.5443 151.654 80.0867 151.084C79.6756 150.576 79.1651 150.168 78.5904 149.889C78.0157 149.609 77.3904 149.464 76.7577 149.464C76.1249 149.464 75.4997 149.609 74.925 149.889C74.3503 150.168 73.8398 150.576 73.4286 151.084C72.9702 151.654 72.388 152.097 71.7319 152.377C71.0758 152.657 70.3653 152.765 69.6612 152.691C68.9572 152.617 68.2804 152.364 67.689 151.954C67.0976 151.544 66.609 150.988 66.2652 150.335C65.9492 149.757 65.5201 149.258 65.0065 148.869C64.4929 148.481 63.9068 148.213 63.2872 148.084C62.6677 147.954 62.0292 147.966 61.4144 148.119C60.7995 148.271 60.2226 148.561 59.7223 148.968C59.1654 149.419 58.5138 149.722 57.8226 149.851C57.1313 149.98 56.4209 149.932 55.7512 149.709C55.0816 149.487 54.4725 149.097 53.9755 148.574C53.4784 148.05 53.1081 147.408 52.8957 146.701C52.6997 146.059 52.3734 145.469 51.9395 144.974C51.5057 144.479 50.9747 144.09 50.3838 143.834C49.7928 143.578 49.1561 143.461 48.5181 143.492C47.88 143.523 47.2561 143.701 46.6898 144.013C46.0768 144.351 45.3954 144.528 44.7038 144.528C43.6282 144.533 42.5889 144.117 41.7854 143.362C40.982 142.606 40.471 141.564 40.3508 140.435C40.2833 139.766 40.0775 139.121 39.7479 138.545C39.4183 137.97 38.973 137.478 38.4435 137.104C37.914 136.731 37.3132 136.485 36.6838 136.384C36.0543 136.282 35.4115 136.329 34.8009 136.519C34.1207 136.725 33.4034 136.753 32.7106 136.602C32.0178 136.45 31.3703 136.123 30.8235 135.648C30.2768 135.174 29.8472 134.566 29.5718 133.878C29.2963 133.189 29.1832 132.44 29.2421 131.695C29.2421 131.564 29.2421 131.443 29.2421 131.311C29.2403 130.675 29.1142 130.047 28.8716 129.464C28.6291 128.882 28.2753 128.359 27.8324 127.928C27.3896 127.498 26.8673 127.168 26.2983 126.96C25.7292 126.753 25.1257 126.671 24.5256 126.722H24.1621C23.4859 126.721 22.819 126.555 22.2138 126.236C21.6085 125.918 21.0812 125.456 20.6733 124.886C20.2654 124.316 19.9879 123.654 19.8626 122.952C19.7372 122.25 19.7675 121.527 19.9509 120.84C20.066 120.423 20.1257 119.991 20.1282 119.556C20.1262 118.425 19.7302 117.334 19.0158 116.491C18.3013 115.648 17.3182 115.112 16.2539 114.985C15.1851 114.854 14.1993 114.312 13.4847 113.462C12.7702 112.612 12.3768 111.514 12.3796 110.377C12.3797 109.646 12.547 108.926 12.8672 108.279C13.1837 107.63 13.3479 106.91 13.346 106.181C13.3473 105.202 13.0543 104.248 12.5093 103.457C11.9644 102.666 11.1956 102.078 10.3139 101.778C9.43076 101.478 8.66094 100.889 8.11584 100.096C7.57075 99.3026 7.27865 98.3468 7.28184 97.3667C7.27667 96.3273 7.61181 95.318 8.23047 94.5098C8.62001 93.9826 8.89813 93.3733 9.04612 92.7229C9.19411 92.0726 9.20853 91.3963 9.08842 90.7396C8.9683 90.0829 8.71643 89.4609 8.34975 88.9157C7.98308 88.3704 7.51011 87.9145 6.96268 87.5785C6.35528 87.2143 5.83954 86.7013 5.45884 86.0826C5.07815 85.464 4.84362 84.7578 4.77498 84.0235C4.70635 83.2892 4.80561 82.5482 5.06443 81.8629C5.32325 81.1775 5.73405 80.5679 6.26229 80.0852C6.73693 79.6456 7.11725 79.104 7.37781 78.4967C7.63837 77.8893 7.77316 77.2301 7.77316 76.5633C7.77316 75.8965 7.63837 75.2373 7.37781 74.6299C7.11725 74.0226 6.73693 73.481 6.26229 73.0414C5.72106 72.5599 5.29883 71.9466 5.032 71.2542C4.76518 70.5619 4.66178 69.8113 4.73071 69.0674C4.79965 68.3234 5.03885 67.6083 5.42769 66.9837C5.81654 66.3592 6.34334 65.844 6.96268 65.4825C7.52109 65.1568 8.00541 64.7061 8.38177 64.1619C8.75813 63.6178 9.01744 62.9933 9.14156 62.3323C9.26569 61.6712 9.25164 60.9895 9.10039 60.3348C8.94914 59.6801 8.66435 59.0681 8.26593 58.5418C7.64728 57.73 7.31227 56.7178 7.3173 55.6756C7.31402 54.6979 7.60516 53.7444 8.14863 52.953C8.69209 52.1616 9.45972 51.5734 10.3405 51.2733C11.2185 50.9644 11.983 50.3728 12.5268 49.5816C13.0705 48.7905 13.3663 47.8393 13.3726 46.8616C13.3734 46.1319 13.2093 45.4126 12.8938 44.7635C12.5726 44.1162 12.4053 43.3961 12.4062 42.6653C12.4055 41.5301 12.7999 40.4343 13.5143 39.5863C14.2287 38.7383 15.2132 38.1973 16.2805 38.0663C17.3448 37.9357 18.3269 37.3974 19.0408 36.5534C19.7548 35.7093 20.1511 34.618 20.1548 33.486C20.1523 33.0516 20.0926 32.6198 19.9775 32.2028C19.8685 31.7913 19.8148 31.3656 19.8179 30.9383C19.8263 30.3044 19.9565 29.6789 20.2005 29.0997C20.4446 28.5205 20.7973 27.9997 21.2375 27.5688C21.6777 27.1379 22.196 26.8059 22.7612 26.593C23.3264 26.38 23.9267 26.2905 24.5256 26.3299C24.6497 26.3299 24.7649 26.3299 24.8891 26.3299C25.4916 26.3255 26.0867 26.1899 26.6374 25.9314C27.188 25.673 27.6822 25.2972 28.0891 24.8278C28.496 24.3583 28.8069 23.8052 29.0022 23.203C29.1975 22.6008 29.2732 21.9626 29.2244 21.3281C29.2244 21.2063 29.2244 21.0752 29.2244 20.9534C29.225 20.239 29.3823 19.5345 29.6837 18.895C29.9852 18.2555 30.4227 17.6985 30.962 17.2675C31.5013 16.8365 32.1278 16.5434 32.7922 16.4109C33.4567 16.2785 34.1412 16.3105 34.792 16.5042C35.1867 16.6259 35.5955 16.6889 36.0066 16.6916C37.0759 16.6959 38.1097 16.2869 38.9132 15.5415C39.7167 14.7961 40.2343 13.7659 40.3685 12.6452C40.4888 11.5159 40.9997 10.4734 41.8032 9.71788C42.6066 8.96237 43.646 8.54714 44.7216 8.55195C45.4132 8.55208 46.0945 8.72882 46.7075 9.06711C47.3215 9.40146 48.0026 9.57494 48.6934 9.57292C49.6256 9.57086 50.5334 9.2584 51.2878 8.67994C52.0423 8.10148 52.6049 7.28647 52.8957 6.35078C53.1774 5.41616 53.7346 4.60118 54.4859 4.02487C55.2371 3.44855 56.1431 3.14109 57.0715 3.14738C58.0385 3.15294 58.9755 3.50272 59.7312 4.14025C60.2282 4.55649 60.8049 4.8537 61.4214 5.01133C62.0379 5.16896 62.6794 5.18325 63.3016 5.0532C63.9238 4.92315 64.5118 4.65187 65.0251 4.25813C65.5383 3.86438 65.9644 3.35756 66.274 2.77271C66.6172 2.11832 67.1058 1.56182 67.6977 1.15112C68.2896 0.740406 68.967 0.487783 69.6718 0.414982C70.3766 0.342182 71.0875 0.451384 71.7435 0.733193C72.3995 1.015 72.9808 1.46098 73.4375 2.03275C73.8486 2.5409 74.3591 2.9489 74.9338 3.22865C75.5085 3.5084 76.1338 3.65326 76.7666 3.65326C77.3993 3.65326 78.0246 3.5084 78.5993 3.22865C79.174 2.9489 79.6845 2.5409 80.0956 2.03275L98.0575 19.2018L128.6 48.3415L145.17 64.1431C145.535 64.7013 146.017 65.1628 146.579 65.4919C147.196 65.8556 147.72 66.3714 148.107 66.9955C148.494 67.6195 148.733 68.3331 148.803 69.0756C148.872 69.8181 148.771 70.5674 148.507 71.2596C148.244 71.9517 147.826 72.5663 147.289 73.0508C146.814 73.4904 146.434 74.0319 146.173 74.6393C145.912 75.2467 145.778 75.9058 145.778 76.5727C145.778 77.2395 145.912 77.8987 146.173 78.506C146.434 79.1134 146.814 79.655 147.289 80.0945V80.0852Z" fill="url(#paint0_radial_629_17423)"/>
<path id="Vector_4" d="M106.524 49.5593C107.133 49.3756 107.773 49.334 108.399 49.4374C109.025 49.5409 109.622 49.7869 110.149 50.1585C110.677 50.53 111.121 51.0182 111.452 51.5891C111.782 52.1601 111.992 52.8003 112.065 53.4652C112.147 54.2065 112.397 54.916 112.794 55.533C113.192 56.1501 113.725 56.6564 114.347 57.0088C114.97 57.3613 115.664 57.5493 116.371 57.5569C117.077 57.5645 117.775 57.3915 118.404 57.0526C118.971 56.7391 119.595 56.5605 120.234 56.5294C120.873 56.4982 121.511 56.6153 122.102 56.8725C122.694 57.1296 123.225 57.5205 123.658 58.0176C124.091 58.5148 124.416 59.1062 124.61 59.7502C124.826 60.461 125.203 61.1058 125.707 61.6292C126.211 62.1526 126.827 62.5391 127.504 62.7555C128.18 62.9719 128.896 63.0118 129.59 62.8718C130.285 62.7317 130.936 62.4159 131.49 61.9514C131.986 61.539 132.561 61.2452 133.176 61.0902C133.79 60.9352 134.429 60.9227 135.048 61.0536C135.667 61.1845 136.253 61.4556 136.763 61.8483C137.274 62.2409 137.698 62.7459 138.006 63.3283C138.351 63.9791 138.84 64.5322 139.431 64.9403C140.022 65.3485 140.698 65.5996 141.4 65.6723C142.103 65.7449 142.812 65.637 143.467 65.3577C144.122 65.0785 144.703 64.6361 145.161 64.0683L80.1043 2.03284C80.6469 2.84786 80.9254 3.82644 80.8982 4.82247C80.8711 5.81849 80.5397 6.77851 79.9536 7.55917C79.5161 8.14515 79.2193 8.83423 79.0885 9.56763C78.9576 10.301 78.9966 11.057 79.2022 11.771C79.4077 12.485 79.7737 13.1359 80.2689 13.6682C80.764 14.2004 81.3737 14.5983 82.0459 14.8277C82.6482 15.0339 83.2011 15.3757 83.6664 15.8294C84.1317 16.2832 84.4984 16.8381 84.7411 17.456C84.9838 18.0739 85.0968 18.74 85.0723 19.4085C85.0478 20.077 84.8864 20.7319 84.5992 21.3282C84.2767 21.9928 84.1112 22.7301 84.117 23.477C84.1228 24.2239 84.2996 24.9582 84.6324 25.6172C84.9652 26.2762 85.444 26.8403 86.028 27.2613C86.612 27.6822 87.2837 27.9476 87.9859 28.0347C88.6154 28.1125 89.2214 28.3337 89.7621 28.683C90.3028 29.0324 90.7653 29.5016 91.1176 30.0582C91.47 30.6148 91.7038 31.2455 91.8029 31.9069C91.902 32.5683 91.8641 33.2445 91.6917 33.8889C91.4885 34.6096 91.455 35.3719 91.594 36.1094C91.7331 36.8469 92.0406 37.5374 92.4897 38.1209C92.9388 38.7043 93.516 39.163 94.1711 39.4572C94.8262 39.7513 95.5394 39.8719 96.2487 39.8086C96.8805 39.7534 97.5162 39.8442 98.1115 40.0745C98.7068 40.3048 99.2476 40.6692 99.6963 41.1424C100.145 41.6155 100.491 42.1862 100.71 42.8147C100.929 43.4433 101.016 44.1147 100.965 44.7823C100.916 45.5228 101.036 46.265 101.316 46.9461C101.595 47.6273 102.025 48.2274 102.571 48.6958C103.116 49.1642 103.759 49.4872 104.447 49.6375C105.136 49.7878 105.848 49.761 106.524 49.5593Z" fill="white"/>
<g id="Vector_5" filter="url(#filter1_d_629_17423)">
<path d="M74.0401 48.7622V59.7286H71.5006V53.5424L69.0799 59.7286H67.1938L64.7731 53.5424V59.7286H62.2336V48.7622H65.1444L68.1443 56.3231L71.1293 48.7622H74.0401Z" fill="white"/>
<path d="M78.8119 48.7622V59.7286H76.2724V48.7622H78.8119Z" fill="white"/>
<path d="M90.3703 59.7286H87.8308L83.5834 52.8082V59.7286H81.0439V48.731H83.5834L87.8308 55.6513V48.731H90.3703V59.7286Z" fill="white"/>
<path d="M41.8492 85.7776C43.8541 83.9811 45.4258 82.5101 46.5644 81.3645C47.7029 80.1929 48.6435 79.0083 49.386 77.8106C50.1533 76.6129 50.537 75.4543 50.537 74.3348C50.537 73.2413 50.3019 72.4211 49.8316 71.8744C49.3613 71.3016 48.6683 71.0152 47.7524 71.0152C46.8614 71.0152 46.156 71.3537 45.6362 72.0306C45.1164 72.6815 44.8565 73.6318 44.8565 74.8815H38.7305C38.7305 72.7726 39.1389 71.0022 39.9557 69.5702C40.7725 68.1382 41.8616 67.0838 43.2229 66.4068C44.609 65.7299 46.1312 65.3914 47.7896 65.3914C49.8192 65.3914 51.5271 65.795 52.9132 66.6021C54.2992 67.4092 55.3141 68.4637 55.9576 69.7655C56.6259 71.0673 56.96 72.4732 56.96 73.9833C56.96 75.6236 56.6011 77.1727 55.8834 78.6307C55.1656 80.0627 54.2869 81.3645 53.2473 82.5361C52.2325 83.7078 50.8835 85.1007 49.2004 86.7149C49.1757 86.741 48.7054 87.1966 47.7896 88.0818H57.4427V93.5103H38.8047V88.5505L41.8492 85.7776Z" fill="white"/>
<path d="M62.6884 89.9955C61.0548 87.4439 60.238 84.0072 60.238 79.6852C60.238 75.3632 61.0548 71.9395 62.6884 69.414C64.3468 66.8624 67.0076 65.5867 70.6708 65.5867C74.3341 65.5867 76.9825 66.8624 78.6161 69.414C80.2744 71.9395 81.1036 75.3632 81.1036 79.6852C81.1036 84.0072 80.2744 87.4439 78.6161 89.9955C76.9825 92.521 74.3341 93.7837 70.6708 93.7837C67.0076 93.7837 64.3468 92.521 62.6884 89.9955ZM74.0494 85.5042C74.5939 84.1243 74.8662 82.1847 74.8662 79.6852C74.8662 77.1857 74.5939 75.2591 74.0494 73.9052C73.5049 72.5253 72.3787 71.8353 70.6708 71.8353C68.9629 71.8353 67.8367 72.5253 67.2922 73.9052C66.7477 75.2591 66.4754 77.1857 66.4754 79.6852C66.4754 82.1847 66.7477 84.1243 67.2922 85.5042C67.8367 86.8581 68.9629 87.5351 70.6708 87.5351C72.3787 87.5351 73.5049 86.8581 74.0494 85.5042Z" fill="white"/>
<path d="M90.1012 66.0163C91.9329 66.0163 93.4179 66.5891 94.5565 67.7347C95.6951 68.8802 96.2644 70.4945 96.2644 72.5774C96.2644 74.6602 95.6951 76.2745 94.5565 77.4201C93.4179 78.5656 91.9329 79.1384 90.1012 79.1384C88.2696 79.1384 86.7721 78.5656 85.6088 77.4201C84.4702 76.2745 83.9009 74.6602 83.9009 72.5774C83.9009 70.4945 84.4702 68.8802 85.6088 67.7347C86.7721 66.5891 88.2696 66.0163 90.1012 66.0163ZM108.108 66.4068L93.814 93.9009H87.6879L101.982 66.4068H108.108ZM88.282 72.5774C88.282 74.3218 88.876 75.194 90.0641 75.194C90.6334 75.194 91.0789 74.9857 91.4007 74.5691C91.7225 74.1265 91.8833 73.4626 91.8833 72.5774C91.8833 71.6921 91.7225 71.0412 91.4007 70.6247C91.0789 70.182 90.6334 69.9607 90.0641 69.9607C88.876 69.9607 88.282 70.8329 88.282 72.5774ZM105.732 81.1692C107.564 81.1692 109.049 81.742 110.187 82.8876C111.326 84.0332 111.895 85.6474 111.895 87.7303C111.895 89.8132 111.326 91.4274 110.187 92.573C109.049 93.7186 107.564 94.2914 105.732 94.2914C103.9 94.2914 102.403 93.7186 101.239 92.573C100.101 91.4274 99.5316 89.8132 99.5316 87.7303C99.5316 85.6474 100.101 84.0332 101.239 82.8876C102.403 81.742 103.9 81.1692 105.732 81.1692ZM103.913 87.7303C103.913 89.4747 104.507 90.347 105.695 90.347C106.264 90.347 106.71 90.1387 107.031 89.7221C107.353 89.2795 107.514 88.6156 107.514 87.7303C107.514 86.8451 107.353 86.1942 107.031 85.7776C106.71 85.335 106.264 85.1137 105.695 85.1137C104.507 85.1137 103.913 85.9859 103.913 87.7303Z" fill="white"/>
<path d="M72.2139 102.305C73.194 102.305 74.09 102.545 74.9019 103.024C75.7236 103.503 76.3672 104.169 76.8325 105.023C77.3077 105.877 77.5454 106.841 77.5454 107.913C77.5454 108.986 77.3077 109.955 76.8325 110.819C76.3573 111.673 75.7137 112.34 74.9019 112.819C74.09 113.298 73.194 113.537 72.2139 113.537C71.2337 113.537 70.3327 113.298 69.511 112.819C68.6991 112.34 68.0556 111.673 67.5804 110.819C67.1051 109.955 66.8675 108.986 66.8675 107.913C66.8675 106.841 67.1051 105.877 67.5804 105.023C68.0556 104.169 68.6991 103.503 69.511 103.024C70.3327 102.545 71.2337 102.305 72.2139 102.305ZM72.2139 104.758C71.3723 104.758 70.6991 105.044 70.1941 105.617C69.6991 106.19 69.4516 106.955 69.4516 107.913C69.4516 108.872 69.6991 109.637 70.1941 110.21C70.6991 110.783 71.3723 111.069 72.2139 111.069C73.0455 111.069 73.7089 110.783 74.2039 110.21C74.7088 109.637 74.9613 108.872 74.9613 107.913C74.9613 106.955 74.7088 106.19 74.2039 105.617C73.7089 105.044 73.0455 104.758 72.2139 104.758Z" fill="white"/>
<path d="M85.9671 102.462V104.492H81.7198V106.851H84.8979V108.882H81.7198V113.428H79.1802V102.462H85.9671Z" fill="white"/>
<path d="M94.5094 102.462V104.492H90.262V106.851H93.4401V108.882H90.262V113.428H87.7225V102.462H94.5094Z" fill="white"/>
</g>
</g>
<defs>
<filter id="filter0_d_629_17423" x="0.709961" y="0.393066" width="152.114" height="160.321" filterUnits="userSpaceOnUse" color-interpolation-filters="sRGB">
<feFlood flood-opacity="0" result="BackgroundImageFix"/>
<feColorMatrix in="SourceAlpha" type="matrix" values="0 0 0 0 0 0 0 0 0 0 0 0 0 0 0 0 0 0 127 0" result="hardAlpha"/>
<feOffset dy="4"/>
<feGaussianBlur stdDeviation="2"/>
<feComposite in2="hardAlpha" operator="out"/>
<feColorMatrix type="matrix" values="0 0 0 0 0 0 0 0 0 0 0 0 0 0 0 0 0 0 0.25 0"/>
<feBlend mode="normal" in2="BackgroundImageFix" result="effect1_dropShadow_629_17423"/>
<feBlend mode="normal" in="SourceGraphic" in2="effect1_dropShadow_629_17423" result="shape"/>
</filter>
<filter id="filter1_d_629_17423" x="34.7305" y="48.731" width="81.165" height="72.8063" filterUnits="userSpaceOnUse" color-interpolation-filters="sRGB">
<feFlood flood-opacity="0" result="BackgroundImageFix"/>
<feColorMatrix in="SourceAlpha" type="matrix" values="0 0 0 0 0 0 0 0 0 0 0 0 0 0 0 0 0 0 127 0" result="hardAlpha"/>
<feOffset dy="4"/>
<feGaussianBlur stdDeviation="2"/>
<feComposite in2="hardAlpha" operator="out"/>
<feColorMatrix type="matrix" values="0 0 0 0 0 0 0 0 0 0 0 0 0 0 0 0 0 0 0.25 0"/>
<feBlend mode="normal" in2="BackgroundImageFix" result="effect1_dropShadow_629_17423"/>
<feBlend mode="normal" in="SourceGraphic" in2="effect1_dropShadow_629_17423" result="shape"/>
</filter>
<radialGradient id="paint0_radial_629_17423" cx="0" cy="0" r="1" gradientUnits="userSpaceOnUse" gradientTransform="translate(131.958 52.5771) rotate(54.4328) scale(148.759 54.1453)">
<stop stopColor="#CCBBA4"/>
<stop offset="0.1" stopColor="#CDBDA6" stop-opacity="0.96"/>
<stop offset="0.25" stopColor="#D0C1AD" stop-opacity="0.86"/>
<stop offset="0.44" stopColor="#D4C9B8" stop-opacity="0.7"/>
<stop offset="0.64" stopColor="#DAD3C8" stop-opacity="0.47"/>
<stop offset="0.87" stopColor="#E2E0DC" stop-opacity="0.18"/>
<stop offset="1" stopColor="#E7E8E8" stop-opacity="0"/>
</radialGradient>
</defs>
</svg>
