<svg width="211" height="72" viewBox="0 0 211 72" fill="none" xmlns="http://www.w3.org/2000/svg">
<g filter="url(#filter0_d_119_5638)">
<rect x="4.5" y="0.5" width="201.296" height="62.5038" rx="31.2519" stroke="white" shape-rendering="crispEdges"/>
<path d="M56.651 15C56.9836 16.8018 56.1521 18.6036 55.1543 19.914C54.1564 21.2244 52.3271 22.371 50.4977 22.2072C50.1651 20.4054 50.9967 18.7674 51.9945 17.457C53.1586 16.1466 54.988 15.1638 56.651 15ZM61.9728 43.5013C62.8043 42.1909 63.3032 41.3719 63.9684 39.8977C58.813 37.9321 57.9814 30.7249 63.1369 28.1041C61.6401 26.1384 59.4782 25.1556 57.3162 25.1556C55.8195 25.1556 54.8217 25.4832 53.8238 25.8108C52.9923 26.1384 52.3271 26.3022 51.4956 26.3022C50.4978 26.3022 49.8325 25.9746 48.8347 25.647C47.8369 25.3194 46.8391 24.9918 45.6749 24.9918C43.3467 24.9918 40.8521 26.3022 39.3554 28.7593C37.1934 32.0353 37.526 38.4235 41.0184 43.6651C42.5151 45.6307 44.1782 47.7601 46.3401 47.7601C47.338 47.7601 47.8369 47.4325 48.5021 47.2687C49.3336 46.9411 50.1651 46.6135 51.4956 46.6135C52.9923 46.6135 53.6575 46.9411 54.4891 47.2687C55.1543 47.5963 55.6532 47.7601 56.651 47.7601C58.9793 47.7601 60.6423 45.3031 61.9728 43.5013Z" stroke="white" stroke-width="2" stroke-miterlimit="10" stroke-linecap="round" stroke-linejoin="round"/>
<path d="M77.7831 22.4109H80.6297C82.8669 22.4109 84.3751 20.9727 84.3751 18.9152C84.3751 16.8577 82.8669 15.4195 80.6297 15.4195H77.7831V22.4109ZM78.5222 21.7717V16.0587H80.5897C82.4474 16.0587 83.646 17.2373 83.646 18.9152C83.646 20.5932 82.4474 21.7717 80.5897 21.7717H78.5222Z" fill="white"/>
<path d="M88.0323 22.4609C89.5704 22.4609 90.6991 21.3422 90.6991 19.7841C90.6991 18.2261 89.5704 17.1174 88.0323 17.1174C86.4942 17.1174 85.3556 18.2261 85.3556 19.7841C85.3556 21.3422 86.4942 22.4609 88.0323 22.4609ZM88.0323 21.8316C86.9137 21.8316 86.0747 21.0126 86.0747 19.7841C86.0747 18.5557 86.9137 17.7367 88.0323 17.7367C89.151 17.7367 89.9799 18.5557 89.9799 19.7841C89.9799 21.0126 89.151 21.8316 88.0323 21.8316Z" fill="white"/>
<path d="M99.0619 17.1574L97.3939 21.6219L95.716 17.1574H95.1067L93.4188 21.6219L91.7708 17.1574H91.0916L93.0692 22.4109H93.7384L95.3964 18.1062L97.0543 22.4109H97.7235L99.7111 17.1574H99.0619Z" fill="white"/>
<path d="M103.456 17.1174C102.547 17.1174 101.838 17.487 101.458 18.1262V17.1574H100.779V22.4109H101.488V19.6543C101.488 18.4558 102.197 17.7566 103.326 17.7566C104.324 17.7566 104.904 18.3259 104.904 19.4346V22.4109H105.613V19.3647C105.613 17.8565 104.734 17.1174 103.456 17.1174Z" fill="white"/>
<path d="M107.538 22.4109H108.247V15H107.538V22.4109Z" fill="white"/>
<path d="M112.368 22.4609C113.906 22.4609 115.035 21.3422 115.035 19.7841C115.035 18.2261 113.906 17.1174 112.368 17.1174C110.83 17.1174 109.691 18.2261 109.691 19.7841C109.691 21.3422 110.83 22.4609 112.368 22.4609ZM112.368 21.8316C111.249 21.8316 110.41 21.0126 110.41 19.7841C110.41 18.5557 111.249 17.7367 112.368 17.7367C113.486 17.7367 114.315 18.5557 114.315 19.7841C114.315 21.0126 113.486 21.8316 112.368 21.8316Z" fill="white"/>
<path d="M118.291 17.1174C117.462 17.1174 116.683 17.3771 116.153 17.8265L116.473 18.3559C116.902 17.9764 117.542 17.7367 118.221 17.7367C119.2 17.7367 119.709 18.2261 119.709 19.125V19.4446H118.041C116.533 19.4446 116.014 20.1237 116.014 20.9327C116.014 21.8416 116.743 22.4609 117.931 22.4609C118.8 22.4609 119.419 22.1313 119.739 21.5919V22.4109H120.418V19.1549C120.418 17.7966 119.649 17.1174 118.291 17.1174ZM118.041 21.9016C117.202 21.9016 116.713 21.522 116.713 20.9128C116.713 20.3734 117.042 19.9739 118.061 19.9739H119.709V20.8329C119.429 21.522 118.84 21.9016 118.041 21.9016Z" fill="white"/>
<path d="M126.449 15V18.1561C126.009 17.477 125.29 17.1174 124.451 17.1174C122.953 17.1174 121.834 18.1961 121.834 19.7841C121.834 21.3722 122.953 22.4609 124.451 22.4609C125.32 22.4609 126.049 22.0813 126.479 21.3722V22.4109H127.158V15H126.449ZM124.511 21.8316C123.392 21.8316 122.554 21.0126 122.554 19.7841C122.554 18.5557 123.392 17.7367 124.511 17.7367C125.62 17.7367 126.459 18.5557 126.459 19.7841C126.459 21.0126 125.62 21.8316 124.511 21.8316Z" fill="white"/>
<path d="M134.953 22.4709C137.05 22.4709 138.618 20.9627 138.618 18.9152C138.618 16.8677 137.05 15.3596 134.953 15.3596C132.835 15.3596 131.277 16.8777 131.277 18.9152C131.277 20.9527 132.835 22.4709 134.953 22.4709ZM134.953 21.8117C133.265 21.8117 132.006 20.5832 132.006 18.9152C132.006 17.2473 133.265 16.0188 134.953 16.0188C136.631 16.0188 137.879 17.2473 137.879 18.9152C137.879 20.5832 136.631 21.8117 134.953 21.8117Z" fill="white"/>
<path d="M142.802 17.1174C141.893 17.1174 141.184 17.487 140.804 18.1262V17.1574H140.125V22.4109H140.834V19.6543C140.834 18.4558 141.543 17.7566 142.672 17.7566C143.671 17.7566 144.25 18.3259 144.25 19.4346V22.4109H144.959V19.3647C144.959 17.8565 144.08 17.1174 142.802 17.1174Z" fill="white"/>
<path d="M151.007 22.4109H151.746V16.0587H154.203V15.4195H148.55V16.0587H151.007V22.4109Z" fill="white"/>
<path d="M157.91 17.1174C157.021 17.1174 156.332 17.467 155.943 18.0762V15H155.234V22.4109H155.943V19.6543C155.943 18.4558 156.652 17.7566 157.781 17.7566C158.779 17.7566 159.359 18.3259 159.359 19.4346V22.4109H160.068V19.3647C160.068 17.8565 159.189 17.1174 157.91 17.1174Z" fill="white"/>
<path d="M166.597 19.7841C166.597 18.2061 165.528 17.1174 164.05 17.1174C162.572 17.1174 161.483 18.2261 161.483 19.7841C161.483 21.3422 162.602 22.4609 164.24 22.4609C165.069 22.4609 165.798 22.1612 166.267 21.6019L165.868 21.1425C165.468 21.6019 164.899 21.8316 164.26 21.8316C163.111 21.8316 162.272 21.1025 162.192 20.0039H166.587C166.587 19.924 166.597 19.8441 166.597 19.7841ZM164.05 17.7267C165.079 17.7267 165.828 18.4458 165.918 19.4745H162.192C162.282 18.4458 163.031 17.7267 164.05 17.7267Z" fill="white"/>
<path d="M86.9157 44.7836H89.5237L83.464 31.36H81.0094L74.9688 44.7836H77.5384L78.8616 41.677H85.5734L86.9157 44.7836ZM79.7054 39.721L82.2175 33.8529L84.7488 39.721H79.7054Z" fill="white"/>
<path d="M96.677 34.4282C95.2771 34.4282 94.0882 34.9076 93.2828 35.8856V34.5433H91.0008V48.5038H93.3979V43.5371C94.2224 44.4767 95.373 44.9178 96.677 44.9178C99.6686 44.9178 101.874 42.8467 101.874 39.6634C101.874 36.4993 99.6686 34.4282 96.677 34.4282ZM96.4086 42.8659C94.6827 42.8659 93.3595 41.6194 93.3595 39.6634C93.3595 37.7074 94.6827 36.4609 96.4086 36.4609C98.1345 36.4609 99.4385 37.7074 99.4385 39.6634C99.4385 41.6194 98.1345 42.8659 96.4086 42.8659Z" fill="white"/>
<path d="M109.823 34.4282C108.424 34.4282 107.235 34.9076 106.429 35.8856V34.5433H104.147V48.5038H106.544V43.5371C107.369 44.4767 108.519 44.9178 109.823 44.9178C112.815 44.9178 115.02 42.8467 115.02 39.6634C115.02 36.4993 112.815 34.4282 109.823 34.4282ZM109.555 42.8659C107.829 42.8659 106.506 41.6194 106.506 39.6634C106.506 37.7074 107.829 36.4609 109.555 36.4609C111.281 36.4609 112.585 37.7074 112.585 39.6634C112.585 41.6194 111.281 42.8659 109.555 42.8659Z" fill="white"/>
<path d="M126.985 44.9753C130.667 44.9753 132.412 43.1344 132.412 40.9866C132.412 36.0582 124.453 37.9184 124.453 35.0611C124.453 34.0447 125.297 33.2393 127.368 33.2393C128.538 33.2393 129.861 33.5845 131.069 34.294L131.856 32.3572C130.686 31.5901 128.998 31.1682 127.388 31.1682C123.706 31.1682 121.98 33.0092 121.98 35.1761C121.98 40.162 129.957 38.2635 129.957 41.1592C129.957 42.1564 129.075 42.9043 126.985 42.9043C125.336 42.9043 123.629 42.2906 122.555 41.4277L121.692 43.3645C122.804 44.3233 124.895 44.9753 126.985 44.9753Z" fill="white"/>
<path d="M140.138 42.5207C139.774 42.8084 139.294 42.9426 138.796 42.9426C137.875 42.9426 137.377 42.4057 137.377 41.4085V36.5377H140.119V34.62H137.377V32.2805H134.98V34.62H133.292V36.5377H134.98V41.466C134.98 43.7289 136.264 44.9178 138.508 44.9178C139.371 44.9178 140.234 44.6877 140.809 44.2274L140.138 42.5207Z" fill="white"/>
<path d="M147.046 44.9178C150.23 44.9178 152.512 42.7317 152.512 39.6634C152.512 36.5952 150.23 34.4282 147.046 34.4282C143.901 34.4282 141.6 36.5952 141.6 39.6634C141.6 42.7317 143.901 44.9178 147.046 44.9178ZM147.046 42.8659C145.321 42.8659 144.017 41.6194 144.017 39.6634C144.017 37.7074 145.321 36.4609 147.046 36.4609C148.792 36.4609 150.096 37.7074 150.096 39.6634C150.096 41.6194 148.792 42.8659 147.046 42.8659Z" fill="white"/>
<path d="M157.086 36.0391V34.5433H154.804V44.7836H157.201V39.8168C157.201 37.7266 158.352 36.6527 160.173 36.6527C160.346 36.6527 160.519 36.6719 160.73 36.7102V34.4282C159.023 34.4282 157.776 34.9652 157.086 36.0391Z" fill="white"/>
<path d="M172.296 39.721C172.296 36.5185 170.11 34.4282 167.118 34.4282C164.069 34.4282 161.826 36.6144 161.826 39.6634C161.826 42.7125 164.05 44.9178 167.483 44.9178C169.247 44.9178 170.685 44.3425 171.606 43.2494L170.321 41.7728C169.592 42.5207 168.691 42.8851 167.54 42.8851C165.757 42.8851 164.51 41.9263 164.223 40.4305H172.258C172.277 40.2004 172.296 39.9127 172.296 39.721ZM167.118 36.3459C168.691 36.3459 169.822 37.3622 170.014 38.8388H164.203C164.434 37.3431 165.565 36.3459 167.118 36.3459Z" fill="white"/>
</g>
<defs>
<filter id="filter0_d_119_5638" x="0" y="0" width="210.297" height="71.5039" filterUnits="userSpaceOnUse" color-interpolation-filters="sRGB">
<feFlood flood-opacity="0" result="BackgroundImageFix"/>
<feColorMatrix in="SourceAlpha" type="matrix" values="0 0 0 0 0 0 0 0 0 0 0 0 0 0 0 0 0 0 127 0" result="hardAlpha"/>
<feOffset dy="4"/>
<feGaussianBlur stdDeviation="2"/>
<feComposite in2="hardAlpha" operator="out"/>
<feColorMatrix type="matrix" values="0 0 0 0 0 0 0 0 0 0 0 0 0 0 0 0 0 0 0.25 0"/>
<feBlend mode="normal" in2="BackgroundImageFix" result="effect1_dropShadow_119_5638"/>
<feBlend mode="normal" in="SourceGraphic" in2="effect1_dropShadow_119_5638" result="shape"/>
</filter>
</defs>
</svg>
