<svg width="17" height="17" viewBox="0 0 17 17" fill="none" xmlns="http://www.w3.org/2000/svg">
<path d="M16.5291 16.5102L16.5408 16.5048L16.5432 16.5037L16.5291 16.5102ZM16.5291 16.5102L16.5408 16.5048L16.5432 16.5037L16.5291 16.5102ZM12.2878 12.2661L11.973 12.5443C10.63 13.731 8.87674 14.3491 7.08479 14.2674C5.29285 14.1857 3.60337 13.4106 2.37439 12.1066C1.14544 10.8027 0.473517 9.07238 0.5008 7.28251C0.528082 5.49265 1.25243 3.78356 2.52057 2.51754C3.78874 1.25149 5.50107 0.528046 7.29468 0.500798C9.08829 0.47355 10.8219 1.14464 12.1281 2.3716C13.4342 3.59853 14.2103 5.28484 14.2922 7.07305C14.374 8.86126 13.7551 10.6111 12.5665 11.9518L12.2878 12.2661Z" stroke="black" stroke-miterlimit="10"/>
<path d="M7.04688 2.22546C8.35377 2.34201 9.58532 2.89996 10.5468 3.81106C11.3877 4.63346 11.9637 5.69745 12.1984 6.86183" stroke="black" stroke-miterlimit="10" stroke-linecap="round"/>
</svg>
