<svg width="44" height="27" viewBox="0 0 44 27" fill="none" xmlns="http://www.w3.org/2000/svg">
<path fill-rule="evenodd" clip-rule="evenodd" d="M22 23.7752C19.6698 25.7861 16.6471 27 13.3443 27C5.97443 27 0 20.9559 0 13.5001C0 6.04418 5.97443 0 13.3443 0C16.6471 0 19.6698 1.21396 22 3.2249C24.3302 1.21396 27.3528 0 30.6556 0C38.0255 0 44 6.04418 44 13.5001C44 20.9559 38.0255 27 30.6556 27C27.3528 27 24.3302 25.7861 22 23.7752Z" fill="#ED0006"/>
<path fill-rule="evenodd" clip-rule="evenodd" d="M22 23.7752C24.8692 21.299 26.6886 17.6144 26.6886 13.5001C26.6886 9.38563 24.8692 5.70104 22 3.22489C24.33 1.21396 27.3527 0 30.6556 0C38.0255 0 43.9999 6.04418 43.9999 13.5001C43.9999 20.9559 38.0255 27 30.6556 27C27.3527 27 24.33 25.7861 22 23.7752Z" fill="#F9A000"/>
<path fill-rule="evenodd" clip-rule="evenodd" d="M22.0008 23.7743C24.8699 21.2981 26.6891 17.6137 26.6891 13.4994C26.6891 9.38521 24.8699 5.70076 22.0008 3.22461C19.1318 5.70076 17.3125 9.38521 17.3125 13.4994C17.3125 17.6137 19.1318 21.2981 22.0008 23.7743Z" fill="#FF5E00"/>
</svg>
