<svg width="81" height="27" viewBox="0 0 81 27" fill="none" xmlns="http://www.w3.org/2000/svg">
<g clip-path="url(#clip0_823_14925)">
<rect width="81" height="26" transform="translate(0 0.5)" fill="white"/>
<path d="M73.1613 0.5H7.83871C3.50951 0.5 0 3.99218 0 8.3V18.7C0 23.0078 3.50951 26.5 7.83871 26.5H73.1613C77.4905 26.5 81 23.0078 81 18.7V8.3C81 3.99218 77.4905 0.5 73.1613 0.5Z" fill="white"/>
<mask id="mask0_823_14925" style="mask-type:luminance" maskUnits="userSpaceOnUse" x="0" y="0" width="81" height="27">
<path d="M81 0.5H0V26.5H81V0.5Z" fill="white"/>
</mask>
<g mask="url(#mask0_823_14925)">
<path d="M81 0.5H0V26.5H81V0.5Z" fill="white"/>
<path d="M81.0016 0.489258H0V26.5072H81.0016V0.489258Z" fill="url(#paint0_linear_823_14925)"/>
<path d="M23.4081 31.6276C0.533507 22.928 1.5116 29.2296 -9.95703 29.3157L-3.13944 -5.66572C4.48545 -9.30398 6.02325 -5.89928 28.3949 -0.0841932L66.1446 30.7094C57.0226 32.1009 46.2829 40.3273 23.4081 31.6276Z" fill="url(#paint1_linear_823_14925)" fill-opacity="0.6"/>
<path d="M54.9848 -0.954102L-2.7666 -0.373917L-1.45705 18.275L15.4258 18.7741C25.6551 17.4774 36.0325 19.8167 41.9626 24.9632L52.2952 33.9306C53.8745 35.3033 55.9914 36.4262 58.4627 37.2025C60.9341 37.9786 63.6856 38.3847 66.4796 38.3855H118.274V24.2725C118.274 21.544 113.849 19.5971 109.488 20.4075L84.2778 26.0181C81.8269 26.3343 79.2707 26.1795 76.977 25.5757C74.6832 24.9719 72.7702 23.9504 71.5129 22.6581L54.9848 -0.954102Z" fill="url(#paint2_linear_823_14925)"/>
<path d="M34.216 23.8256C42.4129 23.8256 49.0579 19.1971 49.0579 13.4875C49.0579 7.77794 42.4129 3.14941 34.216 3.14941C26.019 3.14941 19.374 7.77794 19.374 13.4875C19.374 19.1971 26.019 23.8256 34.216 23.8256Z" fill="url(#paint3_radial_823_14925)"/>
<path d="M50.1191 34.6867C65.4914 34.6867 77.9531 28.8165 77.9531 21.5753C77.9531 14.334 65.4914 8.46387 50.1191 8.46387C34.7468 8.46387 22.2852 14.334 22.2852 21.5753C22.2852 28.8165 34.7468 34.6867 50.1191 34.6867Z" fill="url(#paint4_radial_823_14925)" fill-opacity="0.7"/>
<path d="M48.5938 30.9832C58.3127 32.7613 67.86 30.9673 69.9183 26.9762C71.9766 22.9851 65.7666 18.3082 56.0477 16.5301C46.3289 14.752 36.7816 16.546 34.7232 20.5371C32.6649 24.5282 38.875 29.2051 48.5938 30.9832Z" fill="url(#paint5_radial_823_14925)" fill-opacity="0.7"/>
<path d="M42.1126 -0.0902834L-0.193359 0.334731L0.765947 13.996L13.1336 14.3616C20.6271 13.4118 28.229 15.1253 32.5732 18.8955L40.1423 25.4646C41.2993 26.4702 42.8499 27.2928 44.6604 27.8614C46.4708 28.4299 48.4865 28.7274 50.5332 28.728H88.4754L92.4696 11.1779C92.4696 9.17902 89.2275 7.75278 86.0335 8.34644L84.1789 -2.46341C82.3834 -2.23172 80.5109 -2.34519 78.8307 -2.78748C77.1504 -3.22976 75.7489 -3.97809 74.8278 -4.9248L42.1126 -0.0902834Z" fill="url(#paint6_linear_823_14925)"/>
</g>
<path d="M24.6987 9.90534C23.5372 9.47803 22.4137 9.271 20.9989 9.56429C19.8944 9.79253 19.0068 10.2278 18.424 11.3135C18.6802 11.5179 18.9106 11.7116 19.1355 11.9041C19.5055 12.2186 19.889 12.5424 20.4027 12.9193C20.8091 12.3513 21.5193 11.7116 22.2809 11.697C23.1645 11.6798 24.0115 12.1562 24.1511 12.8543C24.2081 13.1436 24.246 14.3394 24.246 14.3394L23.7824 14.4364C23.6907 14.4699 23.5896 14.4699 23.4979 14.4364L23.4247 14.4084L23.365 14.3859C22.4133 14.0256 21.4039 13.8331 20.3836 13.8178C20.0406 13.8177 19.698 13.8439 19.3591 13.8962C18.3183 14.0567 17.0811 14.6327 17.1028 16.4709C17.1109 17.1703 17.2599 17.6945 17.5743 18.1206C17.851 18.5091 18.221 18.8252 18.6519 19.0407C19.0827 19.2561 19.5612 19.3644 20.0448 19.3561C21.2269 19.3914 22.3808 18.9983 23.2851 18.2519C23.3042 18.2373 23.5196 18.0528 23.5819 18.005L24.2202 17.5206V19.3428H26.8832V12.9724C26.8845 11.5298 26.0823 10.415 24.6987 9.90534ZM23.876 15.8921C23.3068 16.8901 22.3784 17.4543 21.3105 17.4543C21.2658 17.4543 21.2198 17.4543 21.1752 17.4543C20.9505 17.4498 20.7269 17.4217 20.5083 17.3706C19.7101 17.1649 19.2561 16.5359 19.2886 15.6892L19.3048 15.3188H24.2013L23.876 15.8921Z" fill="black"/>
<path d="M52.5157 9.90534C51.3543 9.47803 50.2309 9.271 48.8173 9.56429C47.7115 9.79253 46.8239 10.2278 46.2425 11.3135C46.4986 11.5179 46.729 11.7116 46.954 11.9041C47.3253 12.2186 47.7074 12.5424 48.2211 12.9193C48.6277 12.3513 49.3391 11.7116 50.0994 11.697C50.9843 11.6798 51.83 12.1562 51.9696 12.8543C52.0264 13.1436 52.0645 14.3394 52.0645 14.3394L51.6024 14.4364C51.5105 14.4699 51.4094 14.4699 51.3177 14.4364C51.2947 14.4283 51.269 14.4191 51.2445 14.4084L51.1837 14.3859C50.2319 14.0255 49.2224 13.8331 48.2021 13.8178C47.8591 13.8177 47.5166 13.8439 47.1775 13.8962C46.1368 14.0567 44.8995 14.6326 44.9212 16.4708C44.9293 17.1702 45.0798 17.6945 45.3928 18.1206C45.6694 18.5091 46.0395 18.8251 46.4704 19.0407C46.9012 19.2561 47.3797 19.3644 47.8633 19.3561C49.0459 19.3916 50.2002 18.9984 51.105 18.2519C51.1226 18.2373 51.3394 18.0528 51.4004 18.005L52.0387 17.5206V19.3428H54.7017V12.9724C54.7017 11.5298 53.8994 10.415 52.5157 9.90534ZM51.6932 15.8922C51.1253 16.8901 50.1956 17.4543 49.1291 17.4543C49.083 17.4543 49.0369 17.4543 48.9935 17.4543C48.7693 17.4497 48.5463 17.4217 48.3281 17.3706C47.5286 17.1649 47.0746 16.5358 47.1086 15.6892L47.1248 15.3188H52.0197L51.6932 15.8922Z" fill="black"/>
<path d="M70.7095 9.90534C69.5481 9.47803 68.4247 9.271 67.0098 9.56429C65.9053 9.79253 65.0176 10.2278 64.4349 11.3135C64.6911 11.5179 64.9214 11.7116 65.1464 11.9041C65.5164 12.2186 65.9 12.5424 66.4135 12.9193C66.8201 12.3513 67.5302 11.7116 68.2918 11.697C69.1768 11.6798 70.0225 12.1562 70.162 12.8543C70.219 13.1436 70.2568 14.3394 70.2568 14.3394L69.7935 14.4364C69.702 14.4695 69.6015 14.4695 69.5102 14.4364C69.4871 14.4283 69.4614 14.4191 69.4371 14.4084L69.376 14.3859C68.4243 14.0255 67.4148 13.8331 66.3946 13.8178C66.0515 13.8177 65.709 13.8439 65.3701 13.8962C64.3293 14.0567 63.0919 14.6326 63.1136 16.4708C63.1218 17.1702 63.2709 17.6945 63.5852 18.1206C63.8619 18.5091 64.2319 18.8251 64.6628 19.0407C65.0936 19.2561 65.572 19.3644 66.0557 19.3561C67.2383 19.3916 68.3925 18.9984 69.2974 18.2519C69.315 18.2373 69.5318 18.0528 69.5928 18.005L70.2311 17.5206V19.3428H72.8941V12.9724C72.8955 11.5298 72.0932 10.415 70.7095 9.90534ZM69.887 15.8922C69.3178 16.8901 68.3894 17.4543 67.3215 17.4543C67.2768 17.4543 67.2307 17.4543 67.186 17.4543C66.9613 17.4497 66.7378 17.4217 66.5192 17.3706C65.721 17.1649 65.2671 16.5358 65.2996 15.6892L65.3158 15.3188H70.2094L69.887 15.8922Z" fill="black"/>
<path d="M61.9969 10.246C61.135 10.2845 60.521 10.6535 60.1145 11.3794C60.0697 11.4591 59.7826 12.0111 59.7826 12.0111L59.1442 11.8666V11.5586V10.3748H56.5693V19.3622H59.151V18.5461C59.151 17.7002 59.151 16.8557 59.151 16.0125V15.852C59.151 15.5534 59.1306 15.2441 59.151 14.935C59.1886 14.3938 59.4177 13.8825 59.7989 13.489C60.1801 13.0956 60.6895 12.8447 61.2394 12.7796C61.5998 12.7292 62.5064 12.7252 62.6053 12.7238V10.2407C62.39 10.2381 62.192 10.2367 61.9969 10.246Z" fill="black"/>
<path d="M15.1093 17.2628C14.8827 17.2592 14.6562 17.2415 14.4317 17.2098C13.7541 17.101 13.3218 16.7746 13.1376 16.237C13.0548 16.0124 13.0091 15.7763 13.002 15.5376V11.5243L13.4018 11.507C14.257 11.4659 15.1635 11.4049 16.0241 11.1712L15.4753 9.33845L13.002 9.6981V7H10.0815V9.6981H8.1084V11.5481H10.0815C10.0815 11.5481 10.0815 15.3637 10.0978 16.3379C10.0994 16.9328 10.2749 17.5149 10.6033 18.0154C10.9963 18.6007 11.5669 18.967 12.4016 19.1687C13.3001 19.385 14.2109 19.3744 15.1731 19.3638H15.4034V17.2735H15.2924L15.1093 17.2628Z" fill="black"/>
<path d="M37.4714 14.2995C37.4714 13.3917 38.0949 12.675 38.9418 12.598C39.9636 12.5038 40.6819 13.0041 40.8648 13.9344C40.8921 14.0981 40.9036 14.2639 40.8988 14.4295C40.8988 15.7793 40.8988 17.1171 40.8988 18.4561V19.3506H43.4737V17.9585C43.4737 16.3964 43.4737 14.8343 43.4737 13.2722C43.4764 12.9796 43.452 12.6873 43.4004 12.399C43.1862 11.2841 42.5765 10.6046 41.5479 10.3179C40.4339 10.0127 38.5665 10.241 37.699 11.7261L37.3034 12.5011C37.0757 11.389 36.4266 10.5834 35.3913 10.2928C34.2773 9.98746 32.5968 10.2437 31.7322 11.7287L31.3446 12.3923V10.3737H28.6504V19.3625H31.3337C31.3337 19.3625 31.3337 15.7992 31.3337 14.4865C31.3336 14.3185 31.3444 14.1504 31.3662 13.9836C31.3972 13.6685 31.5272 13.3706 31.7384 13.131C31.9496 12.8914 32.2315 12.7218 32.5453 12.6458C33.2798 12.46 34.0428 12.6909 34.4425 13.2231C34.6793 13.5669 34.7949 13.9769 34.7719 14.391C34.7719 15.6598 34.7719 19.356 34.7719 19.356H37.4714V14.2995Z" fill="black"/>
</g>
<defs>
<linearGradient id="paint0_linear_823_14925" x1="0.771351" y1="23.6356" x2="63.3382" y2="-21.3888" gradientUnits="userSpaceOnUse">
<stop offset="0.01" stop-color="#AAE1FF"/>
<stop offset="0.427083" stop-color="#F9BD9A"/>
<stop offset="0.51" stop-color="#FFBC8C"/>
<stop offset="0.640625" stop-color="#FFBE92"/>
<stop offset="0.75" stop-color="#F8BC8B"/>
<stop offset="0.88" stop-color="#F29F7E"/>
<stop offset="1" stop-color="#F0826B"/>
</linearGradient>
<linearGradient id="paint1_linear_823_14925" x1="42.4378" y1="11.2338" x2="8.50268" y2="57.1064" gradientUnits="userSpaceOnUse">
<stop stop-color="white" stop-opacity="0"/>
<stop offset="0.463182" stop-color="#CAEDFF"/>
<stop offset="1" stop-color="#98D6F7" stop-opacity="0"/>
</linearGradient>
<linearGradient id="paint2_linear_823_14925" x1="17.4967" y1="1.09817" x2="29.9332" y2="41.7453" gradientUnits="userSpaceOnUse">
<stop offset="0.01" stop-color="#FFE08B"/>
<stop offset="0.130208" stop-color="#FFE294" stop-opacity="0.590397"/>
<stop offset="0.303475" stop-color="#FFD972" stop-opacity="0"/>
</linearGradient>
<radialGradient id="paint3_radial_823_14925" cx="0" cy="0" r="1" gradientUnits="userSpaceOnUse" gradientTransform="translate(34.216 13.4875) rotate(90) scale(10.3381 14.8419)">
<stop stop-color="#F8B483" stop-opacity="0.57"/>
<stop offset="1" stop-color="#F8B483" stop-opacity="0"/>
</radialGradient>
<radialGradient id="paint4_radial_823_14925" cx="0" cy="0" r="1" gradientUnits="userSpaceOnUse" gradientTransform="translate(50.1191 21.5753) rotate(90) scale(13.1114 27.834)">
<stop stop-color="#EB84A4"/>
<stop offset="0.755208" stop-color="#EB84A4" stop-opacity="0"/>
</radialGradient>
<radialGradient id="paint5_radial_823_14925" cx="0" cy="0" r="1" gradientUnits="userSpaceOnUse" gradientTransform="translate(66.1913 34.2028) rotate(117.282) scale(8.131 17.1158)">
<stop stop-color="#EB84A4"/>
<stop offset="0.755208" stop-color="#EB84A4" stop-opacity="0"/>
</radialGradient>
<linearGradient id="paint6_linear_823_14925" x1="35.9277" y1="13.8104" x2="62.8242" y2="41.1458" gradientUnits="userSpaceOnUse">
<stop offset="0.326812" stop-color="#EB84A4" stop-opacity="0"/>
<stop offset="1" stop-color="#9881BB"/>
</linearGradient>
<clipPath id="clip0_823_14925">
<rect width="81" height="26" fill="white" transform="translate(0 0.5)"/>
</clipPath>
</defs>
</svg>
