<svg width="27" height="27" viewBox="0 0 27 27" fill="none" xmlns="http://www.w3.org/2000/svg">
<rect width="27" height="27" rx="13.5" fill="url(#paint0_linear_823_14922)"/>
<path d="M19.2 10.9852V10.986V16.014C19.2 17.0463 18.8933 17.8342 18.3634 18.3638C17.8336 18.8934 17.0452 19.2 16.0122 19.2H10.9877C9.95482 19.2 9.1665 18.8934 8.63667 18.3632C8.10682 17.8329 7.8 17.0435 7.8 16.008V10.986C7.8 9.9537 8.10669 9.16577 8.63654 8.63618C9.16641 8.10658 9.95481 7.8 10.9877 7.8H16.0182C17.0512 7.8 17.8395 8.10661 18.3686 8.63605C18.8975 9.16541 19.2028 9.95307 19.2 10.9852ZM17.1313 10.849L17.1431 10.8385L17.1536 10.8267C17.2295 10.7425 17.2902 10.6478 17.3337 10.5434C17.3765 10.4407 17.4048 10.3235 17.4048 10.2C17.4048 10.078 17.3772 9.96214 17.3352 9.86036C17.2885 9.74052 17.2235 9.65084 17.1536 9.57325L17.1372 9.55502L17.1181 9.53969C17.1121 9.53494 17.1086 9.53187 17.1026 9.52668C17.0977 9.52236 17.091 9.51657 17.0799 9.50712C17.0639 9.49352 17.0361 9.47027 17.0019 9.44899C16.9541 9.41758 16.9027 9.39075 16.8478 9.37053C16.794 9.34554 16.7365 9.32698 16.6722 9.31671C16.3789 9.25651 16.0708 9.35728 15.8662 9.56182L15.8606 9.56739L15.8553 9.57326C15.7855 9.65084 15.7205 9.74052 15.6737 9.86036C15.6318 9.96215 15.6042 10.078 15.6042 10.2L15.6042 10.2033C15.6055 10.3207 15.6299 10.4367 15.6758 10.5447C15.7193 10.6486 15.7797 10.7428 15.8553 10.8267L15.8609 10.833L15.8669 10.8389C15.9934 10.9645 16.1545 11.0496 16.3295 11.0833C16.5042 11.1169 16.685 11.0979 16.8489 11.0286C16.9529 10.9851 17.0473 10.9247 17.1313 10.849ZM10.8738 13.5C10.8738 14.9498 12.0528 16.128 13.503 16.128C14.9532 16.128 16.1322 14.9498 16.1322 13.5C16.1322 12.0502 14.9532 10.872 13.503 10.872C12.0528 10.872 10.8738 12.0502 10.8738 13.5Z" stroke="white" stroke-width="0.6"/>
<rect x="7.5" y="7.5" width="12" height="12" stroke="white"/>
<defs>
<linearGradient id="paint0_linear_823_14922" x1="13.5" y1="0" x2="15.6094" y2="23.625" gradientUnits="userSpaceOnUse">
<stop stopColor="#5317C0"/>
<stop offset="0.276042" stopColor="#EF08EA"/>
<stop offset="0.557292" stopColor="#FD2F57"/>
<stop offset="1" stopColor="#FFC005"/>
</linearGradient>
</defs>
</svg>
