<svg width="29" height="27" viewBox="0 0 29 27" fill="none" xmlns="http://www.w3.org/2000/svg">
<rect width="29" height="27" rx="13.5" fill="#0094FF"/>
<g clip-path="url(#clip0_823_14921)">
<path d="M15.229 11.2349V12.4868C15.2849 12.4499 15.3145 12.4404 15.3274 12.4202C15.7694 11.726 16.4398 11.399 17.2221 11.2764C18.1474 11.1302 19.066 11.1644 19.9315 11.5681C20.7037 11.927 21.1333 12.5759 21.2814 13.3838C21.4066 14.0754 21.4748 14.7761 21.4853 15.4789C21.5144 17.0852 21.4948 18.6921 21.4943 20.299C21.4943 20.3634 21.487 20.4277 21.482 20.5H18.7944C18.7944 20.4014 18.7944 20.3152 18.7944 20.229C18.7944 18.7173 18.8067 17.2056 18.7793 15.6939C18.7637 15.2711 18.6894 14.8526 18.5586 14.4504C18.3843 13.8832 17.9535 13.5865 17.3618 13.5445C17.1722 13.5298 16.9815 13.5351 16.793 13.5602C16.1018 13.6609 15.6889 14.087 15.5459 14.7482C15.458 15.1719 15.4126 15.6033 15.4101 16.036C15.3939 17.4357 15.4039 18.8388 15.4039 20.2402V20.4972H12.7393V11.2349H15.229Z" fill="white"/>
<path d="M7.56641 11.2227H10.7513V20.4972H7.56641V11.2227Z" fill="white"/>
<path d="M9.13378 6.5C9.56661 6.50081 9.98186 6.67167 10.2904 6.97588C10.5989 7.28009 10.776 7.69339 10.7838 8.12703C10.7927 9.00998 10.054 9.76471 9.15837 9.78822C8.27275 9.81118 7.5 9.04805 7.5 8.14551C7.50347 7.71162 7.67645 7.29636 7.98186 6.98876C8.28727 6.68115 8.70079 6.5057 9.13378 6.5Z" fill="white"/>
</g>
<defs>
<clipPath id="clip0_823_14921">
<rect width="14" height="14" fill="white" transform="translate(7.5 6.5)"/>
</clipPath>
</defs>
</svg>
