<svg width="27" height="27" viewBox="0 0 27 27" fill="none" xmlns="http://www.w3.org/2000/svg">
<path d="M26.4787 12.7331L26.4787 12.7331C26.0367 5.19288 19.1872 -0.617596 11.2933 0.682926L26.4787 12.7331ZM26.4787 12.7331C26.9072 20.0329 20.8182 26.5 13.4931 26.5C11.0871 26.5 8.83909 25.8499 6.91634 24.7195L6.73389 24.6122L6.52987 24.6686L2.12944 25.8835L2.126 25.8845C1.50406 26.061 0.914584 25.4889 1.08525 24.8477L1.08508 24.8484L0.602231 24.7186M26.4787 12.7331L2.26251 26.3655M2.26251 26.3655L6.66294 25.1505C8.66068 26.325 10.9959 27 13.4931 27C21.1061 27 27.4232 20.2907 26.9778 12.7038L2.26251 26.3655ZM2.26251 26.3655C1.26364 26.649 0.332266 25.731 0.602231 24.7186M0.602231 24.7186L1.08535 24.8474M0.602231 24.7186L1.08535 24.8474M1.08535 24.8474L2.28643 20.38L2.34022 20.1799L2.23672 20.0004C0.820216 17.544 0.16971 14.5676 0.664236 11.4179L0.66435 11.4172C1.50862 5.98727 5.86443 1.57924 11.2931 0.682952L1.08535 24.8474ZM20.5431 18.7413L20.547 18.7333L20.5506 18.7252C20.6177 18.5742 20.6655 18.4249 20.704 18.2969C20.7152 18.2598 20.7253 18.2255 20.7349 18.1932C20.7608 18.1056 20.7823 18.0327 20.8082 17.9596L20.8367 17.8788V17.7932C20.8367 17.5248 20.7773 17.3003 20.6954 17.0872L20.6867 17.0647L20.6759 17.0431C20.559 16.8093 20.3835 16.5961 20.1382 16.4256L17.9046 14.8377C17.7018 14.6865 17.5038 14.589 17.3445 14.5166C17.1328 14.4203 16.9274 14.3773 16.7191 14.3773C16.4295 14.3773 16.1953 14.4699 15.9874 14.5903C15.791 14.6984 15.5936 14.8503 15.3937 15.0502L14.9173 15.5267C14.9099 15.523 14.9014 15.519 14.8926 15.515C14.8842 15.5111 14.8743 15.5067 14.8632 15.5021C14.6765 15.4001 14.4184 15.2244 14.1 14.955C13.3782 14.3407 12.7069 13.6693 12.0926 12.9474C11.8142 12.6183 11.6348 12.3798 11.5364 12.2052C11.5294 12.1853 11.521 12.1627 11.5107 12.1375L11.9751 11.6487C12.1651 11.4578 12.3115 11.2632 12.4266 11.0658C12.5513 10.8521 12.6432 10.6033 12.6432 10.3279C12.6432 10.1253 12.6025 9.92549 12.5117 9.71988C12.4328 9.51164 12.3075 9.32222 12.1899 9.15231L12.1899 9.1523L12.187 9.14818L10.6225 6.93612C10.4423 6.6767 10.2055 6.50265 9.96359 6.39098C9.72156 6.27926 9.46099 6.22346 9.20061 6.22346C8.5527 6.22346 7.96009 6.49039 7.45007 6.99757C7.03707 7.38182 6.73844 7.81959 6.54863 8.30879C6.36182 8.77688 6.27093 9.28506 6.27093 9.80139C6.27093 10.5808 6.45076 11.3892 6.79604 12.2093C7.13716 13.0196 7.60271 13.8217 8.17377 14.6157L8.17375 14.6157L8.17715 14.6204C8.75642 15.4066 9.39346 16.1688 10.1159 16.8913L10.1193 16.8947C10.8348 17.5965 11.5824 18.2478 12.3891 18.8321C13.1413 19.3814 13.951 19.8475 14.8038 20.222L14.804 20.222C15.6274 20.5832 16.438 20.7637 17.2051 20.7637C17.7339 20.7637 18.248 20.673 18.7247 20.4668C19.5191 20.1299 20.165 19.517 20.5431 18.7413Z" fill="#00BB61" stroke="white"/>
</svg>
