<svg width="43" height="42" viewBox="0 0 43 42" fill="none" xmlns="http://www.w3.org/2000/svg">
<rect x="0.5" width="42" height="42" rx="21" fill="#BDBEBB"/>
<path d="M20.5159 27.29V22.58H15.8059C15.5059 22.58 15.2359 22.31 15.2359 22.01V21.17C15.2359 20.87 15.5059 20.6 15.8059 20.6H20.5159V15.86C20.5159 15.56 20.7859 15.32 21.0859 15.32H21.9259C22.2259 15.32 22.4959 15.56 22.4959 15.86V20.6H27.2359C27.5359 20.6 27.7759 20.87 27.7759 21.17V22.01C27.7759 22.31 27.5359 22.58 27.2359 22.58H22.4959V27.29C22.4959 27.59 22.2259 27.83 21.9259 27.83H21.0859C20.7859 27.83 20.5159 27.59 20.5159 27.29Z" fill="white"/>
</svg>
