<svg width="132" height="41" viewBox="0 0 132 41" fill="none" xmlns="http://www.w3.org/2000/svg">
<rect width="132" height="41" rx="20.5" fill="white"/>
<path d="M36.0551 11C36.2344 11.99 35.7861 12.98 35.2482 13.7C34.7102 14.42 33.724 15.05 32.7377 14.96C32.5584 13.97 33.0067 13.07 33.5447 12.35C34.1723 11.63 35.1585 11.09 36.0551 11ZM38.9241 26.66C39.3724 25.94 39.6414 25.49 40 24.68C37.2206 23.6 36.7723 19.64 39.5517 18.2C38.7448 17.12 37.5792 16.58 36.4137 16.58C35.6068 16.58 35.0688 16.76 34.5309 16.94C34.0826 17.12 33.724 17.21 33.2757 17.21C32.7377 17.21 32.3791 17.03 31.8412 16.85C31.3032 16.67 30.7653 16.49 30.1377 16.49C28.8825 16.49 27.5376 17.21 26.7307 18.56C25.5651 20.36 25.7445 23.87 27.6273 26.75C28.4342 27.83 29.3308 29 30.4963 29C31.0343 29 31.3032 28.82 31.6619 28.73C32.1101 28.55 32.5584 28.37 33.2757 28.37C34.0826 28.37 34.4412 28.55 34.8895 28.73C35.2482 28.91 35.5171 29 36.0551 29C37.3103 29 38.2069 27.65 38.9241 26.66Z" fill="black" stroke="black" stroke-width="2" stroke-miterlimit="10" stroke-linecap="round" stroke-linejoin="round"/>
<mask id="path-3-outside-1_128_5658" maskUnits="userSpaceOnUse" x="51" y="10" width="56" height="21" fill="black">
<rect fill="white" x="51" y="10" width="56" height="21"/>
<path d="M53.5615 15.2027H55.1408C56.3821 15.2027 57.2189 14.3871 57.2189 13.2203C57.2189 12.0535 56.3821 11.2379 55.1408 11.2379H53.5615V15.2027ZM53.9716 14.8402V11.6004H55.1187C56.1494 11.6004 56.8144 12.2688 56.8144 13.2203C56.8144 14.1719 56.1494 14.8402 55.1187 14.8402H53.9716Z"/>
<path d="M59.2481 15.2311C60.1014 15.2311 60.7276 14.5967 60.7276 13.7131C60.7276 12.8295 60.1014 12.2008 59.2481 12.2008C58.3947 12.2008 57.7629 12.8295 57.7629 13.7131C57.7629 14.5967 58.3947 15.2311 59.2481 15.2311ZM59.2481 14.8742C58.6274 14.8742 58.1619 14.4098 58.1619 13.7131C58.1619 13.0164 58.6274 12.552 59.2481 12.552C59.8687 12.552 60.3286 13.0164 60.3286 13.7131C60.3286 14.4098 59.8687 14.8742 59.2481 14.8742Z"/>
<path d="M65.3676 12.2234L64.4421 14.7553L63.5112 12.2234H63.1731L62.2366 14.7553L61.3223 12.2234H60.9454L62.0427 15.2027H62.4139L63.3338 12.7615L64.2537 15.2027H64.625L65.7278 12.2234H65.3676Z"/>
<path d="M67.8053 12.2008C67.301 12.2008 66.9076 12.4104 66.697 12.7729V12.2234H66.3202V15.2027H66.7136V13.6395C66.7136 12.9598 67.1071 12.5633 67.7333 12.5633C68.2874 12.5633 68.6088 12.8861 68.6088 13.5148V15.2027H69.0023V13.4752C69.0023 12.6199 68.5146 12.2008 67.8053 12.2008Z"/>
<path d="M70.0705 15.2027H70.4639V11H70.0705V15.2027Z"/>
<path d="M72.7501 15.2311C73.6035 15.2311 74.2297 14.5967 74.2297 13.7131C74.2297 12.8295 73.6035 12.2008 72.7501 12.2008C71.8967 12.2008 71.265 12.8295 71.265 13.7131C71.265 14.5967 71.8967 15.2311 72.7501 15.2311ZM72.7501 14.8742C72.1294 14.8742 71.6639 14.4098 71.6639 13.7131C71.6639 13.0164 72.1294 12.552 72.7501 12.552C73.3707 12.552 73.8307 13.0164 73.8307 13.7131C73.8307 14.4098 73.3707 14.8742 72.7501 14.8742Z"/>
<path d="M76.0363 12.2008C75.5764 12.2008 75.1441 12.348 74.8504 12.6029L75.0278 12.9031C75.2661 12.6879 75.6207 12.552 75.9975 12.552C76.5406 12.552 76.8232 12.8295 76.8232 13.3393V13.5205H75.8978C75.061 13.5205 74.7729 13.9057 74.7729 14.3645C74.7729 14.8799 75.1774 15.2311 75.8368 15.2311C76.3189 15.2311 76.6625 15.0441 76.8398 14.7383V15.2027H77.2167V13.3563C77.2167 12.5859 76.79 12.2008 76.0363 12.2008ZM75.8978 14.9139C75.4323 14.9139 75.1608 14.6986 75.1608 14.3531C75.1608 14.0473 75.3436 13.8207 75.9089 13.8207H76.8232V14.3078C76.6681 14.6986 76.3411 14.9139 75.8978 14.9139Z"/>
<path d="M80.5626 11V12.7898C80.3188 12.4047 79.9198 12.2008 79.4543 12.2008C78.6231 12.2008 78.0024 12.8125 78.0024 13.7131C78.0024 14.6137 78.6231 15.2311 79.4543 15.2311C79.9364 15.2311 80.341 15.0158 80.5792 14.6137V15.2027H80.9561V11H80.5626ZM79.4876 14.8742C78.8669 14.8742 78.4014 14.4098 78.4014 13.7131C78.4014 13.0164 78.8669 12.552 79.4876 12.552C80.1027 12.552 80.5682 13.0164 80.5682 13.7131C80.5682 14.4098 80.1027 14.8742 79.4876 14.8742Z"/>
<path d="M85.281 15.2367C86.4447 15.2367 87.3147 14.3814 87.3147 13.2203C87.3147 12.0592 86.4447 11.2039 85.281 11.2039C84.1062 11.2039 83.2417 12.0648 83.2417 13.2203C83.2417 14.3758 84.1062 15.2367 85.281 15.2367ZM85.281 14.8629C84.3444 14.8629 83.6462 14.1662 83.6462 13.2203C83.6462 12.2744 84.3444 11.5777 85.281 11.5777C86.2119 11.5777 86.9046 12.2744 86.9046 13.2203C86.9046 14.1662 86.2119 14.8629 85.281 14.8629Z"/>
<path d="M89.6358 12.2008C89.1316 12.2008 88.7381 12.4104 88.5275 12.7729V12.2234H88.1507V15.2027H88.5442V13.6395C88.5442 12.9598 88.9376 12.5633 89.5638 12.5633C90.118 12.5633 90.4394 12.8861 90.4394 13.5148V15.2027H90.8328V13.4752C90.8328 12.6199 90.3452 12.2008 89.6358 12.2008Z"/>
<path d="M94.1881 15.2027H94.5981V11.6004H95.9614V11.2379H92.8249V11.6004H94.1881V15.2027Z"/>
<path d="M98.0185 12.2008C97.5253 12.2008 97.1429 12.399 96.9268 12.7445V11H96.5333V15.2027H96.9268V13.6395C96.9268 12.9598 97.3202 12.5633 97.9464 12.5633C98.5006 12.5633 98.822 12.8861 98.822 13.5148V15.2027H99.2154V13.4752C99.2154 12.6199 98.7278 12.2008 98.0185 12.2008Z"/>
<path d="M102.838 13.7131C102.838 12.8182 102.245 12.2008 101.425 12.2008C100.605 12.2008 100.001 12.8295 100.001 13.7131C100.001 14.5967 100.621 15.2311 101.53 15.2311C101.99 15.2311 102.395 15.0611 102.655 14.7439L102.433 14.4834C102.212 14.7439 101.896 14.8742 101.541 14.8742C100.904 14.8742 100.439 14.4607 100.394 13.8377H102.832C102.832 13.7924 102.838 13.7471 102.838 13.7131ZM101.425 12.5463C101.996 12.5463 102.411 12.9541 102.461 13.5375H100.394C100.444 12.9541 100.86 12.5463 101.425 12.5463Z"/>
<path d="M58.6285 27.8902H60.0755L56.7134 20.2777H55.3515L52 27.8902H53.4257L54.1599 26.1285H57.8838L58.6285 27.8902ZM54.628 25.0192L56.0218 21.6915L57.4262 25.0192H54.628Z"/>
<path d="M64.0444 22.0177C63.2677 22.0177 62.608 22.2896 62.1612 22.8442V22.083H60.895V30H62.225V27.1834C62.6825 27.7162 63.3209 27.9664 64.0444 27.9664C65.7042 27.9664 66.9278 26.7919 66.9278 24.9866C66.9278 23.1922 65.7042 22.0177 64.0444 22.0177ZM63.8954 26.8027C62.9379 26.8027 62.2037 26.0959 62.2037 24.9866C62.2037 23.8774 62.9379 23.1705 63.8954 23.1705C64.853 23.1705 65.5765 23.8774 65.5765 24.9866C65.5765 26.0959 64.853 26.8027 63.8954 26.8027Z"/>
<path d="M71.3384 22.0177C70.5617 22.0177 69.9021 22.2896 69.4552 22.8442V22.083H68.1891V30H69.519V27.1834C69.9765 27.7162 70.6149 27.9664 71.3384 27.9664C72.9982 27.9664 74.2218 26.7919 74.2218 24.9866C74.2218 23.1922 72.9982 22.0177 71.3384 22.0177ZM71.1895 26.8027C70.2319 26.8027 69.4977 26.0959 69.4977 24.9866C69.4977 23.8774 70.2319 23.1705 71.1895 23.1705C72.147 23.1705 72.8705 23.8774 72.8705 24.9866C72.8705 26.0959 72.147 26.8027 71.1895 26.8027Z"/>
<path d="M80.86 27.999C82.9029 27.999 83.8711 26.955 83.8711 25.737C83.8711 22.9421 79.4556 23.997 79.4556 22.3766C79.4556 21.8002 79.9237 21.3435 81.0728 21.3435C81.7219 21.3435 82.456 21.5392 83.1263 21.9416L83.5625 20.8432C82.9135 20.4082 81.9772 20.169 81.0835 20.169C79.0406 20.169 78.0831 21.213 78.0831 22.4419C78.0831 25.2694 82.5092 24.1927 82.5092 25.8349C82.5092 26.4004 82.0198 26.8245 80.86 26.8245C79.945 26.8245 78.9981 26.4765 78.4023 25.9871L77.9235 27.0855C78.5406 27.6292 79.7003 27.999 80.86 27.999Z"/>
<path d="M88.1579 26.607C87.9557 26.7701 87.6897 26.8462 87.4131 26.8462C86.9024 26.8462 86.6258 26.5417 86.6258 25.9762V23.214H88.1472V22.1265H86.6258V20.7997H85.2958V22.1265H84.3595V23.214H85.2958V26.0089C85.2958 27.2921 86.0087 27.9664 87.2535 27.9664C87.7323 27.9664 88.2111 27.8359 88.5303 27.5749L88.1579 26.607Z"/>
<path d="M91.9908 27.9664C93.757 27.9664 95.0231 26.7266 95.0231 24.9866C95.0231 23.2466 93.757 22.0177 91.9908 22.0177C90.2459 22.0177 88.9692 23.2466 88.9692 24.9866C88.9692 26.7266 90.2459 27.9664 91.9908 27.9664ZM91.9908 26.8027C91.0333 26.8027 90.3098 26.0959 90.3098 24.9866C90.3098 23.8774 91.0333 23.1705 91.9908 23.1705C92.959 23.1705 93.6825 23.8774 93.6825 24.9866C93.6825 26.0959 92.959 26.8027 91.9908 26.8027Z"/>
<path d="M97.561 22.9312V22.083H96.2949V27.8902H97.6249V25.0736C97.6249 23.8882 98.2633 23.2792 99.274 23.2792C99.3698 23.2792 99.4656 23.2901 99.5826 23.3119V22.0177C98.6357 22.0177 97.9441 22.3222 97.561 22.9312Z"/>
<path d="M106 25.0192C106 23.2031 104.787 22.0177 103.127 22.0177C101.436 22.0177 100.191 23.2575 100.191 24.9866C100.191 26.7157 101.425 27.9664 103.329 27.9664C104.308 27.9664 105.106 27.6401 105.617 27.0202L104.904 26.1829C104.5 26.607 104 26.8136 103.361 26.8136C102.372 26.8136 101.68 26.2699 101.521 25.4216H105.979C105.989 25.2911 106 25.128 106 25.0192ZM103.127 23.1052C104 23.1052 104.627 23.6816 104.734 24.519H101.51C101.638 23.6707 102.265 23.1052 103.127 23.1052Z"/>
</mask>
<path d="M53.5615 15.2027H55.1408C56.3821 15.2027 57.2189 14.3871 57.2189 13.2203C57.2189 12.0535 56.3821 11.2379 55.1408 11.2379H53.5615V15.2027ZM53.9716 14.8402V11.6004H55.1187C56.1494 11.6004 56.8144 12.2688 56.8144 13.2203C56.8144 14.1719 56.1494 14.8402 55.1187 14.8402H53.9716Z" fill="black"/>
<path d="M59.2481 15.2311C60.1014 15.2311 60.7276 14.5967 60.7276 13.7131C60.7276 12.8295 60.1014 12.2008 59.2481 12.2008C58.3947 12.2008 57.7629 12.8295 57.7629 13.7131C57.7629 14.5967 58.3947 15.2311 59.2481 15.2311ZM59.2481 14.8742C58.6274 14.8742 58.1619 14.4098 58.1619 13.7131C58.1619 13.0164 58.6274 12.552 59.2481 12.552C59.8687 12.552 60.3286 13.0164 60.3286 13.7131C60.3286 14.4098 59.8687 14.8742 59.2481 14.8742Z" fill="black"/>
<path d="M65.3676 12.2234L64.4421 14.7553L63.5112 12.2234H63.1731L62.2366 14.7553L61.3223 12.2234H60.9454L62.0427 15.2027H62.4139L63.3338 12.7615L64.2537 15.2027H64.625L65.7278 12.2234H65.3676Z" fill="black"/>
<path d="M67.8053 12.2008C67.301 12.2008 66.9076 12.4104 66.697 12.7729V12.2234H66.3202V15.2027H66.7136V13.6395C66.7136 12.9598 67.1071 12.5633 67.7333 12.5633C68.2874 12.5633 68.6088 12.8861 68.6088 13.5148V15.2027H69.0023V13.4752C69.0023 12.6199 68.5146 12.2008 67.8053 12.2008Z" fill="black"/>
<path d="M70.0705 15.2027H70.4639V11H70.0705V15.2027Z" fill="black"/>
<path d="M72.7501 15.2311C73.6035 15.2311 74.2297 14.5967 74.2297 13.7131C74.2297 12.8295 73.6035 12.2008 72.7501 12.2008C71.8967 12.2008 71.265 12.8295 71.265 13.7131C71.265 14.5967 71.8967 15.2311 72.7501 15.2311ZM72.7501 14.8742C72.1294 14.8742 71.6639 14.4098 71.6639 13.7131C71.6639 13.0164 72.1294 12.552 72.7501 12.552C73.3707 12.552 73.8307 13.0164 73.8307 13.7131C73.8307 14.4098 73.3707 14.8742 72.7501 14.8742Z" fill="black"/>
<path d="M76.0363 12.2008C75.5764 12.2008 75.1441 12.348 74.8504 12.6029L75.0278 12.9031C75.2661 12.6879 75.6207 12.552 75.9975 12.552C76.5406 12.552 76.8232 12.8295 76.8232 13.3393V13.5205H75.8978C75.061 13.5205 74.7729 13.9057 74.7729 14.3645C74.7729 14.8799 75.1774 15.2311 75.8368 15.2311C76.3189 15.2311 76.6625 15.0441 76.8398 14.7383V15.2027H77.2167V13.3563C77.2167 12.5859 76.79 12.2008 76.0363 12.2008ZM75.8978 14.9139C75.4323 14.9139 75.1608 14.6986 75.1608 14.3531C75.1608 14.0473 75.3436 13.8207 75.9089 13.8207H76.8232V14.3078C76.6681 14.6986 76.3411 14.9139 75.8978 14.9139Z" fill="black"/>
<path d="M80.5626 11V12.7898C80.3188 12.4047 79.9198 12.2008 79.4543 12.2008C78.6231 12.2008 78.0024 12.8125 78.0024 13.7131C78.0024 14.6137 78.6231 15.2311 79.4543 15.2311C79.9364 15.2311 80.341 15.0158 80.5792 14.6137V15.2027H80.9561V11H80.5626ZM79.4876 14.8742C78.8669 14.8742 78.4014 14.4098 78.4014 13.7131C78.4014 13.0164 78.8669 12.552 79.4876 12.552C80.1027 12.552 80.5682 13.0164 80.5682 13.7131C80.5682 14.4098 80.1027 14.8742 79.4876 14.8742Z" fill="black"/>
<path d="M85.281 15.2367C86.4447 15.2367 87.3147 14.3814 87.3147 13.2203C87.3147 12.0592 86.4447 11.2039 85.281 11.2039C84.1062 11.2039 83.2417 12.0648 83.2417 13.2203C83.2417 14.3758 84.1062 15.2367 85.281 15.2367ZM85.281 14.8629C84.3444 14.8629 83.6462 14.1662 83.6462 13.2203C83.6462 12.2744 84.3444 11.5777 85.281 11.5777C86.2119 11.5777 86.9046 12.2744 86.9046 13.2203C86.9046 14.1662 86.2119 14.8629 85.281 14.8629Z" fill="black"/>
<path d="M89.6358 12.2008C89.1316 12.2008 88.7381 12.4104 88.5275 12.7729V12.2234H88.1507V15.2027H88.5442V13.6395C88.5442 12.9598 88.9376 12.5633 89.5638 12.5633C90.118 12.5633 90.4394 12.8861 90.4394 13.5148V15.2027H90.8328V13.4752C90.8328 12.6199 90.3452 12.2008 89.6358 12.2008Z" fill="black"/>
<path d="M94.1881 15.2027H94.5981V11.6004H95.9614V11.2379H92.8249V11.6004H94.1881V15.2027Z" fill="black"/>
<path d="M98.0185 12.2008C97.5253 12.2008 97.1429 12.399 96.9268 12.7445V11H96.5333V15.2027H96.9268V13.6395C96.9268 12.9598 97.3202 12.5633 97.9464 12.5633C98.5006 12.5633 98.822 12.8861 98.822 13.5148V15.2027H99.2154V13.4752C99.2154 12.6199 98.7278 12.2008 98.0185 12.2008Z" fill="black"/>
<path d="M102.838 13.7131C102.838 12.8182 102.245 12.2008 101.425 12.2008C100.605 12.2008 100.001 12.8295 100.001 13.7131C100.001 14.5967 100.621 15.2311 101.53 15.2311C101.99 15.2311 102.395 15.0611 102.655 14.7439L102.433 14.4834C102.212 14.7439 101.896 14.8742 101.541 14.8742C100.904 14.8742 100.439 14.4607 100.394 13.8377H102.832C102.832 13.7924 102.838 13.7471 102.838 13.7131ZM101.425 12.5463C101.996 12.5463 102.411 12.9541 102.461 13.5375H100.394C100.444 12.9541 100.86 12.5463 101.425 12.5463Z" fill="black"/>
<path d="M58.6285 27.8902H60.0755L56.7134 20.2777H55.3515L52 27.8902H53.4257L54.1599 26.1285H57.8838L58.6285 27.8902ZM54.628 25.0192L56.0218 21.6915L57.4262 25.0192H54.628Z" fill="black"/>
<path d="M64.0444 22.0177C63.2677 22.0177 62.608 22.2896 62.1612 22.8442V22.083H60.895V30H62.225V27.1834C62.6825 27.7162 63.3209 27.9664 64.0444 27.9664C65.7042 27.9664 66.9278 26.7919 66.9278 24.9866C66.9278 23.1922 65.7042 22.0177 64.0444 22.0177ZM63.8954 26.8027C62.9379 26.8027 62.2037 26.0959 62.2037 24.9866C62.2037 23.8774 62.9379 23.1705 63.8954 23.1705C64.853 23.1705 65.5765 23.8774 65.5765 24.9866C65.5765 26.0959 64.853 26.8027 63.8954 26.8027Z" fill="black"/>
<path d="M71.3384 22.0177C70.5617 22.0177 69.9021 22.2896 69.4552 22.8442V22.083H68.1891V30H69.519V27.1834C69.9765 27.7162 70.6149 27.9664 71.3384 27.9664C72.9982 27.9664 74.2218 26.7919 74.2218 24.9866C74.2218 23.1922 72.9982 22.0177 71.3384 22.0177ZM71.1895 26.8027C70.2319 26.8027 69.4977 26.0959 69.4977 24.9866C69.4977 23.8774 70.2319 23.1705 71.1895 23.1705C72.147 23.1705 72.8705 23.8774 72.8705 24.9866C72.8705 26.0959 72.147 26.8027 71.1895 26.8027Z" fill="black"/>
<path d="M80.86 27.999C82.9029 27.999 83.8711 26.955 83.8711 25.737C83.8711 22.9421 79.4556 23.997 79.4556 22.3766C79.4556 21.8002 79.9237 21.3435 81.0728 21.3435C81.7219 21.3435 82.456 21.5392 83.1263 21.9416L83.5625 20.8432C82.9135 20.4082 81.9772 20.169 81.0835 20.169C79.0406 20.169 78.0831 21.213 78.0831 22.4419C78.0831 25.2694 82.5092 24.1927 82.5092 25.8349C82.5092 26.4004 82.0198 26.8245 80.86 26.8245C79.945 26.8245 78.9981 26.4765 78.4023 25.9871L77.9235 27.0855C78.5406 27.6292 79.7003 27.999 80.86 27.999Z" fill="black"/>
<path d="M88.1579 26.607C87.9557 26.7701 87.6897 26.8462 87.4131 26.8462C86.9024 26.8462 86.6258 26.5417 86.6258 25.9762V23.214H88.1472V22.1265H86.6258V20.7997H85.2958V22.1265H84.3595V23.214H85.2958V26.0089C85.2958 27.2921 86.0087 27.9664 87.2535 27.9664C87.7323 27.9664 88.2111 27.8359 88.5303 27.5749L88.1579 26.607Z" fill="black"/>
<path d="M91.9908 27.9664C93.757 27.9664 95.0231 26.7266 95.0231 24.9866C95.0231 23.2466 93.757 22.0177 91.9908 22.0177C90.2459 22.0177 88.9692 23.2466 88.9692 24.9866C88.9692 26.7266 90.2459 27.9664 91.9908 27.9664ZM91.9908 26.8027C91.0333 26.8027 90.3098 26.0959 90.3098 24.9866C90.3098 23.8774 91.0333 23.1705 91.9908 23.1705C92.959 23.1705 93.6825 23.8774 93.6825 24.9866C93.6825 26.0959 92.959 26.8027 91.9908 26.8027Z" fill="black"/>
<path d="M97.561 22.9312V22.083H96.2949V27.8902H97.6249V25.0736C97.6249 23.8882 98.2633 23.2792 99.274 23.2792C99.3698 23.2792 99.4656 23.2901 99.5826 23.3119V22.0177C98.6357 22.0177 97.9441 22.3222 97.561 22.9312Z" fill="black"/>
<path d="M106 25.0192C106 23.2031 104.787 22.0177 103.127 22.0177C101.436 22.0177 100.191 23.2575 100.191 24.9866C100.191 26.7157 101.425 27.9664 103.329 27.9664C104.308 27.9664 105.106 27.6401 105.617 27.0202L104.904 26.1829C104.5 26.607 104 26.8136 103.361 26.8136C102.372 26.8136 101.68 26.2699 101.521 25.4216H105.979C105.989 25.2911 106 25.128 106 25.0192ZM103.127 23.1052C104 23.1052 104.627 23.6816 104.734 24.519H101.51C101.638 23.6707 102.265 23.1052 103.127 23.1052Z" fill="black"/>
<path d="M53.5615 15.2027H55.1408C56.3821 15.2027 57.2189 14.3871 57.2189 13.2203C57.2189 12.0535 56.3821 11.2379 55.1408 11.2379H53.5615V15.2027ZM53.9716 14.8402V11.6004H55.1187C56.1494 11.6004 56.8144 12.2688 56.8144 13.2203C56.8144 14.1719 56.1494 14.8402 55.1187 14.8402H53.9716Z" stroke="black" stroke-width="0.4" mask="url(#path-3-outside-1_128_5658)"/>
<path d="M59.2481 15.2311C60.1014 15.2311 60.7276 14.5967 60.7276 13.7131C60.7276 12.8295 60.1014 12.2008 59.2481 12.2008C58.3947 12.2008 57.7629 12.8295 57.7629 13.7131C57.7629 14.5967 58.3947 15.2311 59.2481 15.2311ZM59.2481 14.8742C58.6274 14.8742 58.1619 14.4098 58.1619 13.7131C58.1619 13.0164 58.6274 12.552 59.2481 12.552C59.8687 12.552 60.3286 13.0164 60.3286 13.7131C60.3286 14.4098 59.8687 14.8742 59.2481 14.8742Z" stroke="black" stroke-width="0.4" mask="url(#path-3-outside-1_128_5658)"/>
<path d="M65.3676 12.2234L64.4421 14.7553L63.5112 12.2234H63.1731L62.2366 14.7553L61.3223 12.2234H60.9454L62.0427 15.2027H62.4139L63.3338 12.7615L64.2537 15.2027H64.625L65.7278 12.2234H65.3676Z" stroke="black" stroke-width="0.4" mask="url(#path-3-outside-1_128_5658)"/>
<path d="M67.8053 12.2008C67.301 12.2008 66.9076 12.4104 66.697 12.7729V12.2234H66.3202V15.2027H66.7136V13.6395C66.7136 12.9598 67.1071 12.5633 67.7333 12.5633C68.2874 12.5633 68.6088 12.8861 68.6088 13.5148V15.2027H69.0023V13.4752C69.0023 12.6199 68.5146 12.2008 67.8053 12.2008Z" stroke="black" stroke-width="0.4" mask="url(#path-3-outside-1_128_5658)"/>
<path d="M70.0705 15.2027H70.4639V11H70.0705V15.2027Z" stroke="black" stroke-width="0.4" mask="url(#path-3-outside-1_128_5658)"/>
<path d="M72.7501 15.2311C73.6035 15.2311 74.2297 14.5967 74.2297 13.7131C74.2297 12.8295 73.6035 12.2008 72.7501 12.2008C71.8967 12.2008 71.265 12.8295 71.265 13.7131C71.265 14.5967 71.8967 15.2311 72.7501 15.2311ZM72.7501 14.8742C72.1294 14.8742 71.6639 14.4098 71.6639 13.7131C71.6639 13.0164 72.1294 12.552 72.7501 12.552C73.3707 12.552 73.8307 13.0164 73.8307 13.7131C73.8307 14.4098 73.3707 14.8742 72.7501 14.8742Z" stroke="black" stroke-width="0.4" mask="url(#path-3-outside-1_128_5658)"/>
<path d="M76.0363 12.2008C75.5764 12.2008 75.1441 12.348 74.8504 12.6029L75.0278 12.9031C75.2661 12.6879 75.6207 12.552 75.9975 12.552C76.5406 12.552 76.8232 12.8295 76.8232 13.3393V13.5205H75.8978C75.061 13.5205 74.7729 13.9057 74.7729 14.3645C74.7729 14.8799 75.1774 15.2311 75.8368 15.2311C76.3189 15.2311 76.6625 15.0441 76.8398 14.7383V15.2027H77.2167V13.3563C77.2167 12.5859 76.79 12.2008 76.0363 12.2008ZM75.8978 14.9139C75.4323 14.9139 75.1608 14.6986 75.1608 14.3531C75.1608 14.0473 75.3436 13.8207 75.9089 13.8207H76.8232V14.3078C76.6681 14.6986 76.3411 14.9139 75.8978 14.9139Z" stroke="black" stroke-width="0.4" mask="url(#path-3-outside-1_128_5658)"/>
<path d="M80.5626 11V12.7898C80.3188 12.4047 79.9198 12.2008 79.4543 12.2008C78.6231 12.2008 78.0024 12.8125 78.0024 13.7131C78.0024 14.6137 78.6231 15.2311 79.4543 15.2311C79.9364 15.2311 80.341 15.0158 80.5792 14.6137V15.2027H80.9561V11H80.5626ZM79.4876 14.8742C78.8669 14.8742 78.4014 14.4098 78.4014 13.7131C78.4014 13.0164 78.8669 12.552 79.4876 12.552C80.1027 12.552 80.5682 13.0164 80.5682 13.7131C80.5682 14.4098 80.1027 14.8742 79.4876 14.8742Z" stroke="black" stroke-width="0.4" mask="url(#path-3-outside-1_128_5658)"/>
<path d="M85.281 15.2367C86.4447 15.2367 87.3147 14.3814 87.3147 13.2203C87.3147 12.0592 86.4447 11.2039 85.281 11.2039C84.1062 11.2039 83.2417 12.0648 83.2417 13.2203C83.2417 14.3758 84.1062 15.2367 85.281 15.2367ZM85.281 14.8629C84.3444 14.8629 83.6462 14.1662 83.6462 13.2203C83.6462 12.2744 84.3444 11.5777 85.281 11.5777C86.2119 11.5777 86.9046 12.2744 86.9046 13.2203C86.9046 14.1662 86.2119 14.8629 85.281 14.8629Z" stroke="black" stroke-width="0.4" mask="url(#path-3-outside-1_128_5658)"/>
<path d="M89.6358 12.2008C89.1316 12.2008 88.7381 12.4104 88.5275 12.7729V12.2234H88.1507V15.2027H88.5442V13.6395C88.5442 12.9598 88.9376 12.5633 89.5638 12.5633C90.118 12.5633 90.4394 12.8861 90.4394 13.5148V15.2027H90.8328V13.4752C90.8328 12.6199 90.3452 12.2008 89.6358 12.2008Z" stroke="black" stroke-width="0.4" mask="url(#path-3-outside-1_128_5658)"/>
<path d="M94.1881 15.2027H94.5981V11.6004H95.9614V11.2379H92.8249V11.6004H94.1881V15.2027Z" stroke="black" stroke-width="0.4" mask="url(#path-3-outside-1_128_5658)"/>
<path d="M98.0185 12.2008C97.5253 12.2008 97.1429 12.399 96.9268 12.7445V11H96.5333V15.2027H96.9268V13.6395C96.9268 12.9598 97.3202 12.5633 97.9464 12.5633C98.5006 12.5633 98.822 12.8861 98.822 13.5148V15.2027H99.2154V13.4752C99.2154 12.6199 98.7278 12.2008 98.0185 12.2008Z" stroke="black" stroke-width="0.4" mask="url(#path-3-outside-1_128_5658)"/>
<path d="M102.838 13.7131C102.838 12.8182 102.245 12.2008 101.425 12.2008C100.605 12.2008 100.001 12.8295 100.001 13.7131C100.001 14.5967 100.621 15.2311 101.53 15.2311C101.99 15.2311 102.395 15.0611 102.655 14.7439L102.433 14.4834C102.212 14.7439 101.896 14.8742 101.541 14.8742C100.904 14.8742 100.439 14.4607 100.394 13.8377H102.832C102.832 13.7924 102.838 13.7471 102.838 13.7131ZM101.425 12.5463C101.996 12.5463 102.411 12.9541 102.461 13.5375H100.394C100.444 12.9541 100.86 12.5463 101.425 12.5463Z" stroke="black" stroke-width="0.4" mask="url(#path-3-outside-1_128_5658)"/>
<path d="M58.6285 27.8902H60.0755L56.7134 20.2777H55.3515L52 27.8902H53.4257L54.1599 26.1285H57.8838L58.6285 27.8902ZM54.628 25.0192L56.0218 21.6915L57.4262 25.0192H54.628Z" stroke="black" stroke-width="0.4" mask="url(#path-3-outside-1_128_5658)"/>
<path d="M64.0444 22.0177C63.2677 22.0177 62.608 22.2896 62.1612 22.8442V22.083H60.895V30H62.225V27.1834C62.6825 27.7162 63.3209 27.9664 64.0444 27.9664C65.7042 27.9664 66.9278 26.7919 66.9278 24.9866C66.9278 23.1922 65.7042 22.0177 64.0444 22.0177ZM63.8954 26.8027C62.9379 26.8027 62.2037 26.0959 62.2037 24.9866C62.2037 23.8774 62.9379 23.1705 63.8954 23.1705C64.853 23.1705 65.5765 23.8774 65.5765 24.9866C65.5765 26.0959 64.853 26.8027 63.8954 26.8027Z" stroke="black" stroke-width="0.4" mask="url(#path-3-outside-1_128_5658)"/>
<path d="M71.3384 22.0177C70.5617 22.0177 69.9021 22.2896 69.4552 22.8442V22.083H68.1891V30H69.519V27.1834C69.9765 27.7162 70.6149 27.9664 71.3384 27.9664C72.9982 27.9664 74.2218 26.7919 74.2218 24.9866C74.2218 23.1922 72.9982 22.0177 71.3384 22.0177ZM71.1895 26.8027C70.2319 26.8027 69.4977 26.0959 69.4977 24.9866C69.4977 23.8774 70.2319 23.1705 71.1895 23.1705C72.147 23.1705 72.8705 23.8774 72.8705 24.9866C72.8705 26.0959 72.147 26.8027 71.1895 26.8027Z" stroke="black" stroke-width="0.4" mask="url(#path-3-outside-1_128_5658)"/>
<path d="M80.86 27.999C82.9029 27.999 83.8711 26.955 83.8711 25.737C83.8711 22.9421 79.4556 23.997 79.4556 22.3766C79.4556 21.8002 79.9237 21.3435 81.0728 21.3435C81.7219 21.3435 82.456 21.5392 83.1263 21.9416L83.5625 20.8432C82.9135 20.4082 81.9772 20.169 81.0835 20.169C79.0406 20.169 78.0831 21.213 78.0831 22.4419C78.0831 25.2694 82.5092 24.1927 82.5092 25.8349C82.5092 26.4004 82.0198 26.8245 80.86 26.8245C79.945 26.8245 78.9981 26.4765 78.4023 25.9871L77.9235 27.0855C78.5406 27.6292 79.7003 27.999 80.86 27.999Z" stroke="black" stroke-width="0.4" mask="url(#path-3-outside-1_128_5658)"/>
<path d="M88.1579 26.607C87.9557 26.7701 87.6897 26.8462 87.4131 26.8462C86.9024 26.8462 86.6258 26.5417 86.6258 25.9762V23.214H88.1472V22.1265H86.6258V20.7997H85.2958V22.1265H84.3595V23.214H85.2958V26.0089C85.2958 27.2921 86.0087 27.9664 87.2535 27.9664C87.7323 27.9664 88.2111 27.8359 88.5303 27.5749L88.1579 26.607Z" stroke="black" stroke-width="0.4" mask="url(#path-3-outside-1_128_5658)"/>
<path d="M91.9908 27.9664C93.757 27.9664 95.0231 26.7266 95.0231 24.9866C95.0231 23.2466 93.757 22.0177 91.9908 22.0177C90.2459 22.0177 88.9692 23.2466 88.9692 24.9866C88.9692 26.7266 90.2459 27.9664 91.9908 27.9664ZM91.9908 26.8027C91.0333 26.8027 90.3098 26.0959 90.3098 24.9866C90.3098 23.8774 91.0333 23.1705 91.9908 23.1705C92.959 23.1705 93.6825 23.8774 93.6825 24.9866C93.6825 26.0959 92.959 26.8027 91.9908 26.8027Z" stroke="black" stroke-width="0.4" mask="url(#path-3-outside-1_128_5658)"/>
<path d="M97.561 22.9312V22.083H96.2949V27.8902H97.6249V25.0736C97.6249 23.8882 98.2633 23.2792 99.274 23.2792C99.3698 23.2792 99.4656 23.2901 99.5826 23.3119V22.0177C98.6357 22.0177 97.9441 22.3222 97.561 22.9312Z" stroke="black" stroke-width="0.4" mask="url(#path-3-outside-1_128_5658)"/>
<path d="M106 25.0192C106 23.2031 104.787 22.0177 103.127 22.0177C101.436 22.0177 100.191 23.2575 100.191 24.9866C100.191 26.7157 101.425 27.9664 103.329 27.9664C104.308 27.9664 105.106 27.6401 105.617 27.0202L104.904 26.1829C104.5 26.607 104 26.8136 103.361 26.8136C102.372 26.8136 101.68 26.2699 101.521 25.4216H105.979C105.989 25.2911 106 25.128 106 25.0192ZM103.127 23.1052C104 23.1052 104.627 23.6816 104.734 24.519H101.51C101.638 23.6707 102.265 23.1052 103.127 23.1052Z" stroke="black" stroke-width="0.4" mask="url(#path-3-outside-1_128_5658)"/>
</svg>
