<svg width="208" height="72" viewBox="0 0 208 72" fill="none" xmlns="http://www.w3.org/2000/svg">
<g filter="url(#filter0_d_122_5639)">
<rect x="4" width="199.296" height="63.5038" rx="31.7519" fill="white" shape-rendering="crispEdges"/>
<rect x="4.5" y="0.5" width="198.296" height="62.5038" rx="31.2519" stroke="white" shape-rendering="crispEdges"/>
<path d="M52.651 15C52.9836 16.8018 52.1521 18.6036 51.1543 19.914C50.1564 21.2244 48.3271 22.371 46.4977 22.2072C46.1651 20.4054 46.9967 18.7674 47.9945 17.457C49.1586 16.1466 50.988 15.1638 52.651 15ZM57.9728 43.5013C58.8043 42.1909 59.3032 41.3719 59.9684 39.8977C54.813 37.9321 53.9814 30.7249 59.1369 28.1041C57.6401 26.1384 55.4782 25.1556 53.3162 25.1556C51.8195 25.1556 50.8217 25.4832 49.8238 25.8108C48.9923 26.1384 48.3271 26.3022 47.4956 26.3022C46.4978 26.3022 45.8325 25.9746 44.8347 25.647C43.8369 25.3194 42.8391 24.9918 41.6749 24.9918C39.3467 24.9918 36.8521 26.3022 35.3554 28.7593C33.1934 32.0353 33.526 38.4235 37.0184 43.6651C38.5151 45.6307 40.1782 47.7601 42.3401 47.7601C43.338 47.7601 43.8369 47.4325 44.5021 47.2687C45.3336 46.9411 46.1651 46.6135 47.4956 46.6135C48.9923 46.6135 49.6575 46.9411 50.4891 47.2687C51.1543 47.5963 51.6532 47.7601 52.651 47.7601C54.9793 47.7601 56.6423 45.3031 57.9728 43.5013Z" fill="black" stroke="black" stroke-width="2" stroke-miterlimit="10" stroke-linecap="round" stroke-linejoin="round"/>
<mask id="path-4-outside-1_122_5639" maskUnits="userSpaceOnUse" x="74.9688" y="14" width="99" height="35" fill="black">
<rect fill="white" x="74.9688" y="14" width="99" height="35"/>
<path d="M78.7831 22.4109H81.6297C83.8669 22.4109 85.3751 20.9727 85.3751 18.9152C85.3751 16.8577 83.8669 15.4195 81.6297 15.4195H78.7831V22.4109ZM79.5222 21.7717V16.0587H81.5897C83.4474 16.0587 84.646 17.2373 84.646 18.9152C84.646 20.5932 83.4474 21.7717 81.5897 21.7717H79.5222Z"/>
<path d="M89.0323 22.4609C90.5704 22.4609 91.6991 21.3422 91.6991 19.7841C91.6991 18.2261 90.5704 17.1174 89.0323 17.1174C87.4942 17.1174 86.3556 18.2261 86.3556 19.7841C86.3556 21.3422 87.4942 22.4609 89.0323 22.4609ZM89.0323 21.8316C87.9137 21.8316 87.0747 21.0126 87.0747 19.7841C87.0747 18.5557 87.9137 17.7367 89.0323 17.7367C90.151 17.7367 90.9799 18.5557 90.9799 19.7841C90.9799 21.0126 90.151 21.8316 89.0323 21.8316Z"/>
<path d="M100.062 17.1574L98.3939 21.6219L96.716 17.1574H96.1067L94.4188 21.6219L92.7708 17.1574H92.0916L94.0692 22.4109H94.7384L96.3964 18.1062L98.0543 22.4109H98.7235L100.711 17.1574H100.062Z"/>
<path d="M104.456 17.1174C103.547 17.1174 102.838 17.487 102.458 18.1262V17.1574H101.779V22.4109H102.488V19.6543C102.488 18.4558 103.197 17.7566 104.326 17.7566C105.324 17.7566 105.904 18.3259 105.904 19.4346V22.4109H106.613V19.3647C106.613 17.8565 105.734 17.1174 104.456 17.1174Z"/>
<path d="M108.538 22.4109H109.247V15H108.538V22.4109Z"/>
<path d="M113.368 22.4609C114.906 22.4609 116.035 21.3422 116.035 19.7841C116.035 18.2261 114.906 17.1174 113.368 17.1174C111.83 17.1174 110.691 18.2261 110.691 19.7841C110.691 21.3422 111.83 22.4609 113.368 22.4609ZM113.368 21.8316C112.249 21.8316 111.41 21.0126 111.41 19.7841C111.41 18.5557 112.249 17.7367 113.368 17.7367C114.486 17.7367 115.315 18.5557 115.315 19.7841C115.315 21.0126 114.486 21.8316 113.368 21.8316Z"/>
<path d="M119.291 17.1174C118.462 17.1174 117.683 17.3771 117.153 17.8265L117.473 18.3559C117.902 17.9764 118.542 17.7367 119.221 17.7367C120.2 17.7367 120.709 18.2261 120.709 19.125V19.4446H119.041C117.533 19.4446 117.014 20.1237 117.014 20.9327C117.014 21.8416 117.743 22.4609 118.931 22.4609C119.8 22.4609 120.419 22.1313 120.739 21.5919V22.4109H121.418V19.1549C121.418 17.7966 120.649 17.1174 119.291 17.1174ZM119.041 21.9016C118.202 21.9016 117.713 21.522 117.713 20.9128C117.713 20.3734 118.042 19.9739 119.061 19.9739H120.709V20.8329C120.429 21.522 119.84 21.9016 119.041 21.9016Z"/>
<path d="M127.449 15V18.1561C127.009 17.477 126.29 17.1174 125.451 17.1174C123.953 17.1174 122.834 18.1961 122.834 19.7841C122.834 21.3722 123.953 22.4609 125.451 22.4609C126.32 22.4609 127.049 22.0813 127.479 21.3722V22.4109H128.158V15H127.449ZM125.511 21.8316C124.392 21.8316 123.554 21.0126 123.554 19.7841C123.554 18.5557 124.392 17.7367 125.511 17.7367C126.62 17.7367 127.459 18.5557 127.459 19.7841C127.459 21.0126 126.62 21.8316 125.511 21.8316Z"/>
<path d="M135.953 22.4709C138.05 22.4709 139.618 20.9627 139.618 18.9152C139.618 16.8677 138.05 15.3596 135.953 15.3596C133.835 15.3596 132.277 16.8777 132.277 18.9152C132.277 20.9527 133.835 22.4709 135.953 22.4709ZM135.953 21.8117C134.265 21.8117 133.006 20.5832 133.006 18.9152C133.006 17.2473 134.265 16.0188 135.953 16.0188C137.631 16.0188 138.879 17.2473 138.879 18.9152C138.879 20.5832 137.631 21.8117 135.953 21.8117Z"/>
<path d="M143.802 17.1174C142.893 17.1174 142.184 17.487 141.804 18.1262V17.1574H141.125V22.4109H141.834V19.6543C141.834 18.4558 142.543 17.7566 143.672 17.7566C144.671 17.7566 145.25 18.3259 145.25 19.4346V22.4109H145.959V19.3647C145.959 17.8565 145.08 17.1174 143.802 17.1174Z"/>
<path d="M152.007 22.4109H152.746V16.0587H155.203V15.4195H149.55V16.0587H152.007V22.4109Z"/>
<path d="M158.91 17.1174C158.021 17.1174 157.332 17.467 156.943 18.0762V15H156.234V22.4109H156.943V19.6543C156.943 18.4558 157.652 17.7566 158.781 17.7566C159.779 17.7566 160.359 18.3259 160.359 19.4346V22.4109H161.068V19.3647C161.068 17.8565 160.189 17.1174 158.91 17.1174Z"/>
<path d="M167.597 19.7841C167.597 18.2061 166.528 17.1174 165.05 17.1174C163.572 17.1174 162.483 18.2261 162.483 19.7841C162.483 21.3422 163.602 22.4609 165.24 22.4609C166.069 22.4609 166.798 22.1612 167.267 21.6019L166.868 21.1425C166.468 21.6019 165.899 21.8316 165.26 21.8316C164.111 21.8316 163.272 21.1025 163.192 20.0039H167.587C167.587 19.924 167.597 19.8441 167.597 19.7841ZM165.05 17.7267C166.079 17.7267 166.828 18.4458 166.918 19.4745H163.192C163.282 18.4458 164.031 17.7267 165.05 17.7267Z"/>
<path d="M87.9157 44.7836H90.5237L84.464 31.36H82.0094L75.9688 44.7836H78.5384L79.8616 41.677H86.5734L87.9157 44.7836ZM80.7054 39.721L83.2175 33.8529L85.7488 39.721H80.7054Z"/>
<path d="M97.677 34.4282C96.2771 34.4282 95.0882 34.9076 94.2828 35.8856V34.5433H92.0008V48.5038H94.3979V43.5371C95.2224 44.4767 96.373 44.9178 97.677 44.9178C100.669 44.9178 102.874 42.8467 102.874 39.6634C102.874 36.4993 100.669 34.4282 97.677 34.4282ZM97.4086 42.8659C95.6827 42.8659 94.3595 41.6194 94.3595 39.6634C94.3595 37.7074 95.6827 36.4609 97.4086 36.4609C99.1345 36.4609 100.438 37.7074 100.438 39.6634C100.438 41.6194 99.1345 42.8659 97.4086 42.8659Z"/>
<path d="M110.823 34.4282C109.424 34.4282 108.235 34.9076 107.429 35.8856V34.5433H105.147V48.5038H107.544V43.5371C108.369 44.4767 109.519 44.9178 110.823 44.9178C113.815 44.9178 116.02 42.8467 116.02 39.6634C116.02 36.4993 113.815 34.4282 110.823 34.4282ZM110.555 42.8659C108.829 42.8659 107.506 41.6194 107.506 39.6634C107.506 37.7074 108.829 36.4609 110.555 36.4609C112.281 36.4609 113.585 37.7074 113.585 39.6634C113.585 41.6194 112.281 42.8659 110.555 42.8659Z"/>
<path d="M127.985 44.9753C131.667 44.9753 133.412 43.1344 133.412 40.9866C133.412 36.0582 125.453 37.9184 125.453 35.0611C125.453 34.0447 126.297 33.2393 128.368 33.2393C129.538 33.2393 130.861 33.5845 132.069 34.294L132.856 32.3572C131.686 31.5901 129.998 31.1682 128.388 31.1682C124.706 31.1682 122.98 33.0092 122.98 35.1761C122.98 40.162 130.957 38.2635 130.957 41.1592C130.957 42.1564 130.075 42.9043 127.985 42.9043C126.336 42.9043 124.629 42.2906 123.555 41.4277L122.692 43.3645C123.804 44.3233 125.895 44.9753 127.985 44.9753Z"/>
<path d="M141.138 42.5207C140.774 42.8084 140.294 42.9426 139.796 42.9426C138.875 42.9426 138.377 42.4057 138.377 41.4085V36.5377H141.119V34.62H138.377V32.2805H135.98V34.62H134.292V36.5377H135.98V41.466C135.98 43.7289 137.264 44.9178 139.508 44.9178C140.371 44.9178 141.234 44.6877 141.809 44.2274L141.138 42.5207Z"/>
<path d="M148.046 44.9178C151.23 44.9178 153.512 42.7317 153.512 39.6634C153.512 36.5952 151.23 34.4282 148.046 34.4282C144.901 34.4282 142.6 36.5952 142.6 39.6634C142.6 42.7317 144.901 44.9178 148.046 44.9178ZM148.046 42.8659C146.321 42.8659 145.017 41.6194 145.017 39.6634C145.017 37.7074 146.321 36.4609 148.046 36.4609C149.792 36.4609 151.096 37.7074 151.096 39.6634C151.096 41.6194 149.792 42.8659 148.046 42.8659Z"/>
<path d="M158.086 36.0391V34.5433H155.804V44.7836H158.201V39.8168C158.201 37.7266 159.352 36.6527 161.173 36.6527C161.346 36.6527 161.519 36.6719 161.73 36.7102V34.4282C160.023 34.4282 158.776 34.9652 158.086 36.0391Z"/>
<path d="M173.296 39.721C173.296 36.5185 171.11 34.4282 168.118 34.4282C165.069 34.4282 162.826 36.6144 162.826 39.6634C162.826 42.7125 165.05 44.9178 168.483 44.9178C170.247 44.9178 171.685 44.3425 172.606 43.2494L171.321 41.7728C170.592 42.5207 169.691 42.8851 168.54 42.8851C166.757 42.8851 165.51 41.9263 165.223 40.4305H173.258C173.277 40.2004 173.296 39.9127 173.296 39.721ZM168.118 36.3459C169.691 36.3459 170.822 37.3622 171.014 38.8388H165.203C165.434 37.3431 166.565 36.3459 168.118 36.3459Z"/>
</mask>
<path d="M78.7831 22.4109H81.6297C83.8669 22.4109 85.3751 20.9727 85.3751 18.9152C85.3751 16.8577 83.8669 15.4195 81.6297 15.4195H78.7831V22.4109ZM79.5222 21.7717V16.0587H81.5897C83.4474 16.0587 84.646 17.2373 84.646 18.9152C84.646 20.5932 83.4474 21.7717 81.5897 21.7717H79.5222Z" fill="black"/>
<path d="M89.0323 22.4609C90.5704 22.4609 91.6991 21.3422 91.6991 19.7841C91.6991 18.2261 90.5704 17.1174 89.0323 17.1174C87.4942 17.1174 86.3556 18.2261 86.3556 19.7841C86.3556 21.3422 87.4942 22.4609 89.0323 22.4609ZM89.0323 21.8316C87.9137 21.8316 87.0747 21.0126 87.0747 19.7841C87.0747 18.5557 87.9137 17.7367 89.0323 17.7367C90.151 17.7367 90.9799 18.5557 90.9799 19.7841C90.9799 21.0126 90.151 21.8316 89.0323 21.8316Z" fill="black"/>
<path d="M100.062 17.1574L98.3939 21.6219L96.716 17.1574H96.1067L94.4188 21.6219L92.7708 17.1574H92.0916L94.0692 22.4109H94.7384L96.3964 18.1062L98.0543 22.4109H98.7235L100.711 17.1574H100.062Z" fill="black"/>
<path d="M104.456 17.1174C103.547 17.1174 102.838 17.487 102.458 18.1262V17.1574H101.779V22.4109H102.488V19.6543C102.488 18.4558 103.197 17.7566 104.326 17.7566C105.324 17.7566 105.904 18.3259 105.904 19.4346V22.4109H106.613V19.3647C106.613 17.8565 105.734 17.1174 104.456 17.1174Z" fill="black"/>
<path d="M108.538 22.4109H109.247V15H108.538V22.4109Z" fill="black"/>
<path d="M113.368 22.4609C114.906 22.4609 116.035 21.3422 116.035 19.7841C116.035 18.2261 114.906 17.1174 113.368 17.1174C111.83 17.1174 110.691 18.2261 110.691 19.7841C110.691 21.3422 111.83 22.4609 113.368 22.4609ZM113.368 21.8316C112.249 21.8316 111.41 21.0126 111.41 19.7841C111.41 18.5557 112.249 17.7367 113.368 17.7367C114.486 17.7367 115.315 18.5557 115.315 19.7841C115.315 21.0126 114.486 21.8316 113.368 21.8316Z" fill="black"/>
<path d="M119.291 17.1174C118.462 17.1174 117.683 17.3771 117.153 17.8265L117.473 18.3559C117.902 17.9764 118.542 17.7367 119.221 17.7367C120.2 17.7367 120.709 18.2261 120.709 19.125V19.4446H119.041C117.533 19.4446 117.014 20.1237 117.014 20.9327C117.014 21.8416 117.743 22.4609 118.931 22.4609C119.8 22.4609 120.419 22.1313 120.739 21.5919V22.4109H121.418V19.1549C121.418 17.7966 120.649 17.1174 119.291 17.1174ZM119.041 21.9016C118.202 21.9016 117.713 21.522 117.713 20.9128C117.713 20.3734 118.042 19.9739 119.061 19.9739H120.709V20.8329C120.429 21.522 119.84 21.9016 119.041 21.9016Z" fill="black"/>
<path d="M127.449 15V18.1561C127.009 17.477 126.29 17.1174 125.451 17.1174C123.953 17.1174 122.834 18.1961 122.834 19.7841C122.834 21.3722 123.953 22.4609 125.451 22.4609C126.32 22.4609 127.049 22.0813 127.479 21.3722V22.4109H128.158V15H127.449ZM125.511 21.8316C124.392 21.8316 123.554 21.0126 123.554 19.7841C123.554 18.5557 124.392 17.7367 125.511 17.7367C126.62 17.7367 127.459 18.5557 127.459 19.7841C127.459 21.0126 126.62 21.8316 125.511 21.8316Z" fill="black"/>
<path d="M135.953 22.4709C138.05 22.4709 139.618 20.9627 139.618 18.9152C139.618 16.8677 138.05 15.3596 135.953 15.3596C133.835 15.3596 132.277 16.8777 132.277 18.9152C132.277 20.9527 133.835 22.4709 135.953 22.4709ZM135.953 21.8117C134.265 21.8117 133.006 20.5832 133.006 18.9152C133.006 17.2473 134.265 16.0188 135.953 16.0188C137.631 16.0188 138.879 17.2473 138.879 18.9152C138.879 20.5832 137.631 21.8117 135.953 21.8117Z" fill="black"/>
<path d="M143.802 17.1174C142.893 17.1174 142.184 17.487 141.804 18.1262V17.1574H141.125V22.4109H141.834V19.6543C141.834 18.4558 142.543 17.7566 143.672 17.7566C144.671 17.7566 145.25 18.3259 145.25 19.4346V22.4109H145.959V19.3647C145.959 17.8565 145.08 17.1174 143.802 17.1174Z" fill="black"/>
<path d="M152.007 22.4109H152.746V16.0587H155.203V15.4195H149.55V16.0587H152.007V22.4109Z" fill="black"/>
<path d="M158.91 17.1174C158.021 17.1174 157.332 17.467 156.943 18.0762V15H156.234V22.4109H156.943V19.6543C156.943 18.4558 157.652 17.7566 158.781 17.7566C159.779 17.7566 160.359 18.3259 160.359 19.4346V22.4109H161.068V19.3647C161.068 17.8565 160.189 17.1174 158.91 17.1174Z" fill="black"/>
<path d="M167.597 19.7841C167.597 18.2061 166.528 17.1174 165.05 17.1174C163.572 17.1174 162.483 18.2261 162.483 19.7841C162.483 21.3422 163.602 22.4609 165.24 22.4609C166.069 22.4609 166.798 22.1612 167.267 21.6019L166.868 21.1425C166.468 21.6019 165.899 21.8316 165.26 21.8316C164.111 21.8316 163.272 21.1025 163.192 20.0039H167.587C167.587 19.924 167.597 19.8441 167.597 19.7841ZM165.05 17.7267C166.079 17.7267 166.828 18.4458 166.918 19.4745H163.192C163.282 18.4458 164.031 17.7267 165.05 17.7267Z" fill="black"/>
<path d="M87.9157 44.7836H90.5237L84.464 31.36H82.0094L75.9688 44.7836H78.5384L79.8616 41.677H86.5734L87.9157 44.7836ZM80.7054 39.721L83.2175 33.8529L85.7488 39.721H80.7054Z" fill="black"/>
<path d="M97.677 34.4282C96.2771 34.4282 95.0882 34.9076 94.2828 35.8856V34.5433H92.0008V48.5038H94.3979V43.5371C95.2224 44.4767 96.373 44.9178 97.677 44.9178C100.669 44.9178 102.874 42.8467 102.874 39.6634C102.874 36.4993 100.669 34.4282 97.677 34.4282ZM97.4086 42.8659C95.6827 42.8659 94.3595 41.6194 94.3595 39.6634C94.3595 37.7074 95.6827 36.4609 97.4086 36.4609C99.1345 36.4609 100.438 37.7074 100.438 39.6634C100.438 41.6194 99.1345 42.8659 97.4086 42.8659Z" fill="black"/>
<path d="M110.823 34.4282C109.424 34.4282 108.235 34.9076 107.429 35.8856V34.5433H105.147V48.5038H107.544V43.5371C108.369 44.4767 109.519 44.9178 110.823 44.9178C113.815 44.9178 116.02 42.8467 116.02 39.6634C116.02 36.4993 113.815 34.4282 110.823 34.4282ZM110.555 42.8659C108.829 42.8659 107.506 41.6194 107.506 39.6634C107.506 37.7074 108.829 36.4609 110.555 36.4609C112.281 36.4609 113.585 37.7074 113.585 39.6634C113.585 41.6194 112.281 42.8659 110.555 42.8659Z" fill="black"/>
<path d="M127.985 44.9753C131.667 44.9753 133.412 43.1344 133.412 40.9866C133.412 36.0582 125.453 37.9184 125.453 35.0611C125.453 34.0447 126.297 33.2393 128.368 33.2393C129.538 33.2393 130.861 33.5845 132.069 34.294L132.856 32.3572C131.686 31.5901 129.998 31.1682 128.388 31.1682C124.706 31.1682 122.98 33.0092 122.98 35.1761C122.98 40.162 130.957 38.2635 130.957 41.1592C130.957 42.1564 130.075 42.9043 127.985 42.9043C126.336 42.9043 124.629 42.2906 123.555 41.4277L122.692 43.3645C123.804 44.3233 125.895 44.9753 127.985 44.9753Z" fill="black"/>
<path d="M141.138 42.5207C140.774 42.8084 140.294 42.9426 139.796 42.9426C138.875 42.9426 138.377 42.4057 138.377 41.4085V36.5377H141.119V34.62H138.377V32.2805H135.98V34.62H134.292V36.5377H135.98V41.466C135.98 43.7289 137.264 44.9178 139.508 44.9178C140.371 44.9178 141.234 44.6877 141.809 44.2274L141.138 42.5207Z" fill="black"/>
<path d="M148.046 44.9178C151.23 44.9178 153.512 42.7317 153.512 39.6634C153.512 36.5952 151.23 34.4282 148.046 34.4282C144.901 34.4282 142.6 36.5952 142.6 39.6634C142.6 42.7317 144.901 44.9178 148.046 44.9178ZM148.046 42.8659C146.321 42.8659 145.017 41.6194 145.017 39.6634C145.017 37.7074 146.321 36.4609 148.046 36.4609C149.792 36.4609 151.096 37.7074 151.096 39.6634C151.096 41.6194 149.792 42.8659 148.046 42.8659Z" fill="black"/>
<path d="M158.086 36.0391V34.5433H155.804V44.7836H158.201V39.8168C158.201 37.7266 159.352 36.6527 161.173 36.6527C161.346 36.6527 161.519 36.6719 161.73 36.7102V34.4282C160.023 34.4282 158.776 34.9652 158.086 36.0391Z" fill="black"/>
<path d="M173.296 39.721C173.296 36.5185 171.11 34.4282 168.118 34.4282C165.069 34.4282 162.826 36.6144 162.826 39.6634C162.826 42.7125 165.05 44.9178 168.483 44.9178C170.247 44.9178 171.685 44.3425 172.606 43.2494L171.321 41.7728C170.592 42.5207 169.691 42.8851 168.54 42.8851C166.757 42.8851 165.51 41.9263 165.223 40.4305H173.258C173.277 40.2004 173.296 39.9127 173.296 39.721ZM168.118 36.3459C169.691 36.3459 170.822 37.3622 171.014 38.8388H165.203C165.434 37.3431 166.565 36.3459 168.118 36.3459Z" fill="black"/>
<path d="M78.7831 22.4109H81.6297C83.8669 22.4109 85.3751 20.9727 85.3751 18.9152C85.3751 16.8577 83.8669 15.4195 81.6297 15.4195H78.7831V22.4109ZM79.5222 21.7717V16.0587H81.5897C83.4474 16.0587 84.646 17.2373 84.646 18.9152C84.646 20.5932 83.4474 21.7717 81.5897 21.7717H79.5222Z" stroke="black" stroke-width="0.4" mask="url(#path-4-outside-1_122_5639)"/>
<path d="M89.0323 22.4609C90.5704 22.4609 91.6991 21.3422 91.6991 19.7841C91.6991 18.2261 90.5704 17.1174 89.0323 17.1174C87.4942 17.1174 86.3556 18.2261 86.3556 19.7841C86.3556 21.3422 87.4942 22.4609 89.0323 22.4609ZM89.0323 21.8316C87.9137 21.8316 87.0747 21.0126 87.0747 19.7841C87.0747 18.5557 87.9137 17.7367 89.0323 17.7367C90.151 17.7367 90.9799 18.5557 90.9799 19.7841C90.9799 21.0126 90.151 21.8316 89.0323 21.8316Z" stroke="black" stroke-width="0.4" mask="url(#path-4-outside-1_122_5639)"/>
<path d="M100.062 17.1574L98.3939 21.6219L96.716 17.1574H96.1067L94.4188 21.6219L92.7708 17.1574H92.0916L94.0692 22.4109H94.7384L96.3964 18.1062L98.0543 22.4109H98.7235L100.711 17.1574H100.062Z" stroke="black" stroke-width="0.4" mask="url(#path-4-outside-1_122_5639)"/>
<path d="M104.456 17.1174C103.547 17.1174 102.838 17.487 102.458 18.1262V17.1574H101.779V22.4109H102.488V19.6543C102.488 18.4558 103.197 17.7566 104.326 17.7566C105.324 17.7566 105.904 18.3259 105.904 19.4346V22.4109H106.613V19.3647C106.613 17.8565 105.734 17.1174 104.456 17.1174Z" stroke="black" stroke-width="0.4" mask="url(#path-4-outside-1_122_5639)"/>
<path d="M108.538 22.4109H109.247V15H108.538V22.4109Z" stroke="black" stroke-width="0.4" mask="url(#path-4-outside-1_122_5639)"/>
<path d="M113.368 22.4609C114.906 22.4609 116.035 21.3422 116.035 19.7841C116.035 18.2261 114.906 17.1174 113.368 17.1174C111.83 17.1174 110.691 18.2261 110.691 19.7841C110.691 21.3422 111.83 22.4609 113.368 22.4609ZM113.368 21.8316C112.249 21.8316 111.41 21.0126 111.41 19.7841C111.41 18.5557 112.249 17.7367 113.368 17.7367C114.486 17.7367 115.315 18.5557 115.315 19.7841C115.315 21.0126 114.486 21.8316 113.368 21.8316Z" stroke="black" stroke-width="0.4" mask="url(#path-4-outside-1_122_5639)"/>
<path d="M119.291 17.1174C118.462 17.1174 117.683 17.3771 117.153 17.8265L117.473 18.3559C117.902 17.9764 118.542 17.7367 119.221 17.7367C120.2 17.7367 120.709 18.2261 120.709 19.125V19.4446H119.041C117.533 19.4446 117.014 20.1237 117.014 20.9327C117.014 21.8416 117.743 22.4609 118.931 22.4609C119.8 22.4609 120.419 22.1313 120.739 21.5919V22.4109H121.418V19.1549C121.418 17.7966 120.649 17.1174 119.291 17.1174ZM119.041 21.9016C118.202 21.9016 117.713 21.522 117.713 20.9128C117.713 20.3734 118.042 19.9739 119.061 19.9739H120.709V20.8329C120.429 21.522 119.84 21.9016 119.041 21.9016Z" stroke="black" stroke-width="0.4" mask="url(#path-4-outside-1_122_5639)"/>
<path d="M127.449 15V18.1561C127.009 17.477 126.29 17.1174 125.451 17.1174C123.953 17.1174 122.834 18.1961 122.834 19.7841C122.834 21.3722 123.953 22.4609 125.451 22.4609C126.32 22.4609 127.049 22.0813 127.479 21.3722V22.4109H128.158V15H127.449ZM125.511 21.8316C124.392 21.8316 123.554 21.0126 123.554 19.7841C123.554 18.5557 124.392 17.7367 125.511 17.7367C126.62 17.7367 127.459 18.5557 127.459 19.7841C127.459 21.0126 126.62 21.8316 125.511 21.8316Z" stroke="black" stroke-width="0.4" mask="url(#path-4-outside-1_122_5639)"/>
<path d="M135.953 22.4709C138.05 22.4709 139.618 20.9627 139.618 18.9152C139.618 16.8677 138.05 15.3596 135.953 15.3596C133.835 15.3596 132.277 16.8777 132.277 18.9152C132.277 20.9527 133.835 22.4709 135.953 22.4709ZM135.953 21.8117C134.265 21.8117 133.006 20.5832 133.006 18.9152C133.006 17.2473 134.265 16.0188 135.953 16.0188C137.631 16.0188 138.879 17.2473 138.879 18.9152C138.879 20.5832 137.631 21.8117 135.953 21.8117Z" stroke="black" stroke-width="0.4" mask="url(#path-4-outside-1_122_5639)"/>
<path d="M143.802 17.1174C142.893 17.1174 142.184 17.487 141.804 18.1262V17.1574H141.125V22.4109H141.834V19.6543C141.834 18.4558 142.543 17.7566 143.672 17.7566C144.671 17.7566 145.25 18.3259 145.25 19.4346V22.4109H145.959V19.3647C145.959 17.8565 145.08 17.1174 143.802 17.1174Z" stroke="black" stroke-width="0.4" mask="url(#path-4-outside-1_122_5639)"/>
<path d="M152.007 22.4109H152.746V16.0587H155.203V15.4195H149.55V16.0587H152.007V22.4109Z" stroke="black" stroke-width="0.4" mask="url(#path-4-outside-1_122_5639)"/>
<path d="M158.91 17.1174C158.021 17.1174 157.332 17.467 156.943 18.0762V15H156.234V22.4109H156.943V19.6543C156.943 18.4558 157.652 17.7566 158.781 17.7566C159.779 17.7566 160.359 18.3259 160.359 19.4346V22.4109H161.068V19.3647C161.068 17.8565 160.189 17.1174 158.91 17.1174Z" stroke="black" stroke-width="0.4" mask="url(#path-4-outside-1_122_5639)"/>
<path d="M167.597 19.7841C167.597 18.2061 166.528 17.1174 165.05 17.1174C163.572 17.1174 162.483 18.2261 162.483 19.7841C162.483 21.3422 163.602 22.4609 165.24 22.4609C166.069 22.4609 166.798 22.1612 167.267 21.6019L166.868 21.1425C166.468 21.6019 165.899 21.8316 165.26 21.8316C164.111 21.8316 163.272 21.1025 163.192 20.0039H167.587C167.587 19.924 167.597 19.8441 167.597 19.7841ZM165.05 17.7267C166.079 17.7267 166.828 18.4458 166.918 19.4745H163.192C163.282 18.4458 164.031 17.7267 165.05 17.7267Z" stroke="black" stroke-width="0.4" mask="url(#path-4-outside-1_122_5639)"/>
<path d="M87.9157 44.7836H90.5237L84.464 31.36H82.0094L75.9688 44.7836H78.5384L79.8616 41.677H86.5734L87.9157 44.7836ZM80.7054 39.721L83.2175 33.8529L85.7488 39.721H80.7054Z" stroke="black" stroke-width="0.4" mask="url(#path-4-outside-1_122_5639)"/>
<path d="M97.677 34.4282C96.2771 34.4282 95.0882 34.9076 94.2828 35.8856V34.5433H92.0008V48.5038H94.3979V43.5371C95.2224 44.4767 96.373 44.9178 97.677 44.9178C100.669 44.9178 102.874 42.8467 102.874 39.6634C102.874 36.4993 100.669 34.4282 97.677 34.4282ZM97.4086 42.8659C95.6827 42.8659 94.3595 41.6194 94.3595 39.6634C94.3595 37.7074 95.6827 36.4609 97.4086 36.4609C99.1345 36.4609 100.438 37.7074 100.438 39.6634C100.438 41.6194 99.1345 42.8659 97.4086 42.8659Z" stroke="black" stroke-width="0.4" mask="url(#path-4-outside-1_122_5639)"/>
<path d="M110.823 34.4282C109.424 34.4282 108.235 34.9076 107.429 35.8856V34.5433H105.147V48.5038H107.544V43.5371C108.369 44.4767 109.519 44.9178 110.823 44.9178C113.815 44.9178 116.02 42.8467 116.02 39.6634C116.02 36.4993 113.815 34.4282 110.823 34.4282ZM110.555 42.8659C108.829 42.8659 107.506 41.6194 107.506 39.6634C107.506 37.7074 108.829 36.4609 110.555 36.4609C112.281 36.4609 113.585 37.7074 113.585 39.6634C113.585 41.6194 112.281 42.8659 110.555 42.8659Z" stroke="black" stroke-width="0.4" mask="url(#path-4-outside-1_122_5639)"/>
<path d="M127.985 44.9753C131.667 44.9753 133.412 43.1344 133.412 40.9866C133.412 36.0582 125.453 37.9184 125.453 35.0611C125.453 34.0447 126.297 33.2393 128.368 33.2393C129.538 33.2393 130.861 33.5845 132.069 34.294L132.856 32.3572C131.686 31.5901 129.998 31.1682 128.388 31.1682C124.706 31.1682 122.98 33.0092 122.98 35.1761C122.98 40.162 130.957 38.2635 130.957 41.1592C130.957 42.1564 130.075 42.9043 127.985 42.9043C126.336 42.9043 124.629 42.2906 123.555 41.4277L122.692 43.3645C123.804 44.3233 125.895 44.9753 127.985 44.9753Z" stroke="black" stroke-width="0.4" mask="url(#path-4-outside-1_122_5639)"/>
<path d="M141.138 42.5207C140.774 42.8084 140.294 42.9426 139.796 42.9426C138.875 42.9426 138.377 42.4057 138.377 41.4085V36.5377H141.119V34.62H138.377V32.2805H135.98V34.62H134.292V36.5377H135.98V41.466C135.98 43.7289 137.264 44.9178 139.508 44.9178C140.371 44.9178 141.234 44.6877 141.809 44.2274L141.138 42.5207Z" stroke="black" stroke-width="0.4" mask="url(#path-4-outside-1_122_5639)"/>
<path d="M148.046 44.9178C151.23 44.9178 153.512 42.7317 153.512 39.6634C153.512 36.5952 151.23 34.4282 148.046 34.4282C144.901 34.4282 142.6 36.5952 142.6 39.6634C142.6 42.7317 144.901 44.9178 148.046 44.9178ZM148.046 42.8659C146.321 42.8659 145.017 41.6194 145.017 39.6634C145.017 37.7074 146.321 36.4609 148.046 36.4609C149.792 36.4609 151.096 37.7074 151.096 39.6634C151.096 41.6194 149.792 42.8659 148.046 42.8659Z" stroke="black" stroke-width="0.4" mask="url(#path-4-outside-1_122_5639)"/>
<path d="M158.086 36.0391V34.5433H155.804V44.7836H158.201V39.8168C158.201 37.7266 159.352 36.6527 161.173 36.6527C161.346 36.6527 161.519 36.6719 161.73 36.7102V34.4282C160.023 34.4282 158.776 34.9652 158.086 36.0391Z" stroke="black" stroke-width="0.4" mask="url(#path-4-outside-1_122_5639)"/>
<path d="M173.296 39.721C173.296 36.5185 171.11 34.4282 168.118 34.4282C165.069 34.4282 162.826 36.6144 162.826 39.6634C162.826 42.7125 165.05 44.9178 168.483 44.9178C170.247 44.9178 171.685 44.3425 172.606 43.2494L171.321 41.7728C170.592 42.5207 169.691 42.8851 168.54 42.8851C166.757 42.8851 165.51 41.9263 165.223 40.4305H173.258C173.277 40.2004 173.296 39.9127 173.296 39.721ZM168.118 36.3459C169.691 36.3459 170.822 37.3622 171.014 38.8388H165.203C165.434 37.3431 166.565 36.3459 168.118 36.3459Z" stroke="black" stroke-width="0.4" mask="url(#path-4-outside-1_122_5639)"/>
</g>
<defs>
<filter id="filter0_d_122_5639" x="0" y="0" width="207.297" height="71.5039" filterUnits="userSpaceOnUse" color-interpolation-filters="sRGB">
<feFlood flood-opacity="0" result="BackgroundImageFix"/>
<feColorMatrix in="SourceAlpha" type="matrix" values="0 0 0 0 0 0 0 0 0 0 0 0 0 0 0 0 0 0 127 0" result="hardAlpha"/>
<feOffset dy="4"/>
<feGaussianBlur stdDeviation="2"/>
<feComposite in2="hardAlpha" operator="out"/>
<feColorMatrix type="matrix" values="0 0 0 0 0 0 0 0 0 0 0 0 0 0 0 0 0 0 0.25 0"/>
<feBlend mode="normal" in2="BackgroundImageFix" result="effect1_dropShadow_122_5639"/>
<feBlend mode="normal" in="SourceGraphic" in2="effect1_dropShadow_122_5639" result="shape"/>
</filter>
</defs>
</svg>
