<svg width="58" height="21" viewBox="0 0 58 21" fill="none" xmlns="http://www.w3.org/2000/svg">
<rect width="58" height="21" rx="9" fill="black"/>
<path d="M20.3194 10.14H21.8394C22.6594 10.14 23.1494 9.59 23.1494 8.89C23.1494 8.17 22.6594 7.69 21.8394 7.69H20.3194V10.14ZM20.2994 13.33H22.0594C22.8694 13.33 23.3794 12.78 23.3794 12.06C23.3794 11.35 22.7794 10.83 22.0194 10.83H20.2994V13.33ZM23.0294 10.43V10.45C23.5594 10.67 24.2194 11.16 24.2194 12.07C24.2194 13.19 23.3494 14 22.1094 14H19.7594C19.6494 14 19.5694 13.91 19.5694 13.81V7.19C19.5694 7.09 19.6494 7 19.7594 7H21.9694C23.1894 7 23.9994 7.79 23.9994 8.84C23.9994 9.65 23.4894 10.15 23.0294 10.43ZM25.2598 12.6C25.2598 11.72 25.9198 11.07 27.1098 11.07C27.5998 11.07 28.0998 11.22 28.0998 11.22C28.1098 10.37 27.9998 9.95 27.3398 9.95C26.7098 9.95 26.1798 10.15 25.9698 10.22C25.8498 10.27 25.7898 10.21 25.7498 10.1L25.6498 9.83C25.6098 9.69 25.6798 9.63 25.7898 9.58C26.0198 9.48 26.6198 9.28 27.3798 9.28C28.5598 9.28 28.8098 9.86 28.8098 11.22V13.78C28.8098 13.9 28.7098 14 28.5898 14H28.3998C28.2798 14 28.2398 13.93 28.2098 13.83L28.1198 13.52C27.8798 13.76 27.3998 14.11 26.6898 14.11C25.8798 14.11 25.2598 13.53 25.2598 12.6ZM25.9898 12.6C25.9898 13.07 26.3098 13.44 26.8198 13.44C27.3898 13.44 27.8898 13.12 28.0898 12.82V11.88C27.9398 11.8 27.5698 11.7 27.1098 11.7C26.4698 11.7 25.9898 12.01 25.9898 12.6ZM30.0269 11.7C30.0269 10.34 31.0269 9.28 32.3669 9.28C33.0569 9.28 33.6169 9.55 34.0469 10.04C34.1369 10.15 34.1169 10.28 34.0069 10.37L33.8469 10.52C33.6969 10.65 33.6069 10.55 33.5169 10.45C33.1969 10.09 32.8269 9.95 32.3569 9.95C31.4769 9.95 30.7769 10.73 30.7769 11.69C30.7769 12.67 31.4669 13.44 32.3269 13.44C33.0269 13.44 33.3269 13.08 33.5869 12.78C33.7169 12.63 33.8469 12.67 33.9769 12.8L34.0369 12.86C34.1369 12.96 34.1769 13.06 34.0969 13.18C33.7469 13.69 33.1269 14.11 32.3569 14.11C30.9869 14.11 30.0269 13.09 30.0269 11.7ZM35.3269 13.78V7.22C35.3269 7.11 35.4269 7 35.5469 7H35.8469C35.9569 7 36.0669 7.11 36.0669 7.22V11.13L37.9869 9.52C38.0869 9.43 38.1769 9.38 38.2669 9.38H38.8269C39.0269 9.38 39.0169 9.6 38.9369 9.66L36.8069 11.43L39.0969 13.71C39.1869 13.79 39.1769 14 38.9769 14H38.4069C38.3169 14 38.2269 13.95 38.1769 13.91L36.0669 11.68V13.78C36.0669 13.9 35.9569 14 35.8469 14H35.5469C35.4269 14 35.3269 13.9 35.3269 13.78Z" fill="#FAFAFA"/>
</svg>
