<svg width="16" height="16" viewBox="0 0 16 16" fill="none" xmlns="http://www.w3.org/2000/svg">
<path d="M5.87329 1.33325L3.45996 3.75325" stroke="black" stroke-width="0.8" stroke-miterlimit="10" stroke-linecap="round" stroke-linejoin="round"/>
<path d="M10.126 1.33325L12.5393 3.75325" stroke="black" stroke-width="0.8" stroke-miterlimit="10" stroke-linecap="round" stroke-linejoin="round"/>
<path d="M1.33301 5.23324C1.33301 3.9999 1.99301 3.8999 2.81301 3.8999H13.1863C14.0063 3.8999 14.6663 3.9999 14.6663 5.23324C14.6663 6.66657 14.0063 6.56657 13.1863 6.56657H2.81301C1.99301 6.56657 1.33301 6.66657 1.33301 5.23324Z" stroke="black" stroke-width="0.8"/>
<path d="M6.50586 9.33325V11.6999" stroke="black" stroke-width="0.8" stroke-linecap="round"/>
<path d="M9.57324 9.33325V11.6999" stroke="black" stroke-width="0.8" stroke-linecap="round"/>
<path d="M2.33301 6.6665L3.27301 12.4265C3.48634 13.7198 3.99967 14.6665 5.90634 14.6665H9.92634C11.9997 14.6665 12.3063 13.7598 12.5463 12.5065L13.6663 6.6665" stroke="black" stroke-width="0.8" stroke-linecap="round"/>
</svg>
