<svg width="24" height="29" viewBox="0 0 24 29" fill="none" xmlns="http://www.w3.org/2000/svg">
<path d="M21.4119 11.5579L21.412 11.5586L22.6263 22.5203C22.6263 22.5205 22.6263 22.5207 22.6263 22.5209C22.8175 24.2778 22.6466 25.7653 21.948 26.8021C21.2724 27.8048 20.0218 28.5 17.7666 28.5H5.63633C3.37362 28.5 2.12007 27.8043 1.44478 26.8021C0.746572 25.7659 0.578667 24.279 0.776439 22.5222L0.776537 22.5213L1.99091 11.5586L1.99092 11.5586L1.99124 11.5556C2.14182 10.1171 2.32675 8.97269 2.95169 8.16661C3.54369 7.403 4.62171 6.84375 6.83721 6.84375H16.5522C18.7675 6.84375 19.846 7.4029 20.4398 8.16705C21.0667 8.97387 21.2544 10.1188 21.4119 11.5579Z" stroke="black" stroke-linecap="round" stroke-linejoin="round"/>
<mask id="path-2-inside-1_850_18684" fill="white">
<path d="M6.16211 9.0625V3.77604C6.16211 1.51042 7.54637 0 9.62276 0H13.7755C15.8519 0 17.2362 1.51042 17.2362 3.77604V9.0625"/>
</mask>
<path d="M5.16211 9.0625C5.16211 9.61478 5.60982 10.0625 6.16211 10.0625C6.71439 10.0625 7.16211 9.61478 7.16211 9.0625H5.16211ZM16.2362 9.0625C16.2362 9.61478 16.6839 10.0625 17.2362 10.0625C17.7885 10.0625 18.2362 9.61478 18.2362 9.0625H16.2362ZM7.16211 9.0625V3.77604H5.16211V9.0625H7.16211ZM7.16211 3.77604C7.16211 2.84568 7.4441 2.15806 7.85101 1.71406C8.25068 1.27797 8.83947 1 9.62276 1V-1C8.32966 -1 7.18812 -0.522757 6.37656 0.362764C5.57225 1.24038 5.16211 2.44078 5.16211 3.77604H7.16211ZM9.62276 1H13.7755V-1H9.62276V1ZM13.7755 1C14.5588 1 15.1476 1.27797 15.5473 1.71406C15.9542 2.15806 16.2362 2.84568 16.2362 3.77604H18.2362C18.2362 2.44078 17.826 1.24038 17.0217 0.362764C16.2102 -0.522757 15.0686 -1 13.7755 -1V1ZM16.2362 3.77604V9.0625H18.2362V3.77604H16.2362Z" fill="black" mask="url(#path-2-inside-1_850_18684)"/>
</svg>
