<svg width="16" height="16" viewBox="0 0 16 16" fill="none" xmlns="http://www.w3.org/2000/svg">
<path d="M14.2207 4.93864L10.4457 1.16364C9.65403 0.371973 8.56237 -0.0530272 7.4457 0.00530609L3.27903 0.205306C1.61237 0.280306 0.287365 1.60531 0.204032 3.26364L0.00403206 7.4303C-0.0459679 8.54697 0.370699 9.63864 1.16237 10.4303L4.93737 14.2053C6.48737 15.7553 9.00403 15.7553 10.5624 14.2053L14.2207 10.547C15.779 9.00531 15.779 6.48864 14.2207 4.93864ZM5.61237 8.00531C4.2957 8.00531 3.21237 6.93031 3.21237 5.60531C3.21237 4.28031 4.2957 3.20531 5.61237 3.20531C6.92903 3.20531 8.01237 4.28031 8.01237 5.60531C8.01237 6.93031 6.92903 8.00531 5.61237 8.00531ZM12.304 8.96364L8.9707 12.297C8.8457 12.422 8.68737 12.4803 8.52903 12.4803C8.3707 12.4803 8.21237 12.422 8.08737 12.297C7.8457 12.0553 7.8457 11.6553 8.08737 11.4136L11.4207 8.08031C11.6624 7.83864 12.0624 7.83864 12.304 8.08031C12.5457 8.32197 12.5457 8.72197 12.304 8.96364Z" fill="#584F4F"/>
</svg>
