<svg width="27" height="27" viewBox="0 0 27 27" fill="none" xmlns="http://www.w3.org/2000/svg">
<rect width="27" height="27" rx="13.5" fill="#5C94FF"/>
<path d="M14.625 7.91875V11.3625H17.55C17.775 11.3625 17.8875 11.6 17.8875 11.8375L17.4375 14.0938C17.4375 14.2125 17.2125 14.3313 17.1 14.3313H14.625V23H11.25V14.45H9.3375C9.1125 14.45 9 14.3313 9 14.0938V11.8375C9 11.6 9.1125 11.4813 9.3375 11.4813H11.25V7.5625C11.25 5.54375 12.7125 4 14.625 4H17.6625C17.8875 4 18 4.11875 18 4.35625V7.20625C18 7.44375 17.8875 7.5625 17.6625 7.5625H14.9625C14.7375 7.5625 14.625 7.68125 14.625 7.91875Z" fill="white"/>
</svg>
