<svg width="207" height="70" viewBox="0 0 207 70" fill="none" xmlns="http://www.w3.org/2000/svg">
<g filter="url(#filter0_d_119_5637)">
<rect x="4.5" y="0.5" width="198" height="61" rx="30.5" stroke="white" shape-rendering="crispEdges"/>
<path d="M61.3665 36.0213L55.9565 38.7418L52.1094 34.9568L55.9565 31.1719L61.3665 33.774C62.3283 34.2471 62.3283 35.6665 61.3665 36.0213Z" stroke="white" stroke-width="2" stroke-miterlimit="10" stroke-linecap="round" stroke-linejoin="round"/>
<path d="M55.8925 31.0826L52.0498 34.9334L40.5218 46.4859L39.8013 46.8469C38.9607 47.3282 38 46.6062 38 45.6435V24.2233C38 23.2606 38.9607 22.6589 39.8013 23.02L55.8925 31.0826Z" stroke="white" stroke-width="2" stroke-miterlimit="10" stroke-linecap="round" stroke-linejoin="round"/>
<path d="M52.1087 34.9569L40.7539 46.3117L55.8937 38.7418L52.1087 34.9569ZM52.1087 34.9569L40.7539 23.6021" stroke="white" stroke-width="2" stroke-miterlimit="10" stroke-linecap="round" stroke-linejoin="round"/>
<path d="M84.4159 24.1511H84.8728L82.1977 18.3482H81.774L79.0989 24.1511H79.5558L80.2952 22.518H83.6682L84.4159 24.1511ZM80.4614 22.1615L81.9817 18.8124L83.5103 22.1615H80.4614Z" fill="white"/>
<path d="M88.6338 19.8238L86.8892 23.6951L85.1612 19.8238H84.7209L86.6732 24.1511H87.0969L89.0575 19.8238H88.6338Z" fill="white"/>
<path d="M91.2981 19.7906C90.6252 19.7906 89.9938 20.0227 89.5618 20.4041L89.7695 20.7025C90.1267 20.3792 90.6667 20.1554 91.2649 20.1554C92.1123 20.1554 92.5526 20.5864 92.5526 21.3905V21.7387H91.0655C89.8609 21.7387 89.4455 22.2941 89.4455 22.949C89.4455 23.6868 90.0353 24.1842 91.0073 24.1842C91.7634 24.1842 92.2951 23.8775 92.5692 23.3801V24.1511H92.968V21.4071C92.968 20.3377 92.3698 19.7906 91.2981 19.7906ZM91.0655 23.8443C90.3012 23.8443 89.8609 23.4962 89.8609 22.9325C89.8609 22.4351 90.1766 22.062 91.0738 22.062H92.5526V22.8744C92.3034 23.4962 91.7966 23.8443 91.0655 23.8443Z" fill="white"/>
<path d="M94.8872 18.771C95.0782 18.771 95.2278 18.6217 95.2278 18.4311C95.2278 18.2487 95.0782 18.0995 94.8872 18.0995C94.6961 18.0995 94.5465 18.257 94.5465 18.4394C94.5465 18.6217 94.6961 18.771 94.8872 18.771ZM94.6795 24.1511H95.0948V19.8238H94.6795V24.1511Z" fill="white"/>
<path d="M96.8457 24.1511H97.261V18H96.8457V24.1511Z" fill="white"/>
<path d="M100.474 19.7906C99.8011 19.7906 99.1697 20.0227 98.7377 20.4041L98.9454 20.7025C99.3026 20.3792 99.8426 20.1554 100.441 20.1554C101.288 20.1554 101.729 20.5864 101.729 21.3905V21.7387H100.241C99.0368 21.7387 98.6214 22.2941 98.6214 22.949C98.6214 23.6868 99.2112 24.1842 100.183 24.1842C100.939 24.1842 101.471 23.8775 101.745 23.3801V24.1511H102.144V21.4071C102.144 20.3377 101.546 19.7906 100.474 19.7906ZM100.241 23.8443C99.4771 23.8443 99.0368 23.4962 99.0368 22.9325C99.0368 22.4351 99.3525 22.062 100.25 22.062H101.729V22.8744C101.479 23.4962 100.972 23.8443 100.241 23.8443Z" fill="white"/>
<path d="M106.032 19.7906C105.268 19.7906 104.62 20.1636 104.271 20.8103V18H103.855V24.1511H104.254V23.1314C104.595 23.7946 105.251 24.1842 106.032 24.1842C107.253 24.1842 108.175 23.2806 108.175 21.9874C108.175 20.6859 107.253 19.7906 106.032 19.7906ZM106.007 23.8112C105.01 23.8112 104.262 23.0734 104.262 21.9874C104.262 20.9014 105.01 20.1636 106.007 20.1636C107.004 20.1636 107.76 20.9014 107.76 21.9874C107.76 23.0734 107.004 23.8112 106.007 23.8112Z" fill="white"/>
<path d="M109.462 24.1511H109.877V18H109.462V24.1511Z" fill="white"/>
<path d="M115.3 21.9708C115.3 20.6859 114.419 19.7906 113.231 19.7906C112.043 19.7906 111.154 20.7025 111.154 21.9874C111.154 23.2723 112.076 24.1842 113.389 24.1842C114.045 24.1842 114.643 23.9438 115.026 23.4796L114.785 23.206C114.452 23.6122 113.946 23.8112 113.397 23.8112C112.359 23.8112 111.603 23.1148 111.561 22.0869H115.291C115.291 22.0454 115.3 22.004 115.3 21.9708ZM113.231 20.1554C114.153 20.1554 114.835 20.8268 114.893 21.7636H111.57C111.636 20.8185 112.309 20.1554 113.231 20.1554Z" fill="white"/>
<path d="M121.319 24.1925C123.047 24.1925 124.343 22.9407 124.343 21.2496C124.343 19.5585 123.047 18.3067 121.319 18.3067C119.583 18.3067 118.295 19.5668 118.295 21.2496C118.295 22.9325 119.583 24.1925 121.319 24.1925ZM121.319 23.8029C119.832 23.8029 118.719 22.7169 118.719 21.2496C118.719 19.7823 119.832 18.6963 121.319 18.6963C122.798 18.6963 123.911 19.7823 123.911 21.2496C123.911 22.7169 122.798 23.8029 121.319 23.8029Z" fill="white"/>
<path d="M127.798 19.7906C126.976 19.7906 126.369 20.1554 126.078 20.7605V19.8238H125.68V24.1511H126.095V21.8465C126.095 20.8185 126.718 20.1636 127.74 20.1636C128.621 20.1636 129.144 20.6776 129.144 21.6558V24.1511H129.559V21.6227C129.559 20.4123 128.853 19.7906 127.798 19.7906Z" fill="white"/>
<path d="M86.7983 38.9745C86.1336 39.3577 85.4099 39.5051 84.6715 39.5051C82.4856 39.5051 80.9348 37.9724 80.9348 35.8796C80.9348 33.7427 82.4856 32.2542 84.6862 32.2542C85.7939 32.2542 86.7244 32.6227 87.5367 33.4332L88.7478 32.2542C87.773 31.1489 86.3256 30.5741 84.5976 30.5741C81.3631 30.5741 79 32.7995 79 35.8796C79 38.9598 81.3631 41.1851 84.5681 41.1851C86.0303 41.1851 87.5367 40.743 88.6149 39.8735V35.7617H86.7983V38.9745Z" fill="white"/>
<path d="M94.5147 41.1409C96.9664 41.1409 98.724 39.4609 98.724 37.1029C98.724 34.7449 96.9664 33.0795 94.5147 33.0795C92.0925 33.0795 90.3202 34.7449 90.3202 37.1029C90.3202 39.4609 92.0925 41.1409 94.5147 41.1409ZM94.5147 39.564C93.1855 39.564 92.1811 38.6061 92.1811 37.1029C92.1811 35.5996 93.1855 34.6417 94.5147 34.6417C95.8587 34.6417 96.8631 35.5996 96.8631 37.1029C96.8631 38.6061 95.8587 39.564 94.5147 39.564Z" fill="white"/>
<path d="M104.034 41.1409C106.486 41.1409 108.243 39.4609 108.243 37.1029C108.243 34.7449 106.486 33.0795 104.034 33.0795C101.612 33.0795 99.8396 34.7449 99.8396 37.1029C99.8396 39.4609 101.612 41.1409 104.034 41.1409ZM104.034 39.564C102.705 39.564 101.701 38.6061 101.701 37.1029C101.701 35.5996 102.705 34.6417 104.034 34.6417C105.378 34.6417 106.382 35.5996 106.382 37.1029C106.382 38.6061 105.378 39.564 104.034 39.564Z" fill="white"/>
<path d="M116.079 33.1679V34.2143C115.429 33.4332 114.454 33.0795 113.347 33.0795C111.087 33.0795 109.359 34.5827 109.359 36.8671C109.359 39.1514 111.087 40.6841 113.347 40.6841C114.41 40.6841 115.341 40.3451 115.99 39.6377V40.0504C115.99 41.642 115.222 42.4378 113.48 42.4378C112.387 42.4378 111.264 42.0694 110.57 41.4946L109.743 42.88C110.644 43.6168 112.106 44 113.583 44C116.345 44 117.837 42.7031 117.837 39.844V33.1679H116.079ZM113.627 39.1219C112.224 39.1219 111.22 38.2082 111.22 36.8671C111.22 35.5407 112.224 34.6417 113.627 34.6417C115.016 34.6417 116.02 35.5407 116.02 36.8671C116.02 38.2082 115.016 39.1219 113.627 39.1219Z" fill="white"/>
<path d="M120.264 41.0378H122.11V30.1025H120.264V41.0378Z" fill="white"/>
<path d="M131.947 37.1471C131.947 34.6859 130.264 33.0795 127.96 33.0795C125.611 33.0795 123.883 34.7596 123.883 37.1029C123.883 39.4461 125.596 41.1409 128.24 41.1409C129.599 41.1409 130.707 40.6988 131.416 39.8588L130.426 38.724C129.865 39.2987 129.171 39.5788 128.284 39.5788C126.911 39.5788 125.951 38.8419 125.729 37.6924H131.918C131.933 37.5155 131.947 37.2944 131.947 37.1471ZM127.96 34.5533C129.171 34.5533 130.042 35.3344 130.19 36.4691H125.715C125.892 35.3196 126.763 34.5533 127.96 34.5533Z" fill="white"/>
<path d="M142.233 30.7215H137.98V41.0378H139.9V38.0608H142.233C144.951 38.0608 146.635 36.6607 146.635 34.3912C146.635 32.1068 144.951 30.7215 142.233 30.7215ZM142.145 36.4397H139.9V32.3426H142.145C143.828 32.3426 144.7 33.0943 144.7 34.3912C144.7 35.6881 143.828 36.4397 142.145 36.4397Z" fill="white"/>
<path d="M148.519 41.0378H150.365V30.1025H148.519V41.0378Z" fill="white"/>
<path d="M155.801 33.0795C154.531 33.0795 153.305 33.4037 152.463 34.0522L153.187 35.3933C153.778 34.907 154.693 34.6122 155.58 34.6122C156.894 34.6122 157.544 35.2459 157.544 36.3218V36.4397H155.506C153.113 36.4397 152.227 37.4713 152.227 38.7829C152.227 40.1535 153.364 41.1409 155.166 41.1409C156.348 41.1409 157.204 40.7578 157.647 40.0798V41.0378H159.39V36.4249C159.39 34.1554 158.076 33.0795 155.801 33.0795ZM155.55 39.7998C154.605 39.7998 154.044 39.3724 154.044 38.7092C154.044 38.1345 154.383 37.6629 155.639 37.6629H157.544V38.5766C157.234 39.3872 156.451 39.7998 155.55 39.7998Z" fill="white"/>
<path d="M167.228 33.1679L164.732 38.9893L162.25 33.1679H160.33L163.772 41.0672L163.639 41.3767C163.284 42.1578 162.9 42.4673 162.25 42.4673C161.748 42.4673 161.246 42.261 160.892 41.922L160.153 43.2779C160.655 43.7347 161.482 44 162.265 44C163.58 44 164.584 43.4547 165.308 41.6715L169 33.1679H167.228Z" fill="white"/>
</g>
<defs>
<filter id="filter0_d_119_5637" x="0" y="0" width="207" height="70" filterUnits="userSpaceOnUse" color-interpolation-filters="sRGB">
<feFlood flood-opacity="0" result="BackgroundImageFix"/>
<feColorMatrix in="SourceAlpha" type="matrix" values="0 0 0 0 0 0 0 0 0 0 0 0 0 0 0 0 0 0 127 0" result="hardAlpha"/>
<feOffset dy="4"/>
<feGaussianBlur stdDeviation="2"/>
<feComposite in2="hardAlpha" operator="out"/>
<feColorMatrix type="matrix" values="0 0 0 0 0 0 0 0 0 0 0 0 0 0 0 0 0 0 0.25 0"/>
<feBlend mode="normal" in2="BackgroundImageFix" result="effect1_dropShadow_119_5637"/>
<feBlend mode="normal" in="SourceGraphic" in2="effect1_dropShadow_119_5637" result="shape"/>
</filter>
</defs>
</svg>
