<svg width="207" height="69" viewBox="0 0 207 69" fill="none" xmlns="http://www.w3.org/2000/svg">
<g filter="url(#filter0_d_122_5635)">
<rect x="4" width="199" height="61" rx="30.5" fill="white" shape-rendering="crispEdges"/>
<rect x="4.5" y="0.5" width="198" height="60" rx="30" stroke="white" shape-rendering="crispEdges"/>
<g clip-path="url(#clip0_122_5635)">
<path d="M35.7164 15.488C35.2516 15.2296 34.7369 15.0701 34.2055 15.0197C33.6741 14.9694 33.1379 15.0293 32.6316 15.1957C32.1252 15.362 31.66 15.6311 31.2659 15.9856C30.8718 16.34 30.5577 16.7718 30.3438 17.2532L43.8364 30.496L50.7048 23.7357L35.7164 15.488Z" fill="url(#paint0_linear_122_5635)"/>
<path d="M50.7124 37.2716L43.844 30.5112L30.3438 43.7766C30.561 44.2513 30.8762 44.6764 31.2693 45.0248C31.6623 45.3732 32.1247 45.6374 32.6271 45.8006C33.1294 45.9638 33.6607 46.0223 34.1873 45.9726C34.7139 45.9229 35.2242 45.7659 35.6859 45.5117L50.7124 37.2716Z" fill="url(#paint1_linear_122_5635)"/>
<path d="M57.0311 33.779C57.635 33.4566 58.1392 32.9797 58.4906 32.3986C58.842 31.8175 59.0275 31.1539 59.0275 30.4777C59.0275 29.8015 58.842 29.1378 58.4906 28.5568C58.1392 27.9757 57.635 27.4988 57.0311 27.1764L50.7122 23.7061L43.8438 30.4664L50.7122 37.2268L57.0311 33.779Z" fill="url(#paint2_linear_122_5635)"/>
<path d="M30.3434 17.2534C30.1262 17.7259 30.0094 18.2372 30 18.7557V42.2067C29.9982 42.7482 30.1153 43.2837 30.3434 43.7766L43.8284 30.4962L30.3434 17.2534Z" fill="url(#paint3_linear_122_5635)"/>
</g>
<mask id="path-7-outside-1_122_5635" maskUnits="userSpaceOnUse" x="74" y="14.5" width="104" height="32" fill="black">
<rect fill="white" x="74" y="14.5" width="104" height="32"/>
<path d="M81.138 22.5974H81.6558L78.624 15.9017H78.1439L75.1121 22.5974H75.6299L76.4679 20.713H80.2906L81.138 22.5974ZM76.6562 20.3017L78.3792 16.4374L80.1117 20.3017H76.6562Z"/>
<path d="M85.9184 17.6043L83.9411 22.0713L81.9827 17.6043H81.4836L83.6963 22.5974H84.1765L86.3985 17.6043H85.9184Z"/>
<path d="M88.9379 17.5661C88.1752 17.5661 87.4596 17.8339 86.97 18.2739L87.2054 18.6183C87.6103 18.2452 88.2223 17.987 88.9002 17.987C89.8606 17.987 90.3596 18.4843 90.3596 19.4122V19.8139H88.6742C87.309 19.8139 86.8382 20.4548 86.8382 21.2104C86.8382 22.0617 87.5067 22.6356 88.6083 22.6356C89.4651 22.6356 90.0677 22.2817 90.3784 21.7078V22.5974H90.8304V19.4313C90.8304 18.1974 90.1525 17.5661 88.9379 17.5661ZM88.6742 22.2435C87.808 22.2435 87.309 21.8417 87.309 21.1913C87.309 20.6174 87.6668 20.1869 88.6836 20.1869H90.3596V21.1243C90.0771 21.8417 89.5028 22.2435 88.6742 22.2435Z"/>
<path d="M93.0054 16.3896C93.222 16.3896 93.3915 16.2174 93.3915 15.9974C93.3915 15.787 93.222 15.6148 93.0054 15.6148C92.7889 15.6148 92.6194 15.7965 92.6194 16.007C92.6194 16.2174 92.7889 16.3896 93.0054 16.3896ZM92.7701 22.5974H93.2408V17.6043H92.7701V22.5974Z"/>
<path d="M95.2251 22.5974H95.6959V15.5H95.2251V22.5974Z"/>
<path d="M99.3372 17.5661C98.5746 17.5661 97.859 17.8339 97.3694 18.2739L97.6048 18.6183C98.0096 18.2452 98.6216 17.987 99.2996 17.987C100.26 17.987 100.759 18.4843 100.759 19.4122V19.8139H99.0736C97.7083 19.8139 97.2376 20.4548 97.2376 21.2104C97.2376 22.0617 97.9061 22.6356 99.0077 22.6356C99.8645 22.6356 100.467 22.2817 100.778 21.7078V22.5974H101.23V19.4313C101.23 18.1974 100.552 17.5661 99.3372 17.5661ZM99.0736 22.2435C98.2074 22.2435 97.7083 21.8417 97.7083 21.1913C97.7083 20.6174 98.0661 20.1869 99.083 20.1869H100.759V21.1243C100.477 21.8417 99.9022 22.2435 99.0736 22.2435Z"/>
<path d="M105.636 17.5661C104.77 17.5661 104.036 17.9965 103.64 18.7426V15.5H103.169V22.5974H103.621V21.4209C104.007 22.1861 104.751 22.6356 105.636 22.6356C107.02 22.6356 108.065 21.593 108.065 20.1009C108.065 18.5991 107.02 17.5661 105.636 17.5661ZM105.608 22.2052C104.478 22.2052 103.631 21.3539 103.631 20.1009C103.631 18.8478 104.478 17.9965 105.608 17.9965C106.738 17.9965 107.595 18.8478 107.595 20.1009C107.595 21.3539 106.738 22.2052 105.608 22.2052Z"/>
<path d="M109.523 22.5974H109.994V15.5H109.523V22.5974Z"/>
<path d="M116.14 20.0817C116.14 18.5991 115.142 17.5661 113.795 17.5661C112.449 17.5661 111.441 18.6183 111.441 20.1009C111.441 21.5835 112.487 22.6356 113.974 22.6356C114.718 22.6356 115.396 22.3582 115.829 21.8226L115.556 21.5069C115.179 21.9756 114.605 22.2052 113.984 22.2052C112.807 22.2052 111.95 21.4017 111.903 20.2156H116.13C116.13 20.1678 116.14 20.12 116.14 20.0817ZM113.795 17.987C114.84 17.987 115.612 18.7617 115.678 19.8426H111.912C111.987 18.7522 112.75 17.987 113.795 17.987Z"/>
<path d="M122.961 22.6452C124.92 22.6452 126.389 21.2009 126.389 19.2496C126.389 17.2983 124.92 15.8539 122.961 15.8539C120.994 15.8539 119.534 17.3078 119.534 19.2496C119.534 21.1913 120.994 22.6452 122.961 22.6452ZM122.961 22.1956C121.276 22.1956 120.014 20.9426 120.014 19.2496C120.014 17.5565 121.276 16.3035 122.961 16.3035C124.637 16.3035 125.899 17.5565 125.899 19.2496C125.899 20.9426 124.637 22.1956 122.961 22.1956Z"/>
<path d="M130.304 17.5661C129.372 17.5661 128.685 17.987 128.355 18.6852V17.6043H127.904V22.5974H128.374V19.9383C128.374 18.7522 129.08 17.9965 130.239 17.9965C131.237 17.9965 131.83 18.5896 131.83 19.7183V22.5974H132.301V19.68C132.301 18.2835 131.5 17.5661 130.304 17.5661Z"/>
<path d="M83.838 39.7014C83.0848 40.1435 82.2646 40.3135 81.4277 40.3135C78.9503 40.3135 77.1928 38.545 77.1928 36.1304C77.1928 33.6647 78.9503 31.9472 81.4444 31.9472C82.6998 31.9472 83.7543 32.3723 84.675 33.3076L86.0475 31.9472C84.9428 30.6718 83.3024 30.0086 81.344 30.0086C77.6782 30.0086 75 32.5764 75 36.1304C75 39.6844 77.6782 42.2521 81.3105 42.2521C82.9676 42.2521 84.675 41.7419 85.8969 40.7387V35.9943H83.838V39.7014Z"/>
<path d="M92.5833 42.2011C95.362 42.2011 97.3539 40.2625 97.3539 37.5418C97.3539 34.821 95.362 32.8994 92.5833 32.8994C89.8382 32.8994 87.8296 34.821 87.8296 37.5418C87.8296 40.2625 89.8382 42.2011 92.5833 42.2011ZM92.5833 40.3816C91.0769 40.3816 89.9386 39.2762 89.9386 37.5418C89.9386 35.8073 91.0769 34.702 92.5833 34.702C94.1066 34.702 95.2448 35.8073 95.2448 37.5418C95.2448 39.2762 94.1066 40.3816 92.5833 40.3816Z"/>
<path d="M103.372 42.2011C106.151 42.2011 108.142 40.2625 108.142 37.5418C108.142 34.821 106.151 32.8994 103.372 32.8994C100.627 32.8994 98.6182 34.821 98.6182 37.5418C98.6182 40.2625 100.627 42.2011 103.372 42.2011ZM103.372 40.3816C101.865 40.3816 100.727 39.2762 100.727 37.5418C100.727 35.8073 101.865 34.702 103.372 34.702C104.895 34.702 106.033 35.8073 106.033 37.5418C106.033 39.2762 104.895 40.3816 103.372 40.3816Z"/>
<path d="M117.023 33.0015V34.2088C116.286 33.3076 115.182 32.8994 113.926 32.8994C111.365 32.8994 109.407 34.6339 109.407 37.2697C109.407 39.9054 111.365 41.6739 113.926 41.6739C115.131 41.6739 116.186 41.2828 116.922 40.4666V40.9427C116.922 42.7792 116.052 43.6975 114.077 43.6975C112.838 43.6975 111.566 43.2724 110.779 42.6092L109.842 44.2076C110.863 45.0579 112.52 45.5 114.194 45.5C117.324 45.5 119.015 44.0036 119.015 40.7046V33.0015H117.023ZM114.244 39.8714C112.654 39.8714 111.516 38.8171 111.516 37.2697C111.516 35.7392 112.654 34.702 114.244 34.702C115.818 34.702 116.956 35.7392 116.956 37.2697C116.956 38.8171 115.818 39.8714 114.244 39.8714Z"/>
<path d="M121.766 42.082H123.858V29.4645H121.766V42.082Z"/>
<path d="M135.007 37.5928C135.007 34.753 133.099 32.8994 130.487 32.8994C127.826 32.8994 125.868 34.838 125.868 37.5418C125.868 40.2455 127.809 42.2011 130.806 42.2011C132.345 42.2011 133.601 41.6909 134.404 40.7217L133.283 39.4123C132.647 40.0755 131.86 40.3986 130.856 40.3986C129.299 40.3986 128.211 39.5483 127.96 38.2219H134.973C134.99 38.0179 135.007 37.7628 135.007 37.5928ZM130.487 34.5999C131.86 34.5999 132.848 35.5012 133.015 36.8106H127.943C128.144 35.4842 129.132 34.5999 130.487 34.5999Z"/>
<path d="M146.664 30.1787H141.844V42.082H144.02V38.6471H146.664C149.744 38.6471 151.653 37.0316 151.653 34.4129C151.653 31.7771 149.744 30.1787 146.664 30.1787ZM146.564 36.7765H144.02V32.0492H146.564C148.472 32.0492 149.46 32.9165 149.46 34.4129C149.46 35.9093 148.472 36.7765 146.564 36.7765Z"/>
<path d="M153.788 42.082H155.88V29.4645H153.788V42.082Z"/>
<path d="M162.041 32.8994C160.602 32.8994 159.213 33.2736 158.258 34.0218L159.079 35.5692C159.748 35.008 160.786 34.6679 161.79 34.6679C163.28 34.6679 164.017 35.3992 164.017 36.6405V36.7765H161.707C158.995 36.7765 157.991 37.9669 157.991 39.4803C157.991 41.0618 159.279 42.2011 161.322 42.2011C162.661 42.2011 163.632 41.7589 164.134 40.9767V42.082H166.109V36.7595C166.109 34.1408 164.619 32.8994 162.041 32.8994ZM161.757 40.6536C160.686 40.6536 160.049 40.1605 160.049 39.3953C160.049 38.7321 160.434 38.1879 161.857 38.1879H164.017V39.2422C163.665 40.1775 162.778 40.6536 161.757 40.6536Z"/>
<path d="M174.991 33.0015L172.163 39.7184L169.35 33.0015H167.174L171.075 42.116L170.924 42.4731C170.522 43.3744 170.087 43.7315 169.35 43.7315C168.781 43.7315 168.212 43.4934 167.81 43.1023L166.974 44.6668C167.543 45.1939 168.48 45.5 169.367 45.5C170.857 45.5 171.995 44.8708 172.815 42.8132L177 33.0015H174.991Z"/>
</mask>
<path d="M81.138 22.5974H81.6558L78.624 15.9017H78.1439L75.1121 22.5974H75.6299L76.4679 20.713H80.2906L81.138 22.5974ZM76.6562 20.3017L78.3792 16.4374L80.1117 20.3017H76.6562Z" fill="black"/>
<path d="M85.9184 17.6043L83.9411 22.0713L81.9827 17.6043H81.4836L83.6963 22.5974H84.1765L86.3985 17.6043H85.9184Z" fill="black"/>
<path d="M88.9379 17.5661C88.1752 17.5661 87.4596 17.8339 86.97 18.2739L87.2054 18.6183C87.6103 18.2452 88.2223 17.987 88.9002 17.987C89.8606 17.987 90.3596 18.4843 90.3596 19.4122V19.8139H88.6742C87.309 19.8139 86.8382 20.4548 86.8382 21.2104C86.8382 22.0617 87.5067 22.6356 88.6083 22.6356C89.4651 22.6356 90.0677 22.2817 90.3784 21.7078V22.5974H90.8304V19.4313C90.8304 18.1974 90.1525 17.5661 88.9379 17.5661ZM88.6742 22.2435C87.808 22.2435 87.309 21.8417 87.309 21.1913C87.309 20.6174 87.6668 20.1869 88.6836 20.1869H90.3596V21.1243C90.0771 21.8417 89.5028 22.2435 88.6742 22.2435Z" fill="black"/>
<path d="M93.0054 16.3896C93.222 16.3896 93.3915 16.2174 93.3915 15.9974C93.3915 15.787 93.222 15.6148 93.0054 15.6148C92.7889 15.6148 92.6194 15.7965 92.6194 16.007C92.6194 16.2174 92.7889 16.3896 93.0054 16.3896ZM92.7701 22.5974H93.2408V17.6043H92.7701V22.5974Z" fill="black"/>
<path d="M95.2251 22.5974H95.6959V15.5H95.2251V22.5974Z" fill="black"/>
<path d="M99.3372 17.5661C98.5746 17.5661 97.859 17.8339 97.3694 18.2739L97.6048 18.6183C98.0096 18.2452 98.6216 17.987 99.2996 17.987C100.26 17.987 100.759 18.4843 100.759 19.4122V19.8139H99.0736C97.7083 19.8139 97.2376 20.4548 97.2376 21.2104C97.2376 22.0617 97.9061 22.6356 99.0077 22.6356C99.8645 22.6356 100.467 22.2817 100.778 21.7078V22.5974H101.23V19.4313C101.23 18.1974 100.552 17.5661 99.3372 17.5661ZM99.0736 22.2435C98.2074 22.2435 97.7083 21.8417 97.7083 21.1913C97.7083 20.6174 98.0661 20.1869 99.083 20.1869H100.759V21.1243C100.477 21.8417 99.9022 22.2435 99.0736 22.2435Z" fill="black"/>
<path d="M105.636 17.5661C104.77 17.5661 104.036 17.9965 103.64 18.7426V15.5H103.169V22.5974H103.621V21.4209C104.007 22.1861 104.751 22.6356 105.636 22.6356C107.02 22.6356 108.065 21.593 108.065 20.1009C108.065 18.5991 107.02 17.5661 105.636 17.5661ZM105.608 22.2052C104.478 22.2052 103.631 21.3539 103.631 20.1009C103.631 18.8478 104.478 17.9965 105.608 17.9965C106.738 17.9965 107.595 18.8478 107.595 20.1009C107.595 21.3539 106.738 22.2052 105.608 22.2052Z" fill="black"/>
<path d="M109.523 22.5974H109.994V15.5H109.523V22.5974Z" fill="black"/>
<path d="M116.14 20.0817C116.14 18.5991 115.142 17.5661 113.795 17.5661C112.449 17.5661 111.441 18.6183 111.441 20.1009C111.441 21.5835 112.487 22.6356 113.974 22.6356C114.718 22.6356 115.396 22.3582 115.829 21.8226L115.556 21.5069C115.179 21.9756 114.605 22.2052 113.984 22.2052C112.807 22.2052 111.95 21.4017 111.903 20.2156H116.13C116.13 20.1678 116.14 20.12 116.14 20.0817ZM113.795 17.987C114.84 17.987 115.612 18.7617 115.678 19.8426H111.912C111.987 18.7522 112.75 17.987 113.795 17.987Z" fill="black"/>
<path d="M122.961 22.6452C124.92 22.6452 126.389 21.2009 126.389 19.2496C126.389 17.2983 124.92 15.8539 122.961 15.8539C120.994 15.8539 119.534 17.3078 119.534 19.2496C119.534 21.1913 120.994 22.6452 122.961 22.6452ZM122.961 22.1956C121.276 22.1956 120.014 20.9426 120.014 19.2496C120.014 17.5565 121.276 16.3035 122.961 16.3035C124.637 16.3035 125.899 17.5565 125.899 19.2496C125.899 20.9426 124.637 22.1956 122.961 22.1956Z" fill="black"/>
<path d="M130.304 17.5661C129.372 17.5661 128.685 17.987 128.355 18.6852V17.6043H127.904V22.5974H128.374V19.9383C128.374 18.7522 129.08 17.9965 130.239 17.9965C131.237 17.9965 131.83 18.5896 131.83 19.7183V22.5974H132.301V19.68C132.301 18.2835 131.5 17.5661 130.304 17.5661Z" fill="black"/>
<path d="M83.838 39.7014C83.0848 40.1435 82.2646 40.3135 81.4277 40.3135C78.9503 40.3135 77.1928 38.545 77.1928 36.1304C77.1928 33.6647 78.9503 31.9472 81.4444 31.9472C82.6998 31.9472 83.7543 32.3723 84.675 33.3076L86.0475 31.9472C84.9428 30.6718 83.3024 30.0086 81.344 30.0086C77.6782 30.0086 75 32.5764 75 36.1304C75 39.6844 77.6782 42.2521 81.3105 42.2521C82.9676 42.2521 84.675 41.7419 85.8969 40.7387V35.9943H83.838V39.7014Z" fill="black"/>
<path d="M92.5833 42.2011C95.362 42.2011 97.3539 40.2625 97.3539 37.5418C97.3539 34.821 95.362 32.8994 92.5833 32.8994C89.8382 32.8994 87.8296 34.821 87.8296 37.5418C87.8296 40.2625 89.8382 42.2011 92.5833 42.2011ZM92.5833 40.3816C91.0769 40.3816 89.9386 39.2762 89.9386 37.5418C89.9386 35.8073 91.0769 34.702 92.5833 34.702C94.1066 34.702 95.2448 35.8073 95.2448 37.5418C95.2448 39.2762 94.1066 40.3816 92.5833 40.3816Z" fill="black"/>
<path d="M103.372 42.2011C106.151 42.2011 108.142 40.2625 108.142 37.5418C108.142 34.821 106.151 32.8994 103.372 32.8994C100.627 32.8994 98.6182 34.821 98.6182 37.5418C98.6182 40.2625 100.627 42.2011 103.372 42.2011ZM103.372 40.3816C101.865 40.3816 100.727 39.2762 100.727 37.5418C100.727 35.8073 101.865 34.702 103.372 34.702C104.895 34.702 106.033 35.8073 106.033 37.5418C106.033 39.2762 104.895 40.3816 103.372 40.3816Z" fill="black"/>
<path d="M117.023 33.0015V34.2088C116.286 33.3076 115.182 32.8994 113.926 32.8994C111.365 32.8994 109.407 34.6339 109.407 37.2697C109.407 39.9054 111.365 41.6739 113.926 41.6739C115.131 41.6739 116.186 41.2828 116.922 40.4666V40.9427C116.922 42.7792 116.052 43.6975 114.077 43.6975C112.838 43.6975 111.566 43.2724 110.779 42.6092L109.842 44.2076C110.863 45.0579 112.52 45.5 114.194 45.5C117.324 45.5 119.015 44.0036 119.015 40.7046V33.0015H117.023ZM114.244 39.8714C112.654 39.8714 111.516 38.8171 111.516 37.2697C111.516 35.7392 112.654 34.702 114.244 34.702C115.818 34.702 116.956 35.7392 116.956 37.2697C116.956 38.8171 115.818 39.8714 114.244 39.8714Z" fill="black"/>
<path d="M121.766 42.082H123.858V29.4645H121.766V42.082Z" fill="black"/>
<path d="M135.007 37.5928C135.007 34.753 133.099 32.8994 130.487 32.8994C127.826 32.8994 125.868 34.838 125.868 37.5418C125.868 40.2455 127.809 42.2011 130.806 42.2011C132.345 42.2011 133.601 41.6909 134.404 40.7217L133.283 39.4123C132.647 40.0755 131.86 40.3986 130.856 40.3986C129.299 40.3986 128.211 39.5483 127.96 38.2219H134.973C134.99 38.0179 135.007 37.7628 135.007 37.5928ZM130.487 34.5999C131.86 34.5999 132.848 35.5012 133.015 36.8106H127.943C128.144 35.4842 129.132 34.5999 130.487 34.5999Z" fill="black"/>
<path d="M146.664 30.1787H141.844V42.082H144.02V38.6471H146.664C149.744 38.6471 151.653 37.0316 151.653 34.4129C151.653 31.7771 149.744 30.1787 146.664 30.1787ZM146.564 36.7765H144.02V32.0492H146.564C148.472 32.0492 149.46 32.9165 149.46 34.4129C149.46 35.9093 148.472 36.7765 146.564 36.7765Z" fill="black"/>
<path d="M153.788 42.082H155.88V29.4645H153.788V42.082Z" fill="black"/>
<path d="M162.041 32.8994C160.602 32.8994 159.213 33.2736 158.258 34.0218L159.079 35.5692C159.748 35.008 160.786 34.6679 161.79 34.6679C163.28 34.6679 164.017 35.3992 164.017 36.6405V36.7765H161.707C158.995 36.7765 157.991 37.9669 157.991 39.4803C157.991 41.0618 159.279 42.2011 161.322 42.2011C162.661 42.2011 163.632 41.7589 164.134 40.9767V42.082H166.109V36.7595C166.109 34.1408 164.619 32.8994 162.041 32.8994ZM161.757 40.6536C160.686 40.6536 160.049 40.1605 160.049 39.3953C160.049 38.7321 160.434 38.1879 161.857 38.1879H164.017V39.2422C163.665 40.1775 162.778 40.6536 161.757 40.6536Z" fill="black"/>
<path d="M174.991 33.0015L172.163 39.7184L169.35 33.0015H167.174L171.075 42.116L170.924 42.4731C170.522 43.3744 170.087 43.7315 169.35 43.7315C168.781 43.7315 168.212 43.4934 167.81 43.1023L166.974 44.6668C167.543 45.1939 168.48 45.5 169.367 45.5C170.857 45.5 171.995 44.8708 172.815 42.8132L177 33.0015H174.991Z" fill="black"/>
<path d="M81.138 22.5974H81.6558L78.624 15.9017H78.1439L75.1121 22.5974H75.6299L76.4679 20.713H80.2906L81.138 22.5974ZM76.6562 20.3017L78.3792 16.4374L80.1117 20.3017H76.6562Z" stroke="black" stroke-width="0.4" mask="url(#path-7-outside-1_122_5635)"/>
<path d="M85.9184 17.6043L83.9411 22.0713L81.9827 17.6043H81.4836L83.6963 22.5974H84.1765L86.3985 17.6043H85.9184Z" stroke="black" stroke-width="0.4" mask="url(#path-7-outside-1_122_5635)"/>
<path d="M88.9379 17.5661C88.1752 17.5661 87.4596 17.8339 86.97 18.2739L87.2054 18.6183C87.6103 18.2452 88.2223 17.987 88.9002 17.987C89.8606 17.987 90.3596 18.4843 90.3596 19.4122V19.8139H88.6742C87.309 19.8139 86.8382 20.4548 86.8382 21.2104C86.8382 22.0617 87.5067 22.6356 88.6083 22.6356C89.4651 22.6356 90.0677 22.2817 90.3784 21.7078V22.5974H90.8304V19.4313C90.8304 18.1974 90.1525 17.5661 88.9379 17.5661ZM88.6742 22.2435C87.808 22.2435 87.309 21.8417 87.309 21.1913C87.309 20.6174 87.6668 20.1869 88.6836 20.1869H90.3596V21.1243C90.0771 21.8417 89.5028 22.2435 88.6742 22.2435Z" stroke="black" stroke-width="0.4" mask="url(#path-7-outside-1_122_5635)"/>
<path d="M93.0054 16.3896C93.222 16.3896 93.3915 16.2174 93.3915 15.9974C93.3915 15.787 93.222 15.6148 93.0054 15.6148C92.7889 15.6148 92.6194 15.7965 92.6194 16.007C92.6194 16.2174 92.7889 16.3896 93.0054 16.3896ZM92.7701 22.5974H93.2408V17.6043H92.7701V22.5974Z" stroke="black" stroke-width="0.4" mask="url(#path-7-outside-1_122_5635)"/>
<path d="M95.2251 22.5974H95.6959V15.5H95.2251V22.5974Z" stroke="black" stroke-width="0.4" mask="url(#path-7-outside-1_122_5635)"/>
<path d="M99.3372 17.5661C98.5746 17.5661 97.859 17.8339 97.3694 18.2739L97.6048 18.6183C98.0096 18.2452 98.6216 17.987 99.2996 17.987C100.26 17.987 100.759 18.4843 100.759 19.4122V19.8139H99.0736C97.7083 19.8139 97.2376 20.4548 97.2376 21.2104C97.2376 22.0617 97.9061 22.6356 99.0077 22.6356C99.8645 22.6356 100.467 22.2817 100.778 21.7078V22.5974H101.23V19.4313C101.23 18.1974 100.552 17.5661 99.3372 17.5661ZM99.0736 22.2435C98.2074 22.2435 97.7083 21.8417 97.7083 21.1913C97.7083 20.6174 98.0661 20.1869 99.083 20.1869H100.759V21.1243C100.477 21.8417 99.9022 22.2435 99.0736 22.2435Z" stroke="black" stroke-width="0.4" mask="url(#path-7-outside-1_122_5635)"/>
<path d="M105.636 17.5661C104.77 17.5661 104.036 17.9965 103.64 18.7426V15.5H103.169V22.5974H103.621V21.4209C104.007 22.1861 104.751 22.6356 105.636 22.6356C107.02 22.6356 108.065 21.593 108.065 20.1009C108.065 18.5991 107.02 17.5661 105.636 17.5661ZM105.608 22.2052C104.478 22.2052 103.631 21.3539 103.631 20.1009C103.631 18.8478 104.478 17.9965 105.608 17.9965C106.738 17.9965 107.595 18.8478 107.595 20.1009C107.595 21.3539 106.738 22.2052 105.608 22.2052Z" stroke="black" stroke-width="0.4" mask="url(#path-7-outside-1_122_5635)"/>
<path d="M109.523 22.5974H109.994V15.5H109.523V22.5974Z" stroke="black" stroke-width="0.4" mask="url(#path-7-outside-1_122_5635)"/>
<path d="M116.14 20.0817C116.14 18.5991 115.142 17.5661 113.795 17.5661C112.449 17.5661 111.441 18.6183 111.441 20.1009C111.441 21.5835 112.487 22.6356 113.974 22.6356C114.718 22.6356 115.396 22.3582 115.829 21.8226L115.556 21.5069C115.179 21.9756 114.605 22.2052 113.984 22.2052C112.807 22.2052 111.95 21.4017 111.903 20.2156H116.13C116.13 20.1678 116.14 20.12 116.14 20.0817ZM113.795 17.987C114.84 17.987 115.612 18.7617 115.678 19.8426H111.912C111.987 18.7522 112.75 17.987 113.795 17.987Z" stroke="black" stroke-width="0.4" mask="url(#path-7-outside-1_122_5635)"/>
<path d="M122.961 22.6452C124.92 22.6452 126.389 21.2009 126.389 19.2496C126.389 17.2983 124.92 15.8539 122.961 15.8539C120.994 15.8539 119.534 17.3078 119.534 19.2496C119.534 21.1913 120.994 22.6452 122.961 22.6452ZM122.961 22.1956C121.276 22.1956 120.014 20.9426 120.014 19.2496C120.014 17.5565 121.276 16.3035 122.961 16.3035C124.637 16.3035 125.899 17.5565 125.899 19.2496C125.899 20.9426 124.637 22.1956 122.961 22.1956Z" stroke="black" stroke-width="0.4" mask="url(#path-7-outside-1_122_5635)"/>
<path d="M130.304 17.5661C129.372 17.5661 128.685 17.987 128.355 18.6852V17.6043H127.904V22.5974H128.374V19.9383C128.374 18.7522 129.08 17.9965 130.239 17.9965C131.237 17.9965 131.83 18.5896 131.83 19.7183V22.5974H132.301V19.68C132.301 18.2835 131.5 17.5661 130.304 17.5661Z" stroke="black" stroke-width="0.4" mask="url(#path-7-outside-1_122_5635)"/>
<path d="M83.838 39.7014C83.0848 40.1435 82.2646 40.3135 81.4277 40.3135C78.9503 40.3135 77.1928 38.545 77.1928 36.1304C77.1928 33.6647 78.9503 31.9472 81.4444 31.9472C82.6998 31.9472 83.7543 32.3723 84.675 33.3076L86.0475 31.9472C84.9428 30.6718 83.3024 30.0086 81.344 30.0086C77.6782 30.0086 75 32.5764 75 36.1304C75 39.6844 77.6782 42.2521 81.3105 42.2521C82.9676 42.2521 84.675 41.7419 85.8969 40.7387V35.9943H83.838V39.7014Z" stroke="black" stroke-width="0.4" mask="url(#path-7-outside-1_122_5635)"/>
<path d="M92.5833 42.2011C95.362 42.2011 97.3539 40.2625 97.3539 37.5418C97.3539 34.821 95.362 32.8994 92.5833 32.8994C89.8382 32.8994 87.8296 34.821 87.8296 37.5418C87.8296 40.2625 89.8382 42.2011 92.5833 42.2011ZM92.5833 40.3816C91.0769 40.3816 89.9386 39.2762 89.9386 37.5418C89.9386 35.8073 91.0769 34.702 92.5833 34.702C94.1066 34.702 95.2448 35.8073 95.2448 37.5418C95.2448 39.2762 94.1066 40.3816 92.5833 40.3816Z" stroke="black" stroke-width="0.4" mask="url(#path-7-outside-1_122_5635)"/>
<path d="M103.372 42.2011C106.151 42.2011 108.142 40.2625 108.142 37.5418C108.142 34.821 106.151 32.8994 103.372 32.8994C100.627 32.8994 98.6182 34.821 98.6182 37.5418C98.6182 40.2625 100.627 42.2011 103.372 42.2011ZM103.372 40.3816C101.865 40.3816 100.727 39.2762 100.727 37.5418C100.727 35.8073 101.865 34.702 103.372 34.702C104.895 34.702 106.033 35.8073 106.033 37.5418C106.033 39.2762 104.895 40.3816 103.372 40.3816Z" stroke="black" stroke-width="0.4" mask="url(#path-7-outside-1_122_5635)"/>
<path d="M117.023 33.0015V34.2088C116.286 33.3076 115.182 32.8994 113.926 32.8994C111.365 32.8994 109.407 34.6339 109.407 37.2697C109.407 39.9054 111.365 41.6739 113.926 41.6739C115.131 41.6739 116.186 41.2828 116.922 40.4666V40.9427C116.922 42.7792 116.052 43.6975 114.077 43.6975C112.838 43.6975 111.566 43.2724 110.779 42.6092L109.842 44.2076C110.863 45.0579 112.52 45.5 114.194 45.5C117.324 45.5 119.015 44.0036 119.015 40.7046V33.0015H117.023ZM114.244 39.8714C112.654 39.8714 111.516 38.8171 111.516 37.2697C111.516 35.7392 112.654 34.702 114.244 34.702C115.818 34.702 116.956 35.7392 116.956 37.2697C116.956 38.8171 115.818 39.8714 114.244 39.8714Z" stroke="black" stroke-width="0.4" mask="url(#path-7-outside-1_122_5635)"/>
<path d="M121.766 42.082H123.858V29.4645H121.766V42.082Z" stroke="black" stroke-width="0.4" mask="url(#path-7-outside-1_122_5635)"/>
<path d="M135.007 37.5928C135.007 34.753 133.099 32.8994 130.487 32.8994C127.826 32.8994 125.868 34.838 125.868 37.5418C125.868 40.2455 127.809 42.2011 130.806 42.2011C132.345 42.2011 133.601 41.6909 134.404 40.7217L133.283 39.4123C132.647 40.0755 131.86 40.3986 130.856 40.3986C129.299 40.3986 128.211 39.5483 127.96 38.2219H134.973C134.99 38.0179 135.007 37.7628 135.007 37.5928ZM130.487 34.5999C131.86 34.5999 132.848 35.5012 133.015 36.8106H127.943C128.144 35.4842 129.132 34.5999 130.487 34.5999Z" stroke="black" stroke-width="0.4" mask="url(#path-7-outside-1_122_5635)"/>
<path d="M146.664 30.1787H141.844V42.082H144.02V38.6471H146.664C149.744 38.6471 151.653 37.0316 151.653 34.4129C151.653 31.7771 149.744 30.1787 146.664 30.1787ZM146.564 36.7765H144.02V32.0492H146.564C148.472 32.0492 149.46 32.9165 149.46 34.4129C149.46 35.9093 148.472 36.7765 146.564 36.7765Z" stroke="black" stroke-width="0.4" mask="url(#path-7-outside-1_122_5635)"/>
<path d="M153.788 42.082H155.88V29.4645H153.788V42.082Z" stroke="black" stroke-width="0.4" mask="url(#path-7-outside-1_122_5635)"/>
<path d="M162.041 32.8994C160.602 32.8994 159.213 33.2736 158.258 34.0218L159.079 35.5692C159.748 35.008 160.786 34.6679 161.79 34.6679C163.28 34.6679 164.017 35.3992 164.017 36.6405V36.7765H161.707C158.995 36.7765 157.991 37.9669 157.991 39.4803C157.991 41.0618 159.279 42.2011 161.322 42.2011C162.661 42.2011 163.632 41.7589 164.134 40.9767V42.082H166.109V36.7595C166.109 34.1408 164.619 32.8994 162.041 32.8994ZM161.757 40.6536C160.686 40.6536 160.049 40.1605 160.049 39.3953C160.049 38.7321 160.434 38.1879 161.857 38.1879H164.017V39.2422C163.665 40.1775 162.778 40.6536 161.757 40.6536Z" stroke="black" stroke-width="0.4" mask="url(#path-7-outside-1_122_5635)"/>
<path d="M174.991 33.0015L172.163 39.7184L169.35 33.0015H167.174L171.075 42.116L170.924 42.4731C170.522 43.3744 170.087 43.7315 169.35 43.7315C168.781 43.7315 168.212 43.4934 167.81 43.1023L166.974 44.6668C167.543 45.1939 168.48 45.5 169.367 45.5C170.857 45.5 171.995 44.8708 172.815 42.8132L177 33.0015H174.991Z" stroke="black" stroke-width="0.4" mask="url(#path-7-outside-1_122_5635)"/>
</g>
<defs>
<filter id="filter0_d_122_5635" x="0" y="0" width="207" height="69" filterUnits="userSpaceOnUse" color-interpolation-filters="sRGB">
<feFlood flood-opacity="0" result="BackgroundImageFix"/>
<feColorMatrix in="SourceAlpha" type="matrix" values="0 0 0 0 0 0 0 0 0 0 0 0 0 0 0 0 0 0 127 0" result="hardAlpha"/>
<feOffset dy="4"/>
<feGaussianBlur stdDeviation="2"/>
<feComposite in2="hardAlpha" operator="out"/>
<feColorMatrix type="matrix" values="0 0 0 0 0 0 0 0 0 0 0 0 0 0 0 0 0 0 0.25 0"/>
<feBlend mode="normal" in2="BackgroundImageFix" result="effect1_dropShadow_122_5635"/>
<feBlend mode="normal" in="SourceGraphic" in2="effect1_dropShadow_122_5635" result="shape"/>
</filter>
<linearGradient id="paint0_linear_122_5635" x1="39.2345" y1="14.9096" x2="44.566" y2="38.6076" gradientUnits="userSpaceOnUse">
<stop stop-color="#35AB4A"/>
<stop offset="0.3" stop-color="#31A145"/>
<stop offset="0.8" stop-color="#288739"/>
<stop offset="1" stop-color="#237A33"/>
</linearGradient>
<linearGradient id="paint1_linear_122_5635" x1="40.0435" y1="30.3986" x2="41.5444" y2="62.7529" gradientUnits="userSpaceOnUse">
<stop stop-color="#F14E5D"/>
<stop offset="0.5" stop-color="#EA3D4F"/>
<stop offset="1" stop-color="#E12138"/>
</linearGradient>
<linearGradient id="paint2_linear_122_5635" x1="50.5595" y1="23.6685" x2="53.2224" y2="45.2445" gradientUnits="userSpaceOnUse">
<stop stop-color="#FFD844"/>
<stop offset="0.52" stop-color="#FFC63F"/>
<stop offset="1" stop-color="#FFB03A"/>
</linearGradient>
<linearGradient id="paint3_linear_122_5635" x1="35.9908" y1="16.9079" x2="37.2626" y2="44.6347" gradientUnits="userSpaceOnUse">
<stop stop-color="#0090E6"/>
<stop offset="1" stop-color="#0065A0"/>
</linearGradient>
<clipPath id="clip0_122_5635">
<rect width="29" height="31" fill="white" transform="translate(30 15)"/>
</clipPath>
</defs>
</svg>
