<?xml version="1.0" encoding="utf-8"?>
<!-- Generator: Adobe Illustrator 27.7.0, SVG Export Plug-In . SVG Version: 6.00 Build 0)  -->
<svg version="1.1" id="Layer_1" xmlns="http://www.w3.org/2000/svg" xmlns:xlink="http://www.w3.org/1999/xlink" x="0px" y="0px"
	 viewBox="0 0 344.56 209.98" style="enable-background:new 0 0 344.56 209.98;" xml:space="preserve">
<style type="text/css">
	.st0{fill-rule:evenodd;clip-rule:evenodd;fill:#76BC21;}
	.st1{fill-rule:evenodd;clip-rule:evenodd;}
</style>
<g>
	<g>
		<g>
			<g>
				<g>
					<polygon class="st0" points="177.84,4.74 177.84,5.35 200.09,10.08 200.09,0 					"/>
					<path class="st0" d="M161.64,10.4v6.49l-10.08,0.31c-8.81,0.01-12.43,4.22-12.43,13.02l0.06,34.32c0,3.48,0.82,7.45,2.45,9.4
						c1.36,1.68,5.17,3.59,8.2,3.59l3,0.05l-3.6,6.17l46.41-0.02l-4.09-6.21c10.5,0,13.89-3.41,13.88-13.93l-0.02-7.65l-14.18-2.66
						v13.02h-38.18l0.27-38.45l37.91-0.02v11.53l14.2-2.08v-7.69c-0.02-8.27-4.1-11.48-11.55-12.42l-10.95-0.27l0.01-6.51h-5.04
						V0.01h-11.27l0.03,10.37L161.64,10.4z"/>
				</g>
				<g>
					<path class="st1" d="M32.93,209.44l0.01-20.9h14.27c2.06,0,3.7,0.51,4.92,1.51c1.15,1.05,1.76,2.36,1.76,4.14
						c0,1.79-0.08,4.12-1.25,5.22c-1.15,1.09-3.19,1.67-5.06,1.67H36l-0.05,8.35H32.93z M36,198.25h11.04
						c1.33,0,2.35-0.28,3.07-0.87c0.67-0.59,1.01-1.42,1.01-2.55c0-1.12-0.34-1.95-1.01-2.54c-0.72-0.63-1.71-0.95-2.94-0.95H36
						V198.25z"/>
					<polygon class="st1" points="68.75,209.5 68.75,188.48 87.56,188.48 87.56,191.59 71.95,191.61 71.86,197.24 82.97,197.19 
						82.97,200.03 71.86,200.03 71.95,206.35 87.56,206.35 87.56,209.5 					"/>
					<polygon class="st1" points="141.56,209.5 141.56,188.42 160.59,188.42 160.59,191.56 144.51,191.56 144.51,197.18 
						155.67,197.18 155.67,199.99 144.51,199.99 144.51,209.5 					"/>
					<path class="st1" d="M178.14,188.16v13.3c0,2.11,0.46,3.57,1.48,4.27c2.21,1.59,10.33,1.65,12.48,0.08
						c0.96-0.74,1.52-2.15,1.52-4.29v-13.29h2.73v13.95c0,5.8-4.03,7.49-10.59,7.49c-6.59,0-10.62-2.67-10.62-7.49v-13.94
						L178.14,188.16z"/>
					<polygon class="st1" points="213.73,209.49 213.73,188.35 217.2,188.35 226.58,201.09 236.05,188.35 239.48,188.35 
						239.48,209.44 236.43,209.44 236.43,192.5 226.58,205.64 216.77,192.5 216.77,209.49 					"/>
					<path class="st1" d="M296.1,209.04c1.85,0.6,3.83,0.94,5.96,0.94c2.86,0,5.16-0.66,6.93-1.92c1.78-1.3,2.66-2.96,2.66-4.96
						c0-1.69-0.63-3.13-1.94-4.28c-1.3-1.19-3.04-1.84-5.23-2.1c-0.76-0.08-1.82-0.16-3.14-0.25c-2.84-0.14-4.72-0.51-5.57-1.17
						c-0.35-0.27-0.59-0.51-0.71-0.82c-0.15-0.25-0.25-0.55-0.25-0.88c0-0.85,0.5-1.54,1.45-2.14c1.03-0.59,2.36-0.89,3.94-0.89
						c1.5,0,2.96,0.26,4.4,0.77c1.43,0.51,2.75,1.26,4.09,2.28l0.16,0.11l0.06-0.14l1.59-2.17l0.08-0.1l-0.14-0.1
						c-1.55-1.16-3.22-2.01-4.97-2.59c-1.74-0.57-3.54-0.85-5.34-0.85c-2.46,0-4.49,0.57-6.07,1.67c-1.56,1.09-2.33,2.54-2.33,4.26
						c0,0.96,0.25,1.81,0.77,2.62c0.52,0.72,1.31,1.35,2.34,1.8c1.28,0.59,3.72,0.99,7.22,1.27c0.66,0.02,1.21,0.05,1.59,0.12
						c1.53,0.12,2.75,0.49,3.56,1.1c0.87,0.68,1.25,1.44,1.25,2.39c0,1.2-0.54,2.23-1.74,3c-1.19,0.81-2.77,1.22-4.69,1.22
						c-1.55,0-3.18-0.31-4.78-0.9c-1.58-0.59-3.18-1.44-4.62-2.61l-0.15-0.11l-0.13,0.18L290.8,206l-0.11,0.18l0.16,0.09
						C292.5,207.52,294.25,208.45,296.1,209.04"/>
					<path class="st1" d="M104.34,209.41v-20.9l14.3-0.01c2.07,0,3.69,0.52,4.89,1.54c1.18,0.96,1.77,2.37,1.77,4.09
						c0,1.84-0.1,4.14-1.23,5.27c-0.83,0.8-2.2,1.33-3.63,1.57l5.41,8.43l-3.61,0.02l-5.46-8.35h-9.38v8.35H104.34z M107.39,198.23
						l11.05-0.02c1.34,0,2.32-0.28,3.03-0.89c0.71-0.56,1.05-1.39,1.05-2.51c0-1.1-0.34-1.98-1.05-2.55
						c-0.71-0.64-1.62-0.91-2.88-0.91h-11.2V198.23z"/>
					<polygon class="st1" points="257.04,209.41 257.04,188.37 275.93,188.37 275.93,191.5 260.27,191.51 260.22,197.14 
						271.3,197.14 271.3,199.93 260.22,199.93 260.27,206.28 275.93,206.26 275.93,209.41 					"/>
				</g>
				<g>
					<path class="st1" d="M84.94,133.41c0-7.65,7.52-15.35,15.36-15.37h2.99c6.52,0,13.88,8.39,13.88,15.37v1.12
						c0,9.45-6.65,16.84-16.13,16.85h-1.11c-7.59,0-14.99-8.71-14.99-16.45V133.41z M62.47,135.29c0,21.5,17.68,38.94,39.34,38.94
						c20.23,0,37.83-17.82,37.83-37.84l-0.01-6.77c0-3.08-2.99-11.5-4.26-13.72c-2.97-5.08-3.83-6.1-7.82-10.12
						c-5.56-5.52-13.74-10.94-24.64-10.94h-4.5c-17.29,0.02-35.94,18.99-35.94,36.36V135.29z"/>
					<path class="st1" d="M178.85,125.52h-30.29v18.35l25.42,0.35c3.8,0.89,4.01,1.99,4.89,5.63l0.4,22.07l22.19,0.2V144.7
						c0.19-2.5-0.81-3.68-1.93-4.95c-1.03-1.27-5.34-3.23-7.91-3.44h2.21l0,0c7.3-0.63,13.85-8.91,13.85-16.8v-3
						c-0.03-10.64-9.24-19.48-20.22-19.48l-38.94,0.03l0.05,18.75l29.87-0.04c2.92,0,4.55,1.58,4.55,4.5v0.71
						C182.98,123.33,181.19,125.52,178.85,125.52"/>
					<path class="st1" d="M34.07,97.5c-9.06,0-19.37,6.13-24.08,10.77C4.79,113.5,0,122.35,0,132.71l0.03,4.12
						c0,10.34,4.32,18.08,8.83,24.14C12.64,165.94,21.94,172,30.38,172h23.2v-18.34h-7.12c-5.96-0.79-13.1-1.65-17.48-6.07
						c-2.59-2.57-4.6-7.27-4.6-12.27v-1.49c0-16.57,17.67-17.14,29.58-17.62L53.91,97.1L34.07,97.5z"/>
					<polygon class="st1" points="289.65,172.25 264.78,97.05 240.65,97.1 262,154.62 242.45,154.67 250.02,125.16 230.81,125.12 
						216.39,172.24 					"/>
					<polygon class="st1" points="298.55,172.25 344.56,172.24 344.56,153.51 321,153.54 321,116.09 321,97 298.5,97 					"/>
				</g>
			</g>
			<g>
				<path d="M337.42,92.25c-0.51-0.74-1.03-1.39-1.59-1.9c-0.15-0.14-0.36-0.28-0.6-0.43c1.06-0.23,1.91-0.66,2.46-1.25
					c0.68-0.72,1.03-1.62,1.03-2.66c0-0.8-0.2-1.55-0.61-2.22c-0.42-0.68-0.97-1.16-1.66-1.41c-0.68-0.26-1.68-0.4-2.92-0.4h-6.43
					v14.42h2.26v-6.21h1.96c0.45,0,0.8,0.02,0.98,0.06c0.25,0.07,0.53,0.18,0.79,0.33c0.25,0.18,0.54,0.47,0.89,0.9
					c0.34,0.44,0.78,1.09,1.3,1.92l1.92,3h2.83L337.42,92.25z M336.06,87.13c-0.22,0.35-0.55,0.59-0.99,0.77
					c-0.46,0.18-1.11,0.25-1.92,0.25h-3.78v-4.22h4.24c0.97,0,1.69,0.22,2.13,0.59c0.44,0.38,0.66,0.87,0.66,1.48
					C336.41,86.41,336.29,86.77,336.06,87.13z"/>
				<g>
					<path d="M333.33,100.6c-6.2,0-11.24-5.05-11.24-11.23c0-6.2,5.04-11.24,11.24-11.24c6.18,0,11.22,5.04,11.22,11.24
						C344.56,95.56,339.52,100.6,333.33,100.6L333.33,100.6z M333.33,79.41c-5.49,0-9.97,4.46-9.97,9.97c0,5.49,4.48,9.97,9.97,9.97
						c5.49,0,9.97-4.48,9.97-9.97C343.3,83.87,338.83,79.41,333.33,79.41L333.33,79.41z"/>
				</g>
			</g>
		</g>
	</g>
</g>
</svg>
