<?xml version="1.0" encoding="utf-8"?>
<!-- Generator: Adobe Illustrator 26.2.1, SVG Export Plug-In . SVG Version: 6.00 Build 0)  -->
<svg version="1.1" id="Layer_1" xmlns="http://www.w3.org/2000/svg" xmlns:xlink="http://www.w3.org/1999/xlink" x="0px" y="0px"
	 width="12px" height="16px" viewBox="0 0 12 16" style="enable-background:new 0 0 12 16;" xml:space="preserve">
<style type="text/css">
	.st0{fill:none;stroke:#FFFFFF;stroke-width:1.0131;stroke-linecap:round;stroke-miterlimit:10;}
	.st1{fill:none;stroke:#FFFFFF;stroke-width:1.0131;stroke-linecap:round;stroke-linejoin:round;stroke-miterlimit:10;}
	.st2{fill:none;stroke:#FFFFFF;stroke-width:1.0131;stroke-miterlimit:10;}
</style>
<path class="st0" d="M6.1,2.2C3.8,2.2,2,4,2,6.3v2c0,0.4-0.2,1-0.4,1.4l-0.8,1.3c-0.5,0.8-0.1,1.7,0.7,2c2.9,1,6.1,1,9,0
	c0.8-0.3,1.2-1.2,0.7-2l-0.8-1.3c-0.2-0.4-0.4-1-0.4-1.4v-2C10.1,4,8.3,2.2,6.1,2.2z"/>
<path class="st1" d="M7.3,2.4C7.1,2.3,6.9,2.3,6.7,2.3C6,2.2,5.4,2.2,4.8,2.4C5,1.9,5.5,1.5,6.1,1.5S7.1,1.9,7.3,2.4z"/>
<path class="st2" d="M8.1,13.1c0,1.1-0.9,2-2,2c-0.6,0-1.1-0.2-1.4-0.6C4.3,14.2,4,13.7,4,13.1"/>
</svg>
