<svg width="17" height="17" viewBox="0 0 17 17" fill="none" xmlns="http://www.w3.org/2000/svg">
<path d="M8.51375 14.5419C6.86333 14.5419 5.21291 14.2798 3.6475 13.7556C3.0525 13.5502 2.59917 13.1323 2.40083 12.5869C2.19542 12.0414 2.26625 11.4394 2.59208 10.901L3.40666 9.54812C3.57666 9.26478 3.7325 8.69812 3.7325 8.3652V6.31812C3.7325 3.68312 5.87875 1.53687 8.51375 1.53687C11.1487 1.53687 13.295 3.68312 13.295 6.31812V8.3652C13.295 8.69103 13.4508 9.26478 13.6208 9.5552L14.4283 10.901C14.7329 11.411 14.7896 12.0273 14.5842 12.5869C14.3787 13.1464 13.9325 13.5714 13.3729 13.7556C11.8146 14.2798 10.1642 14.5419 8.51375 14.5419ZM8.51375 2.59937C6.46667 2.59937 4.795 4.26395 4.795 6.31812V8.3652C4.795 8.88228 4.5825 9.64728 4.32041 10.0935L3.50583 11.4464C3.35 11.7085 3.3075 11.9848 3.39958 12.2185C3.48458 12.4594 3.69708 12.6435 3.9875 12.7427C6.94833 13.7344 10.0862 13.7344 13.0471 12.7427C13.3021 12.6577 13.5004 12.4664 13.5925 12.2114C13.6846 11.9564 13.6633 11.6802 13.5217 11.4464L12.7071 10.0935C12.4379 9.63312 12.2325 8.8752 12.2325 8.35812V6.31812C12.2325 4.26395 10.5679 2.59937 8.51375 2.59937Z" fill="black"/>
<path d="M9.83177 2.79069C9.78218 2.79069 9.7326 2.78361 9.68302 2.76944C9.4776 2.71278 9.27927 2.67028 9.08802 2.64194C8.48593 2.56403 7.9051 2.60653 7.35968 2.76944C7.16135 2.83319 6.94885 2.76944 6.81427 2.62069C6.67968 2.47194 6.63718 2.25944 6.7151 2.06819C7.00552 1.32444 7.71385 0.835693 8.52135 0.835693C9.32885 0.835693 10.0372 1.31736 10.3276 2.06819C10.3984 2.25944 10.363 2.47194 10.2284 2.62069C10.1222 2.73403 9.97343 2.79069 9.83177 2.79069Z" fill="black"/>
<path d="M8.51416 16.1572C7.81291 16.1572 7.13291 15.8739 6.63708 15.3781C6.14124 14.8822 5.85791 14.2022 5.85791 13.501H6.92041C6.92041 13.9189 7.09041 14.3297 7.38791 14.6272C7.68541 14.9247 8.09624 15.0947 8.51416 15.0947C9.39249 15.0947 10.1079 14.3793 10.1079 13.501H11.1704C11.1704 14.9672 9.98041 16.1572 8.51416 16.1572Z" fill="black"/>
</svg>
