<svg width="132" height="41" viewBox="0 0 132 41" fill="none" xmlns="http://www.w3.org/2000/svg">
<rect width="132" height="41" rx="20.5" fill="white"/>
<g clip-path="url(#clip0_128_5657)">
<path d="M23.6889 11.3152C23.389 11.1485 23.0569 11.0456 22.7141 11.0131C22.3713 10.9806 22.0254 11.0193 21.6987 11.1266C21.372 11.234 21.0718 11.4076 20.8176 11.6362C20.5633 11.8649 20.3607 12.1435 20.2227 12.4541L28.9276 20.9978L33.3588 16.6363L23.6889 11.3152Z" fill="url(#paint0_linear_128_5657)"/>
<path d="M33.3637 25.3688L28.9325 21.0073L20.2227 29.5656C20.3628 29.8719 20.5662 30.1461 20.8198 30.3709C21.0734 30.5957 21.3717 30.7662 21.6958 30.8714C22.0199 30.9767 22.3627 31.0145 22.7024 30.9824C23.0421 30.9503 23.3713 30.8491 23.6692 30.6851L33.3637 25.3688Z" fill="url(#paint1_linear_128_5657)"/>
<path d="M37.4377 23.1154C37.8273 22.9074 38.1526 22.5997 38.3793 22.2248C38.606 21.8499 38.7256 21.4217 38.7256 20.9855C38.7256 20.5492 38.606 20.1211 38.3793 19.7462C38.1526 19.3713 37.8273 19.0636 37.4377 18.8556L33.3609 16.6167L28.9297 20.9782L33.3609 25.3397L37.4377 23.1154Z" fill="url(#paint2_linear_128_5657)"/>
<path d="M20.2216 12.4536C20.0814 12.7585 20.006 13.0883 20 13.4228V28.5525C19.9988 28.9019 20.0744 29.2474 20.2216 29.5653L28.9216 20.9973L20.2216 12.4536Z" fill="url(#paint3_linear_128_5657)"/>
</g>
<mask id="path-6-outside-1_128_5657" maskUnits="userSpaceOnUse" x="45.4531" y="10.3228" width="68" height="21" fill="black">
<rect fill="white" x="45.4531" y="10.3228" width="68" height="21"/>
<path d="M50.4131 15.9017H50.7472L48.7912 11.5819H48.4814L46.5254 15.9017H46.8595L47.4002 14.686H49.8664L50.4131 15.9017ZM47.5216 14.4206L48.6333 11.9275L49.751 14.4206H47.5216Z"/>
<path d="M53.4972 12.6804L52.2216 15.5623L50.9581 12.6804H50.6361L52.0636 15.9017H52.3734L53.807 12.6804H53.4972Z"/>
<path d="M55.4453 12.6557C54.9533 12.6557 54.4916 12.8285 54.1757 13.1124L54.3276 13.3345C54.5888 13.0939 54.9836 12.9272 55.421 12.9272C56.0406 12.9272 56.3625 13.2481 56.3625 13.8467V14.1059H55.2752C54.3944 14.1059 54.0907 14.5194 54.0907 15.0069C54.0907 15.5561 54.522 15.9264 55.2327 15.9264C55.7855 15.9264 56.1742 15.6981 56.3747 15.3278V15.9017H56.6663V13.8591C56.6663 13.063 56.2289 12.6557 55.4453 12.6557ZM55.2752 15.6734C54.7164 15.6734 54.3944 15.4142 54.3944 14.9946C54.3944 14.6243 54.6252 14.3466 55.2813 14.3466H56.3625V14.9514C56.1803 15.4142 55.8098 15.6734 55.2752 15.6734Z"/>
<path d="M58.0695 11.8967C58.2093 11.8967 58.3186 11.7856 58.3186 11.6437C58.3186 11.5079 58.2093 11.3968 58.0695 11.3968C57.9298 11.3968 57.8205 11.5141 57.8205 11.6498C57.8205 11.7856 57.9298 11.8967 58.0695 11.8967ZM57.9177 15.9017H58.2214V12.6804H57.9177V15.9017Z"/>
<path d="M59.5016 15.9017H59.8053V11.3228H59.5016V15.9017Z"/>
<path d="M62.1546 12.6557C61.6625 12.6557 61.2009 12.8285 60.885 13.1124L61.0368 13.3345C61.2981 13.0939 61.6929 12.9272 62.1303 12.9272C62.7499 12.9272 63.0718 13.2481 63.0718 13.8467V14.1059H61.9845C61.1037 14.1059 60.7999 14.5194 60.7999 15.0069C60.7999 15.5561 61.2312 15.9264 61.942 15.9264C62.4947 15.9264 62.8835 15.6981 63.084 15.3278V15.9017H63.3755V13.8591C63.3755 13.063 62.9382 12.6557 62.1546 12.6557ZM61.9845 15.6734C61.4256 15.6734 61.1037 15.4142 61.1037 14.9946C61.1037 14.6243 61.3345 14.3466 61.9906 14.3466H63.0718V14.9514C62.8896 15.4142 62.519 15.6734 61.9845 15.6734Z"/>
<path d="M66.2185 12.6557C65.6596 12.6557 65.1858 12.9334 64.9307 13.4148V11.3228H64.6269V15.9017H64.9185V15.1427C65.1676 15.6363 65.6475 15.9264 66.2185 15.9264C67.1114 15.9264 67.7857 15.2537 67.7857 14.2911C67.7857 13.3222 67.1114 12.6557 66.2185 12.6557ZM66.2002 15.6487C65.4713 15.6487 64.9246 15.0995 64.9246 14.2911C64.9246 13.4826 65.4713 12.9334 66.2002 12.9334C66.9292 12.9334 67.482 13.4826 67.482 14.2911C67.482 15.0995 66.9292 15.6487 66.2002 15.6487Z"/>
<path d="M68.7261 15.9017H69.0298V11.3228H68.7261V15.9017Z"/>
<path d="M72.9949 14.2787C72.9949 13.3222 72.351 12.6557 71.4823 12.6557C70.6137 12.6557 69.9637 13.3345 69.9637 14.2911C69.9637 15.2476 70.638 15.9264 71.5977 15.9264C72.0776 15.9264 72.515 15.7474 72.7944 15.4018L72.6183 15.1982C72.3753 15.5006 72.0047 15.6487 71.6038 15.6487C70.8445 15.6487 70.2917 15.1303 70.2613 14.3651H72.9888C72.9888 14.3342 72.9949 14.3034 72.9949 14.2787ZM71.4823 12.9272C72.1566 12.9272 72.6547 13.4271 72.6972 14.1244H70.2674C70.316 13.4209 70.8081 12.9272 71.4823 12.9272Z"/>
<path d="M77.396 15.9326C78.6595 15.9326 79.6071 15.0007 79.6071 13.7418C79.6071 12.4829 78.6595 11.5511 77.396 11.5511C76.1264 11.5511 75.1849 12.4891 75.1849 13.7418C75.1849 14.9946 76.1264 15.9326 77.396 15.9326ZM77.396 15.6425C76.3086 15.6425 75.4947 14.8341 75.4947 13.7418C75.4947 12.6495 76.3086 11.8411 77.396 11.8411C78.4772 11.8411 79.2912 12.6495 79.2912 13.7418C79.2912 14.8341 78.4772 15.6425 77.396 15.6425Z"/>
<path d="M82.1334 12.6557C81.5321 12.6557 81.0886 12.9272 80.876 13.3777V12.6804H80.5844V15.9017H80.8882V14.1861C80.8882 13.4209 81.3438 12.9334 82.0909 12.9334C82.7348 12.9334 83.1175 13.316 83.1175 14.0442V15.9017H83.4212V14.0195C83.4212 13.1185 82.9049 12.6557 82.1334 12.6557Z"/>
<path d="M52.1551 26.9365C51.6691 27.2218 51.14 27.3315 50.6 27.3315C49.0017 27.3315 47.8678 26.1905 47.8678 24.6327C47.8678 23.0419 49.0017 21.9338 50.6108 21.9338C51.4207 21.9338 52.1011 22.2081 52.695 22.8115L53.5806 21.9338C52.8678 21.111 51.8095 20.6832 50.546 20.6832C48.181 20.6832 46.4531 22.3398 46.4531 24.6327C46.4531 26.9256 48.181 28.5822 50.5244 28.5822C51.5935 28.5822 52.695 28.253 53.4834 27.6058V24.5449H52.1551V26.9365Z"/>
<path d="M57.7972 28.5493C59.5899 28.5493 60.875 27.2986 60.875 25.5432C60.875 23.7879 59.5899 22.5482 57.7972 22.5482C56.0262 22.5482 54.7303 23.7879 54.7303 25.5432C54.7303 27.2986 56.0262 28.5493 57.7972 28.5493ZM57.7972 27.3754C56.8253 27.3754 56.091 26.6623 56.091 25.5432C56.091 24.4242 56.8253 23.7111 57.7972 23.7111C58.7799 23.7111 59.5143 24.4242 59.5143 25.5432C59.5143 26.6623 58.7799 27.3754 57.7972 27.3754Z"/>
<path d="M64.7576 28.5493C66.5503 28.5493 67.8354 27.2986 67.8354 25.5432C67.8354 23.7879 66.5503 22.5482 64.7576 22.5482C62.9866 22.5482 61.6907 23.7879 61.6907 25.5432C61.6907 27.2986 62.9866 28.5493 64.7576 28.5493ZM64.7576 27.3754C63.7857 27.3754 63.0513 26.6623 63.0513 25.5432C63.0513 24.4242 63.7857 23.7111 64.7576 23.7111C65.7403 23.7111 66.4747 24.4242 66.4747 25.5432C66.4747 26.6623 65.7403 27.3754 64.7576 27.3754Z"/>
<path d="M73.5647 22.614V23.393C73.0895 22.8115 72.3768 22.5482 71.5668 22.5482C69.9146 22.5482 68.651 23.6672 68.651 25.3677C68.651 27.0682 69.9146 28.2092 71.5668 28.2092C72.3444 28.2092 73.0247 27.9568 73.4999 27.4302V27.7374C73.4999 28.9223 72.9383 29.5147 71.664 29.5147C70.8649 29.5147 70.0441 29.2404 69.5366 28.8126L68.9318 29.8438C69.5906 30.3924 70.6597 30.6776 71.7396 30.6776C73.7591 30.6776 74.8498 29.7122 74.8498 27.5838V22.614H73.5647ZM71.772 27.0462C70.7461 27.0462 70.0117 26.3661 70.0117 25.3677C70.0117 24.3803 70.7461 23.7111 71.772 23.7111C72.7871 23.7111 73.5215 24.3803 73.5215 25.3677C73.5215 26.3661 72.7871 27.0462 71.772 27.0462Z"/>
<path d="M76.6245 28.4725H77.9744V20.3321H76.6245V28.4725Z"/>
<path d="M85.1673 25.5762C85.1673 23.744 83.9362 22.5482 82.2515 22.5482C80.5344 22.5482 79.2709 23.7989 79.2709 25.5432C79.2709 27.2876 80.5236 28.5493 82.4567 28.5493C83.4502 28.5493 84.2601 28.2201 84.7785 27.5948L84.055 26.75C83.6446 27.1779 83.137 27.3863 82.4891 27.3863C81.4848 27.3863 80.7828 26.8378 80.6208 25.9821H85.1457C85.1565 25.8504 85.1673 25.6859 85.1673 25.5762ZM82.2515 23.6453C83.137 23.6453 83.7742 24.2267 83.8822 25.0715H80.61C80.7396 24.2158 81.3768 23.6453 82.2515 23.6453Z"/>
<path d="M92.6882 20.7929H89.578V28.4725H90.9819V26.2563H92.6882C94.6753 26.2563 95.9064 25.2141 95.9064 23.5246C95.9064 21.8241 94.6753 20.7929 92.6882 20.7929ZM92.6234 25.0496H90.9819V21.9997H92.6234C93.8545 21.9997 94.4917 22.5592 94.4917 23.5246C94.4917 24.49 93.8545 25.0496 92.6234 25.0496Z"/>
<path d="M97.2842 28.4725H98.6341V20.3321H97.2842V28.4725Z"/>
<path d="M102.609 22.5482C101.68 22.5482 100.784 22.7896 100.168 23.2723L100.697 24.2706C101.129 23.9086 101.799 23.6892 102.447 23.6892C103.408 23.6892 103.883 24.1609 103.883 24.9618V25.0496H102.393C100.643 25.0496 99.9954 25.8175 99.9954 26.7939C99.9954 27.8142 100.827 28.5493 102.144 28.5493C103.008 28.5493 103.635 28.264 103.959 27.7594V28.4725H105.233V25.0386C105.233 23.3491 104.272 22.5482 102.609 22.5482ZM102.425 27.5509C101.734 27.5509 101.324 27.2328 101.324 26.7391C101.324 26.3112 101.572 25.9601 102.49 25.9601H103.883V26.6403C103.656 27.2437 103.084 27.5509 102.425 27.5509Z"/>
<path d="M110.964 22.614L109.139 26.9475L107.324 22.614H105.92L108.437 28.4944L108.339 28.7248C108.08 29.3062 107.8 29.5366 107.324 29.5366C106.957 29.5366 106.59 29.383 106.331 29.1307L105.791 30.14C106.158 30.4801 106.763 30.6776 107.335 30.6776C108.296 30.6776 109.031 30.2717 109.56 28.9442L112.26 22.614H110.964Z"/>
</mask>
<path d="M50.4131 15.9017H50.7472L48.7912 11.5819H48.4814L46.5254 15.9017H46.8595L47.4002 14.686H49.8664L50.4131 15.9017ZM47.5216 14.4206L48.6333 11.9275L49.751 14.4206H47.5216Z" fill="black"/>
<path d="M53.4972 12.6804L52.2216 15.5623L50.9581 12.6804H50.6361L52.0636 15.9017H52.3734L53.807 12.6804H53.4972Z" fill="black"/>
<path d="M55.4453 12.6557C54.9533 12.6557 54.4916 12.8285 54.1757 13.1124L54.3276 13.3345C54.5888 13.0939 54.9836 12.9272 55.421 12.9272C56.0406 12.9272 56.3625 13.2481 56.3625 13.8467V14.1059H55.2752C54.3944 14.1059 54.0907 14.5194 54.0907 15.0069C54.0907 15.5561 54.522 15.9264 55.2327 15.9264C55.7855 15.9264 56.1742 15.6981 56.3747 15.3278V15.9017H56.6663V13.8591C56.6663 13.063 56.2289 12.6557 55.4453 12.6557ZM55.2752 15.6734C54.7164 15.6734 54.3944 15.4142 54.3944 14.9946C54.3944 14.6243 54.6252 14.3466 55.2813 14.3466H56.3625V14.9514C56.1803 15.4142 55.8098 15.6734 55.2752 15.6734Z" fill="black"/>
<path d="M58.0695 11.8967C58.2093 11.8967 58.3186 11.7856 58.3186 11.6437C58.3186 11.5079 58.2093 11.3968 58.0695 11.3968C57.9298 11.3968 57.8205 11.5141 57.8205 11.6498C57.8205 11.7856 57.9298 11.8967 58.0695 11.8967ZM57.9177 15.9017H58.2214V12.6804H57.9177V15.9017Z" fill="black"/>
<path d="M59.5016 15.9017H59.8053V11.3228H59.5016V15.9017Z" fill="black"/>
<path d="M62.1546 12.6557C61.6625 12.6557 61.2009 12.8285 60.885 13.1124L61.0368 13.3345C61.2981 13.0939 61.6929 12.9272 62.1303 12.9272C62.7499 12.9272 63.0718 13.2481 63.0718 13.8467V14.1059H61.9845C61.1037 14.1059 60.7999 14.5194 60.7999 15.0069C60.7999 15.5561 61.2312 15.9264 61.942 15.9264C62.4947 15.9264 62.8835 15.6981 63.084 15.3278V15.9017H63.3755V13.8591C63.3755 13.063 62.9382 12.6557 62.1546 12.6557ZM61.9845 15.6734C61.4256 15.6734 61.1037 15.4142 61.1037 14.9946C61.1037 14.6243 61.3345 14.3466 61.9906 14.3466H63.0718V14.9514C62.8896 15.4142 62.519 15.6734 61.9845 15.6734Z" fill="black"/>
<path d="M66.2185 12.6557C65.6596 12.6557 65.1858 12.9334 64.9307 13.4148V11.3228H64.6269V15.9017H64.9185V15.1427C65.1676 15.6363 65.6475 15.9264 66.2185 15.9264C67.1114 15.9264 67.7857 15.2537 67.7857 14.2911C67.7857 13.3222 67.1114 12.6557 66.2185 12.6557ZM66.2002 15.6487C65.4713 15.6487 64.9246 15.0995 64.9246 14.2911C64.9246 13.4826 65.4713 12.9334 66.2002 12.9334C66.9292 12.9334 67.482 13.4826 67.482 14.2911C67.482 15.0995 66.9292 15.6487 66.2002 15.6487Z" fill="black"/>
<path d="M68.7261 15.9017H69.0298V11.3228H68.7261V15.9017Z" fill="black"/>
<path d="M72.9949 14.2787C72.9949 13.3222 72.351 12.6557 71.4823 12.6557C70.6137 12.6557 69.9637 13.3345 69.9637 14.2911C69.9637 15.2476 70.638 15.9264 71.5977 15.9264C72.0776 15.9264 72.515 15.7474 72.7944 15.4018L72.6183 15.1982C72.3753 15.5006 72.0047 15.6487 71.6038 15.6487C70.8445 15.6487 70.2917 15.1303 70.2613 14.3651H72.9888C72.9888 14.3342 72.9949 14.3034 72.9949 14.2787ZM71.4823 12.9272C72.1566 12.9272 72.6547 13.4271 72.6972 14.1244H70.2674C70.316 13.4209 70.8081 12.9272 71.4823 12.9272Z" fill="black"/>
<path d="M77.396 15.9326C78.6595 15.9326 79.6071 15.0007 79.6071 13.7418C79.6071 12.4829 78.6595 11.5511 77.396 11.5511C76.1264 11.5511 75.1849 12.4891 75.1849 13.7418C75.1849 14.9946 76.1264 15.9326 77.396 15.9326ZM77.396 15.6425C76.3086 15.6425 75.4947 14.8341 75.4947 13.7418C75.4947 12.6495 76.3086 11.8411 77.396 11.8411C78.4772 11.8411 79.2912 12.6495 79.2912 13.7418C79.2912 14.8341 78.4772 15.6425 77.396 15.6425Z" fill="black"/>
<path d="M82.1334 12.6557C81.5321 12.6557 81.0886 12.9272 80.876 13.3777V12.6804H80.5844V15.9017H80.8882V14.1861C80.8882 13.4209 81.3438 12.9334 82.0909 12.9334C82.7348 12.9334 83.1175 13.316 83.1175 14.0442V15.9017H83.4212V14.0195C83.4212 13.1185 82.9049 12.6557 82.1334 12.6557Z" fill="black"/>
<path d="M52.1551 26.9365C51.6691 27.2218 51.14 27.3315 50.6 27.3315C49.0017 27.3315 47.8678 26.1905 47.8678 24.6327C47.8678 23.0419 49.0017 21.9338 50.6108 21.9338C51.4207 21.9338 52.1011 22.2081 52.695 22.8115L53.5806 21.9338C52.8678 21.111 51.8095 20.6832 50.546 20.6832C48.181 20.6832 46.4531 22.3398 46.4531 24.6327C46.4531 26.9256 48.181 28.5822 50.5244 28.5822C51.5935 28.5822 52.695 28.253 53.4834 27.6058V24.5449H52.1551V26.9365Z" fill="black"/>
<path d="M57.7972 28.5493C59.5899 28.5493 60.875 27.2986 60.875 25.5432C60.875 23.7879 59.5899 22.5482 57.7972 22.5482C56.0262 22.5482 54.7303 23.7879 54.7303 25.5432C54.7303 27.2986 56.0262 28.5493 57.7972 28.5493ZM57.7972 27.3754C56.8253 27.3754 56.091 26.6623 56.091 25.5432C56.091 24.4242 56.8253 23.7111 57.7972 23.7111C58.7799 23.7111 59.5143 24.4242 59.5143 25.5432C59.5143 26.6623 58.7799 27.3754 57.7972 27.3754Z" fill="black"/>
<path d="M64.7576 28.5493C66.5503 28.5493 67.8354 27.2986 67.8354 25.5432C67.8354 23.7879 66.5503 22.5482 64.7576 22.5482C62.9866 22.5482 61.6907 23.7879 61.6907 25.5432C61.6907 27.2986 62.9866 28.5493 64.7576 28.5493ZM64.7576 27.3754C63.7857 27.3754 63.0513 26.6623 63.0513 25.5432C63.0513 24.4242 63.7857 23.7111 64.7576 23.7111C65.7403 23.7111 66.4747 24.4242 66.4747 25.5432C66.4747 26.6623 65.7403 27.3754 64.7576 27.3754Z" fill="black"/>
<path d="M73.5647 22.614V23.393C73.0895 22.8115 72.3768 22.5482 71.5668 22.5482C69.9146 22.5482 68.651 23.6672 68.651 25.3677C68.651 27.0682 69.9146 28.2092 71.5668 28.2092C72.3444 28.2092 73.0247 27.9568 73.4999 27.4302V27.7374C73.4999 28.9223 72.9383 29.5147 71.664 29.5147C70.8649 29.5147 70.0441 29.2404 69.5366 28.8126L68.9318 29.8438C69.5906 30.3924 70.6597 30.6776 71.7396 30.6776C73.7591 30.6776 74.8498 29.7122 74.8498 27.5838V22.614H73.5647ZM71.772 27.0462C70.7461 27.0462 70.0117 26.3661 70.0117 25.3677C70.0117 24.3803 70.7461 23.7111 71.772 23.7111C72.7871 23.7111 73.5215 24.3803 73.5215 25.3677C73.5215 26.3661 72.7871 27.0462 71.772 27.0462Z" fill="black"/>
<path d="M76.6245 28.4725H77.9744V20.3321H76.6245V28.4725Z" fill="black"/>
<path d="M85.1673 25.5762C85.1673 23.744 83.9362 22.5482 82.2515 22.5482C80.5344 22.5482 79.2709 23.7989 79.2709 25.5432C79.2709 27.2876 80.5236 28.5493 82.4567 28.5493C83.4502 28.5493 84.2601 28.2201 84.7785 27.5948L84.055 26.75C83.6446 27.1779 83.137 27.3863 82.4891 27.3863C81.4848 27.3863 80.7828 26.8378 80.6208 25.9821H85.1457C85.1565 25.8504 85.1673 25.6859 85.1673 25.5762ZM82.2515 23.6453C83.137 23.6453 83.7742 24.2267 83.8822 25.0715H80.61C80.7396 24.2158 81.3768 23.6453 82.2515 23.6453Z" fill="black"/>
<path d="M92.6882 20.7929H89.578V28.4725H90.9819V26.2563H92.6882C94.6753 26.2563 95.9064 25.2141 95.9064 23.5246C95.9064 21.8241 94.6753 20.7929 92.6882 20.7929ZM92.6234 25.0496H90.9819V21.9997H92.6234C93.8545 21.9997 94.4917 22.5592 94.4917 23.5246C94.4917 24.49 93.8545 25.0496 92.6234 25.0496Z" fill="black"/>
<path d="M97.2842 28.4725H98.6341V20.3321H97.2842V28.4725Z" fill="black"/>
<path d="M102.609 22.5482C101.68 22.5482 100.784 22.7896 100.168 23.2723L100.697 24.2706C101.129 23.9086 101.799 23.6892 102.447 23.6892C103.408 23.6892 103.883 24.1609 103.883 24.9618V25.0496H102.393C100.643 25.0496 99.9954 25.8175 99.9954 26.7939C99.9954 27.8142 100.827 28.5493 102.144 28.5493C103.008 28.5493 103.635 28.264 103.959 27.7594V28.4725H105.233V25.0386C105.233 23.3491 104.272 22.5482 102.609 22.5482ZM102.425 27.5509C101.734 27.5509 101.324 27.2328 101.324 26.7391C101.324 26.3112 101.572 25.9601 102.49 25.9601H103.883V26.6403C103.656 27.2437 103.084 27.5509 102.425 27.5509Z" fill="black"/>
<path d="M110.964 22.614L109.139 26.9475L107.324 22.614H105.92L108.437 28.4944L108.339 28.7248C108.08 29.3062 107.8 29.5366 107.324 29.5366C106.957 29.5366 106.59 29.383 106.331 29.1307L105.791 30.14C106.158 30.4801 106.763 30.6776 107.335 30.6776C108.296 30.6776 109.031 30.2717 109.56 28.9442L112.26 22.614H110.964Z" fill="black"/>
<path d="M50.4131 15.9017H50.7472L48.7912 11.5819H48.4814L46.5254 15.9017H46.8595L47.4002 14.686H49.8664L50.4131 15.9017ZM47.5216 14.4206L48.6333 11.9275L49.751 14.4206H47.5216Z" stroke="black" stroke-width="0.4" mask="url(#path-6-outside-1_128_5657)"/>
<path d="M53.4972 12.6804L52.2216 15.5623L50.9581 12.6804H50.6361L52.0636 15.9017H52.3734L53.807 12.6804H53.4972Z" stroke="black" stroke-width="0.4" mask="url(#path-6-outside-1_128_5657)"/>
<path d="M55.4453 12.6557C54.9533 12.6557 54.4916 12.8285 54.1757 13.1124L54.3276 13.3345C54.5888 13.0939 54.9836 12.9272 55.421 12.9272C56.0406 12.9272 56.3625 13.2481 56.3625 13.8467V14.1059H55.2752C54.3944 14.1059 54.0907 14.5194 54.0907 15.0069C54.0907 15.5561 54.522 15.9264 55.2327 15.9264C55.7855 15.9264 56.1742 15.6981 56.3747 15.3278V15.9017H56.6663V13.8591C56.6663 13.063 56.2289 12.6557 55.4453 12.6557ZM55.2752 15.6734C54.7164 15.6734 54.3944 15.4142 54.3944 14.9946C54.3944 14.6243 54.6252 14.3466 55.2813 14.3466H56.3625V14.9514C56.1803 15.4142 55.8098 15.6734 55.2752 15.6734Z" stroke="black" stroke-width="0.4" mask="url(#path-6-outside-1_128_5657)"/>
<path d="M58.0695 11.8967C58.2093 11.8967 58.3186 11.7856 58.3186 11.6437C58.3186 11.5079 58.2093 11.3968 58.0695 11.3968C57.9298 11.3968 57.8205 11.5141 57.8205 11.6498C57.8205 11.7856 57.9298 11.8967 58.0695 11.8967ZM57.9177 15.9017H58.2214V12.6804H57.9177V15.9017Z" stroke="black" stroke-width="0.4" mask="url(#path-6-outside-1_128_5657)"/>
<path d="M59.5016 15.9017H59.8053V11.3228H59.5016V15.9017Z" stroke="black" stroke-width="0.4" mask="url(#path-6-outside-1_128_5657)"/>
<path d="M62.1546 12.6557C61.6625 12.6557 61.2009 12.8285 60.885 13.1124L61.0368 13.3345C61.2981 13.0939 61.6929 12.9272 62.1303 12.9272C62.7499 12.9272 63.0718 13.2481 63.0718 13.8467V14.1059H61.9845C61.1037 14.1059 60.7999 14.5194 60.7999 15.0069C60.7999 15.5561 61.2312 15.9264 61.942 15.9264C62.4947 15.9264 62.8835 15.6981 63.084 15.3278V15.9017H63.3755V13.8591C63.3755 13.063 62.9382 12.6557 62.1546 12.6557ZM61.9845 15.6734C61.4256 15.6734 61.1037 15.4142 61.1037 14.9946C61.1037 14.6243 61.3345 14.3466 61.9906 14.3466H63.0718V14.9514C62.8896 15.4142 62.519 15.6734 61.9845 15.6734Z" stroke="black" stroke-width="0.4" mask="url(#path-6-outside-1_128_5657)"/>
<path d="M66.2185 12.6557C65.6596 12.6557 65.1858 12.9334 64.9307 13.4148V11.3228H64.6269V15.9017H64.9185V15.1427C65.1676 15.6363 65.6475 15.9264 66.2185 15.9264C67.1114 15.9264 67.7857 15.2537 67.7857 14.2911C67.7857 13.3222 67.1114 12.6557 66.2185 12.6557ZM66.2002 15.6487C65.4713 15.6487 64.9246 15.0995 64.9246 14.2911C64.9246 13.4826 65.4713 12.9334 66.2002 12.9334C66.9292 12.9334 67.482 13.4826 67.482 14.2911C67.482 15.0995 66.9292 15.6487 66.2002 15.6487Z" stroke="black" stroke-width="0.4" mask="url(#path-6-outside-1_128_5657)"/>
<path d="M68.7261 15.9017H69.0298V11.3228H68.7261V15.9017Z" stroke="black" stroke-width="0.4" mask="url(#path-6-outside-1_128_5657)"/>
<path d="M72.9949 14.2787C72.9949 13.3222 72.351 12.6557 71.4823 12.6557C70.6137 12.6557 69.9637 13.3345 69.9637 14.2911C69.9637 15.2476 70.638 15.9264 71.5977 15.9264C72.0776 15.9264 72.515 15.7474 72.7944 15.4018L72.6183 15.1982C72.3753 15.5006 72.0047 15.6487 71.6038 15.6487C70.8445 15.6487 70.2917 15.1303 70.2613 14.3651H72.9888C72.9888 14.3342 72.9949 14.3034 72.9949 14.2787ZM71.4823 12.9272C72.1566 12.9272 72.6547 13.4271 72.6972 14.1244H70.2674C70.316 13.4209 70.8081 12.9272 71.4823 12.9272Z" stroke="black" stroke-width="0.4" mask="url(#path-6-outside-1_128_5657)"/>
<path d="M77.396 15.9326C78.6595 15.9326 79.6071 15.0007 79.6071 13.7418C79.6071 12.4829 78.6595 11.5511 77.396 11.5511C76.1264 11.5511 75.1849 12.4891 75.1849 13.7418C75.1849 14.9946 76.1264 15.9326 77.396 15.9326ZM77.396 15.6425C76.3086 15.6425 75.4947 14.8341 75.4947 13.7418C75.4947 12.6495 76.3086 11.8411 77.396 11.8411C78.4772 11.8411 79.2912 12.6495 79.2912 13.7418C79.2912 14.8341 78.4772 15.6425 77.396 15.6425Z" stroke="black" stroke-width="0.4" mask="url(#path-6-outside-1_128_5657)"/>
<path d="M82.1334 12.6557C81.5321 12.6557 81.0886 12.9272 80.876 13.3777V12.6804H80.5844V15.9017H80.8882V14.1861C80.8882 13.4209 81.3438 12.9334 82.0909 12.9334C82.7348 12.9334 83.1175 13.316 83.1175 14.0442V15.9017H83.4212V14.0195C83.4212 13.1185 82.9049 12.6557 82.1334 12.6557Z" stroke="black" stroke-width="0.4" mask="url(#path-6-outside-1_128_5657)"/>
<path d="M52.1551 26.9365C51.6691 27.2218 51.14 27.3315 50.6 27.3315C49.0017 27.3315 47.8678 26.1905 47.8678 24.6327C47.8678 23.0419 49.0017 21.9338 50.6108 21.9338C51.4207 21.9338 52.1011 22.2081 52.695 22.8115L53.5806 21.9338C52.8678 21.111 51.8095 20.6832 50.546 20.6832C48.181 20.6832 46.4531 22.3398 46.4531 24.6327C46.4531 26.9256 48.181 28.5822 50.5244 28.5822C51.5935 28.5822 52.695 28.253 53.4834 27.6058V24.5449H52.1551V26.9365Z" stroke="black" stroke-width="0.4" mask="url(#path-6-outside-1_128_5657)"/>
<path d="M57.7972 28.5493C59.5899 28.5493 60.875 27.2986 60.875 25.5432C60.875 23.7879 59.5899 22.5482 57.7972 22.5482C56.0262 22.5482 54.7303 23.7879 54.7303 25.5432C54.7303 27.2986 56.0262 28.5493 57.7972 28.5493ZM57.7972 27.3754C56.8253 27.3754 56.091 26.6623 56.091 25.5432C56.091 24.4242 56.8253 23.7111 57.7972 23.7111C58.7799 23.7111 59.5143 24.4242 59.5143 25.5432C59.5143 26.6623 58.7799 27.3754 57.7972 27.3754Z" stroke="black" stroke-width="0.4" mask="url(#path-6-outside-1_128_5657)"/>
<path d="M64.7576 28.5493C66.5503 28.5493 67.8354 27.2986 67.8354 25.5432C67.8354 23.7879 66.5503 22.5482 64.7576 22.5482C62.9866 22.5482 61.6907 23.7879 61.6907 25.5432C61.6907 27.2986 62.9866 28.5493 64.7576 28.5493ZM64.7576 27.3754C63.7857 27.3754 63.0513 26.6623 63.0513 25.5432C63.0513 24.4242 63.7857 23.7111 64.7576 23.7111C65.7403 23.7111 66.4747 24.4242 66.4747 25.5432C66.4747 26.6623 65.7403 27.3754 64.7576 27.3754Z" stroke="black" stroke-width="0.4" mask="url(#path-6-outside-1_128_5657)"/>
<path d="M73.5647 22.614V23.393C73.0895 22.8115 72.3768 22.5482 71.5668 22.5482C69.9146 22.5482 68.651 23.6672 68.651 25.3677C68.651 27.0682 69.9146 28.2092 71.5668 28.2092C72.3444 28.2092 73.0247 27.9568 73.4999 27.4302V27.7374C73.4999 28.9223 72.9383 29.5147 71.664 29.5147C70.8649 29.5147 70.0441 29.2404 69.5366 28.8126L68.9318 29.8438C69.5906 30.3924 70.6597 30.6776 71.7396 30.6776C73.7591 30.6776 74.8498 29.7122 74.8498 27.5838V22.614H73.5647ZM71.772 27.0462C70.7461 27.0462 70.0117 26.3661 70.0117 25.3677C70.0117 24.3803 70.7461 23.7111 71.772 23.7111C72.7871 23.7111 73.5215 24.3803 73.5215 25.3677C73.5215 26.3661 72.7871 27.0462 71.772 27.0462Z" stroke="black" stroke-width="0.4" mask="url(#path-6-outside-1_128_5657)"/>
<path d="M76.6245 28.4725H77.9744V20.3321H76.6245V28.4725Z" stroke="black" stroke-width="0.4" mask="url(#path-6-outside-1_128_5657)"/>
<path d="M85.1673 25.5762C85.1673 23.744 83.9362 22.5482 82.2515 22.5482C80.5344 22.5482 79.2709 23.7989 79.2709 25.5432C79.2709 27.2876 80.5236 28.5493 82.4567 28.5493C83.4502 28.5493 84.2601 28.2201 84.7785 27.5948L84.055 26.75C83.6446 27.1779 83.137 27.3863 82.4891 27.3863C81.4848 27.3863 80.7828 26.8378 80.6208 25.9821H85.1457C85.1565 25.8504 85.1673 25.6859 85.1673 25.5762ZM82.2515 23.6453C83.137 23.6453 83.7742 24.2267 83.8822 25.0715H80.61C80.7396 24.2158 81.3768 23.6453 82.2515 23.6453Z" stroke="black" stroke-width="0.4" mask="url(#path-6-outside-1_128_5657)"/>
<path d="M92.6882 20.7929H89.578V28.4725H90.9819V26.2563H92.6882C94.6753 26.2563 95.9064 25.2141 95.9064 23.5246C95.9064 21.8241 94.6753 20.7929 92.6882 20.7929ZM92.6234 25.0496H90.9819V21.9997H92.6234C93.8545 21.9997 94.4917 22.5592 94.4917 23.5246C94.4917 24.49 93.8545 25.0496 92.6234 25.0496Z" stroke="black" stroke-width="0.4" mask="url(#path-6-outside-1_128_5657)"/>
<path d="M97.2842 28.4725H98.6341V20.3321H97.2842V28.4725Z" stroke="black" stroke-width="0.4" mask="url(#path-6-outside-1_128_5657)"/>
<path d="M102.609 22.5482C101.68 22.5482 100.784 22.7896 100.168 23.2723L100.697 24.2706C101.129 23.9086 101.799 23.6892 102.447 23.6892C103.408 23.6892 103.883 24.1609 103.883 24.9618V25.0496H102.393C100.643 25.0496 99.9954 25.8175 99.9954 26.7939C99.9954 27.8142 100.827 28.5493 102.144 28.5493C103.008 28.5493 103.635 28.264 103.959 27.7594V28.4725H105.233V25.0386C105.233 23.3491 104.272 22.5482 102.609 22.5482ZM102.425 27.5509C101.734 27.5509 101.324 27.2328 101.324 26.7391C101.324 26.3112 101.572 25.9601 102.49 25.9601H103.883V26.6403C103.656 27.2437 103.084 27.5509 102.425 27.5509Z" stroke="black" stroke-width="0.4" mask="url(#path-6-outside-1_128_5657)"/>
<path d="M110.964 22.614L109.139 26.9475L107.324 22.614H105.92L108.437 28.4944L108.339 28.7248C108.08 29.3062 107.8 29.5366 107.324 29.5366C106.957 29.5366 106.59 29.383 106.331 29.1307L105.791 30.14C106.158 30.4801 106.763 30.6776 107.335 30.6776C108.296 30.6776 109.031 30.2717 109.56 28.9442L112.26 22.614H110.964Z" stroke="black" stroke-width="0.4" mask="url(#path-6-outside-1_128_5657)"/>
<defs>
<linearGradient id="paint0_linear_128_5657" x1="25.9586" y1="10.9421" x2="29.3983" y2="26.2311" gradientUnits="userSpaceOnUse">
<stop stop-color="#35AB4A"/>
<stop offset="0.3" stop-color="#31A145"/>
<stop offset="0.8" stop-color="#288739"/>
<stop offset="1" stop-color="#237A33"/>
</linearGradient>
<linearGradient id="paint1_linear_128_5657" x1="26.4806" y1="20.9346" x2="27.4489" y2="41.8084" gradientUnits="userSpaceOnUse">
<stop stop-color="#F14E5D"/>
<stop offset="0.5" stop-color="#EA3D4F"/>
<stop offset="1" stop-color="#E12138"/>
</linearGradient>
<linearGradient id="paint2_linear_128_5657" x1="33.2625" y1="16.5925" x2="34.9804" y2="30.5125" gradientUnits="userSpaceOnUse">
<stop stop-color="#FFD844"/>
<stop offset="0.52" stop-color="#FFC63F"/>
<stop offset="1" stop-color="#FFB03A"/>
</linearGradient>
<linearGradient id="paint3_linear_128_5657" x1="23.865" y1="12.2307" x2="24.6855" y2="30.119" gradientUnits="userSpaceOnUse">
<stop stop-color="#0090E6"/>
<stop offset="1" stop-color="#0065A0"/>
</linearGradient>
<clipPath id="clip0_128_5657">
<rect width="18.7097" height="20" fill="white" transform="translate(20 11)"/>
</clipPath>
</defs>
</svg>
