<svg width="30" height="29" viewBox="0 0 30 29" fill="none" xmlns="http://www.w3.org/2000/svg">
<path d="M14.2243 20.075V16.15H10.2993C10.0493 16.15 9.82432 15.925 9.82432 15.675V14.975C9.82432 14.725 10.0493 14.5 10.2993 14.5H14.2243V10.55C14.2243 10.3 14.4493 10.1 14.6993 10.1H15.3993C15.6493 10.1 15.8743 10.3 15.8743 10.55V14.5H19.8243C20.0743 14.5 20.2743 14.725 20.2743 14.975V15.675C20.2743 15.925 20.0743 16.15 19.8243 16.15H15.8743V20.075C15.8743 20.325 15.6493 20.525 15.3993 20.525H14.6993C14.4493 20.525 14.2243 20.325 14.2243 20.075Z" fill="black"/>
<rect x="1.04443" y="0.5" width="28" height="28" rx="14" stroke="black"/>
</svg>
