<svg width="67" height="491" viewBox="0 0 67 491" fill="none" xmlns="http://www.w3.org/2000/svg">
<path d="M0 12C0 5.37257 5.37258 0 12 0H67V490.026H12C5.37258 490.026 0 484.654 0 478.026V12Z" fill="black"/>
<path d="M37.0488 39.84L30.5288 33.32C29.7588 32.55 29.7588 31.29 30.5288 30.52L37.0488 24" stroke="white" stroke-width="1.5" stroke-miterlimit="10" stroke-linecap="round" stroke-linejoin="round"/>
<path d="M25.5703 61.673L34.7329 64.9193C34.7742 64.934 34.8186 64.9371 34.8615 64.9284C34.9044 64.9197 34.9441 64.8995 34.9764 64.87C35.0087 64.8404 35.0323 64.8026 35.0448 64.7607C35.0572 64.7187 35.058 64.6742 35.047 64.6318L33.955 60.3902C33.9446 60.3497 33.9449 60.3071 33.9559 60.2668C33.9669 60.2264 33.9882 60.1896 34.0177 60.1599C34.0473 60.1303 34.084 60.1088 34.1243 60.0977C34.1646 60.0865 34.2072 60.086 34.2478 60.0962L43.6528 62.4695C43.9255 62.5382 44.0755 62.1644 43.8308 62.0259L31.1996 54.8708C31.1598 54.8485 31.1146 54.838 31.0691 54.8403C31.0237 54.8427 30.9798 54.8579 30.9425 54.8841C30.9053 54.9103 30.8763 54.9465 30.8588 54.9886C30.8413 55.0306 30.836 55.0767 30.8437 55.1216L31.7141 60.1645C31.7218 60.2095 31.7166 60.2559 31.6991 60.2981C31.6815 60.3403 31.6523 60.3766 31.6149 60.4029C31.5774 60.4291 31.5333 60.4442 31.4876 60.4464C31.4419 60.4486 31.3966 60.4377 31.3568 60.4151L23.4053 55.8832C23.3612 55.8585 23.3106 55.8482 23.2604 55.8537C23.2102 55.8593 23.1631 55.8805 23.1256 55.9143C23.0881 55.9481 23.0621 55.9928 23.0514 56.0421C23.0407 56.0915 23.0457 56.1429 23.0658 56.1892L25.4302 61.5431C25.4435 61.5732 25.4628 61.6002 25.4869 61.6225C25.511 61.6449 25.5394 61.662 25.5703 61.673Z" fill="url(#paint0_linear_1319_12490)"/>
<path d="M40.62 443.233L27.38 443.233C27.18 443.233 27 443.073 27 442.853L27 434.713C27 434.493 27.18 434.333 27.38 434.333L29.02 434.333C29.22 434.333 29.4 434.493 29.4 434.713L29.4 440.633L32.68 440.633L32.68 435.693C32.68 435.493 32.86 435.313 33.06 435.313L34.72 435.313C34.94 435.313 35.1 435.493 35.1 435.693L35.1 440.633L38.6 440.633L38.6 434.713C38.6 434.493 38.78 434.333 38.98 434.333L40.62 434.333C40.82 434.333 41 434.493 41 434.713L41 442.853C41 443.073 40.82 443.233 40.62 443.233ZM40.44 426.31L33.82 422.15L27.56 426.15C27.3 426.31 27 426.15 27 425.81L27 423.49C27 423.33 27.1 423.23 27.18 423.17L31.42 420.65L31.42 420.57L27.18 417.99C27.1 417.95 27 417.83 27 417.67L27 415.35C27 415.01 27.3 414.85 27.56 415.01L33.82 419.03L40.44 414.87C40.72 414.71 41 414.87 41 415.21L41 417.37C41 417.53 40.9 417.67 40.82 417.71L36.24 420.57L36.24 420.65L40.82 423.45C40.9 423.51 41 423.63 41 423.79L41 425.95C41 426.31 40.7 426.47 40.44 426.31ZM34.02 407.22C30.02 407.22 26.8 404 26.8 400C26.8 397.98 27.44 396.52 28.66 395.16C28.82 394.98 29.06 394.98 29.22 395.14L30.48 396.36C30.64 396.5 30.64 396.7 30.48 396.86C29.74 397.7 29.3 398.82 29.3 399.94C29.3 402.5 31.44 404.4 33.96 404.4C36.46 404.4 38.58 402.48 38.58 399.92C38.58 398.72 38.12 397.7 37.44 396.86C37.3 396.7 37.32 396.48 37.44 396.36L38.72 395.12C38.86 394.96 39.12 395 39.26 395.14C40.58 396.5 41.2 398.22 41.2 400C41.2 404 38.02 407.22 34.02 407.22ZM40.62 386.031L27.38 386.031C27.18 386.031 27 385.871 27 385.651L27 383.811C27 383.611 27.18 383.431 27.38 383.431L38.6 383.431L38.6 378.331C38.6 378.111 38.78 377.951 38.98 377.951L40.62 377.951C40.82 377.951 41 378.111 41 378.331L41 385.651C41 385.871 40.82 386.031 40.62 386.031ZM35.86 369.786L27.38 369.786C27.18 369.786 27 369.606 27 369.406L27 367.506C27 367.286 27.18 367.126 27.38 367.126L35.72 367.126C37.42 367.126 38.6 365.966 38.6 364.226C38.6 362.486 37.42 361.306 35.74 361.306L27.38 361.306C27.18 361.306 27 361.146 27 360.926L27 359.026C27 358.826 27.18 358.646 27.38 358.646L35.86 358.646C38.9 358.646 41.2 361.066 41.2 364.226C41.2 367.366 38.9 369.786 35.86 369.786ZM41.2 344.968C41.2 347.488 40.14 348.788 39.64 349.368C39.48 349.568 39.36 349.648 39.04 349.468L37.8 348.748C37.52 348.588 37.52 348.248 37.66 348.068C38.28 347.248 38.9 346.348 38.9 345.048C38.9 344.008 38.22 343.228 37.36 343.228C36.34 343.228 35.64 344.088 34.96 345.768C34.2 347.648 33 349.528 30.64 349.528C28.86 349.528 26.8 348.208 26.8 345.028C26.8 342.988 27.84 341.428 28.14 341.028C28.26 340.828 28.6 340.768 28.8 340.908L29.94 341.668C30.18 341.828 30.34 342.128 30.18 342.368C29.64 343.228 29.08 344.048 29.08 345.148C29.08 346.288 29.72 346.908 30.48 346.908C31.42 346.908 32.06 346.168 32.72 344.548C33.5 342.608 34.66 340.368 37.24 340.368C39.3 340.368 41.2 342.148 41.2 344.968ZM40.62 331.29L27.38 331.29C27.18 331.29 27 331.11 27 330.91L27 329.05C27 328.85 27.18 328.67 27.38 328.67L40.62 328.67C40.82 328.67 41 328.85 41 329.05L41 330.91C41 331.11 40.82 331.29 40.62 331.29ZM40.98 314.174L27.52 320.354C27.26 320.474 27 320.314 27 320.014L27 317.974C27 317.794 27.12 317.674 27.22 317.634L35.82 313.774L35.82 313.674L27.22 309.814C27.12 309.774 27 309.654 27 309.474L27 307.434C27 307.134 27.26 306.974 27.52 307.094L40.98 313.294C41.1 313.354 41.2 313.454 41.2 313.634L41.2 313.834C41.2 314.014 41.1 314.114 40.98 314.174ZM40.62 298.773L27.38 298.773C27.18 298.773 27 298.613 27 298.393L27 290.253C27 290.033 27.18 289.873 27.38 289.873L29.02 289.873C29.22 289.873 29.4 290.033 29.4 290.253L29.4 296.173L32.68 296.173L32.68 291.233C32.68 291.033 32.86 290.853 33.06 290.853L34.72 290.853C34.94 290.853 35.1 291.033 35.1 291.233L35.1 296.173L38.6 296.173L38.6 290.253C38.6 290.033 38.78 289.873 38.98 289.873L40.62 289.873C40.82 289.873 41 290.033 41 290.253L41 298.393C41 298.613 40.82 298.773 40.62 298.773ZM34.02 270.065C30.02 270.065 26.8 266.885 26.8 262.885C26.8 258.885 30.02 255.685 34.02 255.685C38.02 255.685 41.2 258.885 41.2 262.885C41.2 266.885 38.02 270.065 34.02 270.065ZM34.02 267.465C36.54 267.465 38.6 265.405 38.6 262.885C38.6 260.365 36.54 258.285 34.02 258.285C31.5 258.285 29.4 260.365 29.4 262.885C29.4 265.405 31.5 267.465 34.02 267.465ZM40.62 246.512L27.38 246.512C27.18 246.512 27 246.352 27 246.132L27 237.992C27 237.772 27.18 237.612 27.38 237.612L29.02 237.612C29.22 237.612 29.4 237.772 29.4 237.992L29.4 243.912L33.16 243.912L33.16 238.972C33.16 238.772 33.34 238.592 33.54 238.592L35.18 238.592C35.38 238.592 35.56 238.772 35.56 238.972L35.56 243.912L40.62 243.912C40.82 243.912 41 244.092 41 244.292L41 246.132C41 246.352 40.82 246.512 40.62 246.512ZM40.62 228.779L27.38 228.779C27.18 228.779 27 228.619 27 228.399L27 220.259C27 220.039 27.18 219.879 27.38 219.879L29.02 219.879C29.22 219.879 29.4 220.039 29.4 220.259L29.4 226.179L33.16 226.179L33.16 221.239C33.16 221.039 33.34 220.859 33.54 220.859L35.18 220.859C35.38 220.859 35.56 221.039 35.56 221.239L35.56 226.179L40.62 226.179C40.82 226.179 41 226.359 41 226.559L41 228.399C41 228.619 40.82 228.779 40.62 228.779ZM40.62 211.047L27.38 211.047C27.18 211.047 27 210.887 27 210.667L27 202.527C27 202.307 27.18 202.147 27.38 202.147L29.02 202.147C29.22 202.147 29.4 202.307 29.4 202.527L29.4 208.447L32.68 208.447L32.68 203.507C32.68 203.307 32.86 203.127 33.06 203.127L34.72 203.127C34.94 203.127 35.1 203.307 35.1 203.507L35.1 208.447L38.6 208.447L38.6 202.527C38.6 202.307 38.78 202.147 38.98 202.147L40.62 202.147C40.82 202.147 41 202.307 41 202.527L41 210.667C41 210.887 40.82 211.047 40.62 211.047ZM40.62 192.923L27.38 192.923C27.18 192.923 27 192.763 27 192.543L27 186.823C27 184.423 28.92 182.463 31.3 182.463C33.14 182.463 34.64 183.683 35.34 185.423L40.42 182.683C40.68 182.543 41 182.683 41 183.023L41 185.123C41 185.303 40.9 185.403 40.82 185.443L35.52 188.103L35.52 190.323L40.62 190.323C40.82 190.323 41 190.503 41 190.703L41 192.543C41 192.763 40.82 192.923 40.62 192.923ZM33.38 190.303L33.38 187.043C33.38 185.983 32.46 185.063 31.34 185.063C30.28 185.063 29.4 185.983 29.4 187.043L29.4 190.303L33.38 190.303ZM40.62 161.715L27.38 161.715C27.18 161.715 27 161.555 27 161.355L27 156.615C27 152.755 30.14 149.595 33.98 149.595C37.86 149.595 41 152.755 41 156.615L41 161.355C41 161.555 40.82 161.715 40.62 161.715ZM38.56 159.135L38.56 156.855C38.56 154.255 36.72 152.355 33.98 152.355C31.26 152.355 29.42 154.255 29.42 156.855L29.42 159.135L38.56 159.135ZM40.62 140.408L27.38 140.408C27.18 140.408 27 140.248 27 140.028L27 131.888C27 131.668 27.18 131.508 27.38 131.508L29.02 131.508C29.22 131.508 29.4 131.668 29.4 131.888L29.4 137.808L32.68 137.808L32.68 132.868C32.68 132.668 32.86 132.488 33.06 132.488L34.72 132.488C34.94 132.488 35.1 132.668 35.1 132.868L35.1 137.808L38.6 137.808L38.6 131.888C38.6 131.668 38.78 131.508 38.98 131.508L40.62 131.508C40.82 131.508 41 131.668 41 131.888L41 140.028C41 140.248 40.82 140.408 40.62 140.408ZM41 123.605C41 123.905 40.74 124.065 40.48 123.945L27.02 117.725C26.9 117.665 26.8 117.565 26.8 117.385L26.8 117.185C26.8 116.985 26.9 116.905 27.02 116.845L40.48 110.685C40.74 110.565 41 110.725 41 111.025L41 112.765C41 113.065 40.88 113.205 40.6 113.345L38.44 114.325L38.44 120.305L40.6 121.285C40.8 121.365 41 121.545 41 121.865L41 123.605ZM36.22 119.325L36.22 115.305L31.82 117.305L31.82 117.365L36.22 119.325ZM40.62 102.325L27.38 102.325C27.18 102.325 27 102.165 27 101.945L27 100.105C27 99.9055 27.18 99.7255 27.38 99.7255L38.6 99.7254L38.6 94.6254C38.6 94.4054 38.78 94.2454 38.98 94.2454L40.62 94.2454C40.82 94.2454 41 94.4054 41 94.6254L41 101.945C41 102.165 40.82 102.325 40.62 102.325ZM41.2 81.8078C41.2 84.3278 40.14 85.6278 39.64 86.2078C39.48 86.4078 39.36 86.4878 39.04 86.3078L37.8 85.5878C37.52 85.4278 37.52 85.0878 37.66 84.9078C38.28 84.0878 38.9 83.1878 38.9 81.8878C38.9 80.8478 38.22 80.0678 37.36 80.0678C36.34 80.0678 35.64 80.9278 34.96 82.6078C34.2 84.4878 33 86.3678 30.64 86.3678C28.86 86.3678 26.8 85.0478 26.8 81.8678C26.8 79.8278 27.84 78.2678 28.14 77.8678C28.26 77.6678 28.6 77.6078 28.8 77.7478L29.94 78.5078C30.18 78.6678 30.34 78.9678 30.18 79.2078C29.64 80.0678 29.08 80.8878 29.08 81.9878C29.08 83.1278 29.72 83.7478 30.48 83.7478C31.42 83.7478 32.06 83.0078 32.72 81.3878C33.5 79.4478 34.66 77.2078 37.24 77.2078C39.3 77.2078 41.2 78.9878 41.2 81.8078Z" fill="white"/>
<path d="M25.5703 462.766L34.7329 466.013C34.7742 466.027 34.8186 466.03 34.8615 466.022C34.9044 466.013 34.9441 465.993 34.9764 465.963C35.0087 465.934 35.0323 465.896 35.0448 465.854C35.0572 465.812 35.058 465.767 35.047 465.725L33.955 461.483C33.9446 461.443 33.9449 461.4 33.9559 461.36C33.9669 461.32 33.9882 461.283 34.0177 461.253C34.0473 461.224 34.084 461.202 34.1243 461.191C34.1646 461.18 34.2072 461.179 34.2478 461.189L43.6528 463.563C43.9255 463.631 44.0755 463.258 43.8308 463.119L31.1996 455.964C31.1598 455.942 31.1146 455.931 31.0691 455.934C31.0237 455.936 30.9798 455.951 30.9425 455.977C30.9053 456.004 30.8763 456.04 30.8588 456.082C30.8413 456.124 30.836 456.17 30.8437 456.215L31.7141 461.258C31.7218 461.303 31.7166 461.349 31.6991 461.391C31.6815 461.434 31.6523 461.47 31.6149 461.496C31.5774 461.522 31.5333 461.537 31.4876 461.54C31.4419 461.542 31.3966 461.531 31.3568 461.508L23.4053 456.976C23.3612 456.952 23.3106 456.941 23.2604 456.947C23.2102 456.953 23.1631 456.974 23.1256 457.008C23.0881 457.041 23.0621 457.086 23.0514 457.135C23.0407 457.185 23.0457 457.236 23.0658 457.282L25.4302 462.636C25.4435 462.666 25.4628 462.693 25.4869 462.716C25.511 462.738 25.5394 462.755 25.5703 462.766Z" fill="url(#paint1_linear_1319_12490)"/>
<defs>
<linearGradient id="paint0_linear_1319_12490" x1="12.5882" y1="63.1306" x2="71.08" y2="55.2144" gradientUnits="userSpaceOnUse">
<stop stop-color="#FFE08B"/>
<stop offset="1" stop-color="#FF0000"/>
</linearGradient>
<linearGradient id="paint1_linear_1319_12490" x1="12.5882" y1="464.224" x2="71.08" y2="456.308" gradientUnits="userSpaceOnUse">
<stop stop-color="#FFE08B"/>
<stop offset="1" stop-color="#FF0000"/>
</linearGradient>
</defs>
</svg>
