<svg width="25" height="29" viewBox="0 0 25 29" fill="none" xmlns="http://www.w3.org/2000/svg">
<path d="M12.904 12.1297C12.768 12.1119 12.6304 12.1119 12.4945 12.1297C11.0475 12.079 9.67612 11.445 8.67003 10.3616C7.66395 9.27823 7.10196 7.8303 7.10278 6.32372C7.10278 3.11002 9.59388 0.500009 12.6992 0.500009C14.1656 0.49736 15.5743 1.09447 16.6215 2.16261C17.6688 3.23075 18.2707 4.68436 18.2976 6.21006C18.3245 7.73576 17.7741 9.21134 16.7651 10.3187C15.7562 11.426 14.3695 12.0764 12.904 12.1297ZM24.1992 23.8481C21.0636 26.8471 16.958 28.5078 12.6992 28.5C8.26302 28.5 4.23631 26.7422 1.19922 23.8481C1.36984 22.1791 2.39358 20.5456 4.21925 19.2673C8.89432 16.0358 16.5382 16.0358 21.1792 19.2673C23.0049 20.5456 24.0286 22.1791 24.1992 23.8481Z" stroke="black" stroke-linecap="round" stroke-linejoin="round"/>
</svg>
