<svg width="21" height="24" viewBox="0 0 21 24" fill="none" xmlns="http://www.w3.org/2000/svg">
<path d="M18.6376 2.6471L11.7992 0.188013C11.0905 -0.062671 9.93423 -0.062671 9.22553 0.188013L2.3872 2.6471C1.06927 3.1246 0 4.60482 0 5.95374V15.623C0 16.5899 0.658967 17.8672 1.46713 18.4402L8.30546 23.3464C9.5115 24.2179 11.4884 24.2179 12.6944 23.3464L19.5328 18.4402C20.3409 17.8553 20.9999 16.5899 20.9999 15.623V5.95374C21.0123 4.60482 19.9431 3.1246 18.6376 2.6471ZM14.833 9.33201L9.48663 14.4651C9.30013 14.6441 9.0639 14.7277 8.82766 14.7277C8.59143 14.7277 8.3552 14.6441 8.1687 14.4651L6.17936 12.5312C5.8188 12.185 5.8188 11.612 6.17936 11.2659C6.53993 10.9197 7.13673 10.9197 7.4973 11.2659L8.8401 12.5551L13.5275 8.05471C13.888 7.70853 14.4848 7.70853 14.8454 8.05471C15.206 8.4009 15.206 8.98583 14.833 9.33201Z" fill="#80BA27"/>
</svg>
