<svg width="22" height="25" viewBox="0 0 22 25" fill="none" xmlns="http://www.w3.org/2000/svg">
<path d="M0 15C0 12.1716 0 10.7574 0.87868 9.87868C1.75736 9 3.17157 9 6 9H15.3333C18.1618 9 19.576 9 20.4547 9.87868C21.3333 10.7574 21.3333 12.1716 21.3333 15V19C21.3333 21.8284 21.3333 23.2426 20.4547 24.1213C19.576 25 18.1618 25 15.3333 25H6.00001C3.17157 25 1.75736 25 0.87868 24.1213C0 23.2426 0 21.8284 0 19V15Z" fill="black"/>
<path d="M15.9987 7.66667V6.33333C15.9987 3.38781 13.6109 1 10.6654 1V1C7.71985 1 5.33203 3.38781 5.33203 6.33333V7.66667" stroke="black" stroke-width="1.4" stroke-linecap="round"/>
<circle cx="10.6667" cy="17.0002" r="2.66667" fill="#80BA27"/>
</svg>
