<svg width="21" height="12" viewBox="0 0 21 12" fill="none" xmlns="http://www.w3.org/2000/svg">
<path d="M2.56935 7.76639L11.7319 11.0127C11.7732 11.0274 11.8176 11.0305 11.8605 11.0218C11.9034 11.0131 11.9432 10.9929 11.9754 10.9633C12.0077 10.9338 12.0313 10.896 12.0438 10.8541C12.0562 10.8121 12.057 10.7676 12.046 10.7252L10.954 6.48355C10.9436 6.44303 10.9439 6.40051 10.9549 6.36015C10.9659 6.31978 10.9872 6.28297 11.0168 6.25332C11.0463 6.22368 11.083 6.20221 11.1233 6.19104C11.1637 6.17986 11.2062 6.17936 11.2468 6.18958L20.6518 8.56291C20.9246 8.63162 21.0745 8.25782 20.8298 8.11929L8.19859 0.964173C8.15886 0.941923 8.11364 0.931364 8.06816 0.933718C8.02268 0.936072 7.97879 0.951241 7.94157 0.977473C7.90435 1.00371 7.87531 1.03993 7.85781 1.08196C7.84031 1.12399 7.83506 1.17012 7.84268 1.215L8.71311 6.25785C8.72087 6.3029 8.71567 6.34923 8.6981 6.39145C8.68053 6.43366 8.65133 6.47001 8.6139 6.49627C8.57646 6.52253 8.53233 6.53762 8.48665 6.53978C8.44097 6.54193 8.39561 6.53107 8.35586 6.50846L0.404276 1.97661C0.36027 1.95187 0.309604 1.94155 0.259422 1.94713C0.20924 1.9527 0.162074 1.97388 0.124576 2.00768C0.0870785 2.04148 0.0611403 2.0862 0.0504197 2.13552C0.039699 2.18484 0.0447367 2.23628 0.0648224 2.28259L2.42921 7.63653C2.4425 7.66657 2.46178 7.69358 2.48588 7.71591C2.50998 7.73824 2.53838 7.75542 2.56935 7.76639Z" fill="url(#paint0_linear_1_433)"/>
<defs>
<linearGradient id="paint0_linear_1_433" x1="-10.4128" y1="9.22397" x2="48.079" y2="1.30783" gradientUnits="userSpaceOnUse">
<stop stop-color="#FFE08B"/>
<stop offset="1" stop-color="#FF0000"/>
</linearGradient>
</defs>
</svg>
