<svg width="43" height="27" viewBox="0 0 43 27" fill="none" xmlns="http://www.w3.org/2000/svg">
<g clipPath="url(#clip0_823_14928)">
<rect width="43" height="26" transform="translate(0 0.5)" fill="white"/>
<path d="M0.233398 2.35714C0.233398 1.33147 1.07043 0.5 2.10296 0.5H40.8964C41.929 0.5 42.766 1.33147 42.766 2.35714V24.6429C42.766 25.6686 41.929 26.5 40.8964 26.5H2.10296C1.07043 26.5 0.233398 25.6686 0.233398 24.6429V2.35714Z" fill="white"/>
<path fill-rule="evenodd" clip-rule="evenodd" d="M12.9534 18.2802H10.2493L8.22149 10.6311C8.12524 10.2792 7.92088 9.96815 7.62027 9.82153C6.87008 9.45311 6.04341 9.15989 5.1416 9.01202V8.71753H9.49772C10.099 8.71753 10.5498 9.15989 10.625 9.67366L11.6772 15.1912L14.3799 8.71753H17.0089L12.9534 18.2802ZM18.5118 18.2802H15.958L18.061 8.71753H20.6148L18.5118 18.2802ZM23.9189 11.3668C23.994 10.8517 24.445 10.5572 24.971 10.5572C25.7977 10.4833 26.6982 10.6312 27.4497 10.9983L27.9006 8.93944C27.149 8.64495 26.3224 8.49707 25.5722 8.49707C23.0936 8.49707 21.2899 9.82162 21.2899 11.6599C21.2899 13.0584 22.5675 13.7928 23.4693 14.2351C24.445 14.6762 24.8207 14.9707 24.7455 15.4118C24.7455 16.0735 23.994 16.368 23.2439 16.368C22.342 16.368 21.4402 16.1474 20.6149 15.779L20.164 17.8391C21.0657 18.2063 22.0415 18.3542 22.9433 18.3542C25.7226 18.4268 27.4497 17.1036 27.4497 15.1174C27.4497 12.6161 23.9189 12.4694 23.9189 11.3668ZM36.3873 18.2802L34.3596 8.71753H32.1815C31.7306 8.71753 31.2796 9.01202 31.1293 9.45311L27.3744 18.2802H30.0034L30.5282 16.8829H33.7583L34.0589 18.2802H36.3873ZM32.5573 11.2929L33.3075 14.8968H31.2046L32.5573 11.2929Z" fill="#172B85"/>
<path d="M2.10318 1.42843H40.8967V-0.428711H2.10318V1.42843ZM41.8314 2.357V24.6427H43.701V2.357H41.8314ZM40.8967 25.5713H2.10318V27.4284H40.8967V25.5713ZM1.16839 24.6427V2.357H-0.701172V24.6427H1.16839ZM2.10318 25.5713C1.58691 25.5713 1.16839 25.1556 1.16839 24.6427H-0.701172C-0.701172 26.1813 0.554378 27.4284 2.10318 27.4284V25.5713ZM41.8314 24.6427C41.8314 25.1556 41.4129 25.5713 40.8967 25.5713V27.4284C42.4455 27.4284 43.701 26.1813 43.701 24.6427H41.8314ZM40.8967 1.42843C41.4129 1.42843 41.8314 1.84417 41.8314 2.357H43.701C43.701 0.818496 42.4455 -0.428711 40.8967 -0.428711V1.42843ZM2.10318 -0.428711C0.554377 -0.428711 -0.701172 0.818497 -0.701172 2.357H1.16839C1.16839 1.84417 1.58691 1.42843 2.10318 1.42843V-0.428711Z" fill="#E1E2E4"/>
</g>
<defs>
<clipPath id="clip0_823_14928">
<rect width="43" height="26" fill="white" transform="translate(0 0.5)"/>
</clipPath>
</defs>
</svg>
